<svg xmlns="http://www.w3.org/2000/svg" xmlns:xlink="http://www.w3.org/1999/xlink" width="500" zoomAndPan="magnify" viewBox="0 0 375 374.999991" height="500" preserveAspectRatio="xMidYMid meet" version="1.0"><path fill="#ffffff" d="M 315.554688 166.09375 L 314.480469 168.332031 C 313.855469 168.332031 313.140625 168.242188 312.515625 168.242188 C 311.800781 168.242188 311.085938 168.242188 310.28125 168.242188 C 309.65625 168.242188 309.207031 168.242188 308.9375 168.242188 C 308.671875 168.242188 308.402344 168.242188 308.132812 168.242188 L 307.957031 175.230469 C 308.582031 174.78125 309.296875 174.242188 310.011719 173.796875 C 310.726562 173.257812 311.441406 172.722656 312.15625 172.09375 C 312.695312 172.8125 313.230469 173.4375 313.765625 174.152344 C 314.300781 174.78125 314.839844 175.40625 315.464844 176.035156 C 314.660156 176.570312 313.945312 177.109375 313.320312 177.648438 C 312.695312 178.183594 312.066406 178.722656 311.441406 179.257812 C 310.90625 178.632812 310.371094 178.003906 309.742188 177.378906 C 309.117188 176.75 308.582031 176.125 307.957031 175.496094 L 308.132812 183.914062 C 308.3125 183.914062 308.671875 183.914062 309.027344 183.914062 C 309.386719 183.914062 309.742188 183.914062 309.921875 183.914062 C 310.726562 183.914062 311.53125 183.914062 312.335938 183.828125 C 313.230469 183.828125 314.125 183.738281 315.105469 183.648438 L 316.359375 186.066406 C 315.375 185.976562 314.300781 185.976562 313.140625 185.976562 C 311.976562 185.976562 310.726562 185.976562 309.386719 185.976562 C 308.222656 185.976562 307.152344 185.976562 306.078125 185.976562 C 305.09375 185.976562 304.113281 186.066406 303.21875 186.066406 L 302.324219 185.257812 C 302.414062 183.558594 302.414062 181.945312 302.503906 180.421875 C 302.503906 178.902344 302.59375 177.46875 302.59375 176.035156 C 302.59375 174.601562 302.59375 173.167969 302.503906 171.644531 C 302.503906 170.125 302.414062 168.601562 302.324219 166.988281 L 303.308594 166.003906 C 304.46875 166.09375 305.542969 166.09375 306.527344 166.09375 C 307.507812 166.09375 308.492188 166.09375 309.386719 166.09375 C 310.28125 166.09375 311.261719 166.09375 312.335938 166.09375 C 313.410156 166.09375 314.480469 166.09375 315.554688 166.09375 M 300.179688 182.035156 L 296.960938 186.066406 C 296.691406 186.15625 296.335938 186.15625 295.976562 186.15625 C 295.621094 186.15625 295.261719 186.15625 294.816406 186.15625 C 291.6875 186.15625 289.183594 185.257812 287.394531 183.46875 C 285.519531 181.675781 284.625 179.257812 284.625 176.214844 C 284.625 173.167969 285.609375 170.660156 287.574219 168.691406 C 289.542969 166.808594 292.132812 165.824219 295.261719 165.824219 C 295.796875 165.824219 296.335938 165.824219 296.78125 165.914062 C 297.230469 165.914062 297.675781 166.003906 298.121094 166.09375 L 299.554688 168.511719 C 298.925781 168.421875 298.390625 168.332031 297.945312 168.332031 C 297.496094 168.242188 297.050781 168.242188 296.691406 168.242188 C 294.636719 168.242188 293.027344 168.78125 291.953125 169.945312 C 290.882812 171.019531 290.257812 172.632812 290.257812 174.691406 C 290.257812 177.019531 290.972656 178.8125 292.402344 180.15625 C 293.832031 181.496094 295.710938 182.125 298.210938 182.125 C 298.480469 182.125 298.75 182.125 299.105469 182.125 C 299.375 182.125 299.730469 182.125 300.179688 182.035156 Z M 267.460938 173.257812 L 267.460938 185.167969 L 264.601562 186.601562 L 264.601562 170.035156 L 263.4375 168.78125 C 264.242188 168.242188 264.957031 167.707031 265.761719 167.167969 C 266.476562 166.632812 267.28125 166.003906 267.996094 165.46875 C 269.875 167.976562 271.753906 170.304688 273.539062 172.453125 C 275.328125 174.601562 277.027344 176.570312 278.636719 178.273438 L 278.636719 166.898438 L 281.40625 165.46875 L 281.40625 181.585938 L 282.65625 183.019531 C 281.941406 183.648438 281.226562 184.273438 280.511719 184.902344 C 279.886719 185.527344 279.171875 186.15625 278.636719 186.871094 C 276.667969 184.453125 274.792969 182.125 272.914062 179.886719 C 271.125 177.648438 269.25 175.40625 267.460938 173.257812 Z M 250.03125 173.976562 C 248.597656 175.945312 247.257812 178.003906 245.917969 180.15625 C 244.578125 182.304688 243.234375 184.542969 241.894531 186.78125 L 240.195312 184.273438 C 241.894531 181.675781 243.414062 179.347656 244.753906 177.199219 C 246.097656 175.050781 247.347656 173.078125 248.511719 171.199219 L 246.632812 168.511719 C 247.4375 167.976562 248.242188 167.4375 249.046875 166.898438 C 249.851562 166.363281 250.566406 165.734375 251.371094 165.199219 C 253.160156 168.242188 254.945312 171.289062 256.734375 174.332031 C 258.613281 177.289062 260.488281 180.332031 262.367188 183.199219 C 261.652344 183.648438 260.847656 184.183594 260.042969 184.8125 C 259.238281 185.4375 258.433594 186.066406 257.539062 186.78125 C 256.289062 184.542969 255.125 182.394531 253.875 180.242188 C 252.53125 178.183594 251.28125 176.125 250.03125 173.976562 Z M 249.671875 178.453125 C 250.207031 179.167969 250.835938 179.886719 251.460938 180.601562 C 252.085938 181.320312 252.710938 181.945312 253.425781 182.660156 C 252.890625 183.109375 252.265625 183.648438 251.640625 184.183594 C 251.011719 184.722656 250.386719 185.347656 249.671875 185.976562 C 248.957031 185.257812 248.242188 184.632812 247.617188 184.09375 C 246.992188 183.558594 246.363281 183.019531 245.828125 182.574219 C 246.542969 181.855469 247.167969 181.230469 247.796875 180.511719 C 248.511719 179.796875 249.136719 179.078125 249.671875 178.453125 Z M 232.152344 166.09375 C 232.0625 167.527344 232.0625 168.960938 231.972656 170.480469 C 231.972656 172.003906 231.882812 173.527344 231.882812 175.140625 C 231.882812 176.75 231.882812 178.273438 231.972656 179.707031 C 231.972656 181.140625 232.0625 182.574219 232.152344 183.914062 L 233.132812 183.914062 C 234.207031 183.914062 235.28125 183.914062 236.351562 183.828125 C 237.425781 183.828125 238.5 183.738281 239.660156 183.648438 L 238.5 186.15625 C 237.605469 186.15625 236.621094 186.066406 235.546875 186.066406 C 234.566406 186.066406 233.492188 186.066406 232.332031 186.066406 C 231.527344 186.066406 230.632812 186.066406 229.828125 186.066406 C 229.023438 186.066406 228.21875 186.066406 227.414062 186.15625 L 226.519531 185.347656 C 226.609375 183.648438 226.609375 182.035156 226.699219 180.511719 C 226.699219 178.988281 226.789062 177.558594 226.789062 176.125 C 226.789062 174.691406 226.789062 173.257812 226.699219 171.734375 C 226.699219 170.214844 226.609375 168.691406 226.519531 167.078125 L 227.503906 166.09375 L 227.59375 166.09375 C 228.574219 166.183594 229.378906 166.183594 229.917969 166.183594 C 230.183594 166.183594 230.542969 166.183594 230.898438 166.183594 C 230.988281 166.183594 231.527344 166.09375 232.152344 166.09375 Z M 212.753906 173.976562 C 211.324219 175.945312 209.980469 178.003906 208.640625 180.15625 C 207.300781 182.304688 205.960938 184.542969 204.617188 186.78125 L 202.921875 184.273438 C 204.617188 181.675781 206.136719 179.347656 207.480469 177.199219 C 208.820312 175.050781 210.070312 173.078125 211.234375 171.199219 L 209.355469 168.511719 C 210.160156 167.976562 210.964844 167.4375 211.769531 166.898438 C 212.574219 166.363281 213.289062 165.734375 214.09375 165.199219 C 215.882812 168.242188 217.667969 171.289062 219.457031 174.332031 C 221.335938 177.289062 223.210938 180.332031 225.089844 183.199219 C 224.375 183.648438 223.570312 184.183594 222.765625 184.8125 C 221.960938 185.4375 221.15625 186.066406 220.261719 186.78125 C 219.011719 184.542969 217.847656 182.394531 216.597656 180.242188 C 215.257812 178.183594 214.003906 176.125 212.753906 173.976562 Z M 212.394531 178.453125 C 212.933594 179.167969 213.558594 179.886719 214.183594 180.601562 C 214.808594 181.320312 215.433594 181.945312 216.148438 182.660156 C 215.613281 183.109375 214.988281 183.648438 214.363281 184.183594 C 213.738281 184.722656 213.109375 185.347656 212.394531 185.976562 C 211.679688 185.257812 210.964844 184.632812 210.339844 184.09375 C 209.714844 183.558594 209.089844 183.019531 208.550781 182.574219 C 209.265625 181.855469 209.894531 181.230469 210.519531 180.511719 C 211.234375 179.796875 211.769531 179.078125 212.394531 178.453125 Z M 189.957031 166.09375 C 191.746094 166.09375 193.265625 166.09375 194.429688 166.183594 C 195.589844 166.273438 196.484375 166.363281 197.019531 166.542969 C 198.359375 166.898438 199.433594 167.527344 200.148438 168.242188 C 200.863281 168.960938 201.222656 169.855469 201.222656 170.929688 C 201.222656 172.003906 200.863281 172.898438 200.058594 173.707031 C 199.253906 174.421875 198.09375 175.050781 196.574219 175.40625 C 198.449219 175.765625 199.96875 176.394531 200.953125 177.289062 C 201.9375 178.183594 202.472656 179.257812 202.472656 180.511719 C 202.472656 181.675781 202.203125 182.574219 201.578125 183.378906 C 200.953125 184.183594 200.148438 184.8125 198.898438 185.257812 C 198.183594 185.527344 197.289062 185.707031 196.035156 185.886719 C 194.785156 185.976562 193.265625 186.066406 191.300781 186.066406 L 186.203125 186.066406 L 185.308594 185.257812 C 185.398438 183.558594 185.398438 181.945312 185.488281 180.421875 C 185.488281 178.902344 185.578125 177.46875 185.578125 176.035156 C 185.578125 174.601562 185.578125 173.167969 185.488281 171.644531 C 185.488281 170.125 185.398438 168.601562 185.308594 166.988281 L 186.292969 166.09375 Z M 190.585938 175.40625 C 192.28125 175.316406 193.625 174.960938 194.515625 174.242188 C 195.410156 173.527344 195.859375 172.632812 195.859375 171.558594 C 195.859375 170.394531 195.410156 169.496094 194.429688 168.78125 C 193.535156 168.0625 192.191406 167.707031 190.585938 167.617188 Z M 190.671875 184.542969 C 192.730469 184.453125 194.25 184.003906 195.320312 183.289062 C 196.394531 182.574219 196.929688 181.675781 196.929688 180.511719 C 196.929688 179.347656 196.394531 178.453125 195.320312 177.734375 C 194.25 177.109375 192.640625 176.660156 190.585938 176.570312 Z M 156.167969 173.257812 L 156.167969 185.167969 L 153.398438 186.601562 L 153.398438 170.035156 L 152.234375 168.78125 C 153.039062 168.242188 153.753906 167.707031 154.558594 167.167969 C 155.273438 166.632812 156.078125 166.003906 156.792969 165.46875 C 158.671875 167.976562 160.546875 170.304688 162.335938 172.453125 C 164.125 174.601562 165.824219 176.570312 167.429688 178.273438 L 167.429688 166.898438 L 170.203125 165.46875 L 170.203125 181.585938 L 171.453125 183.019531 C 170.738281 183.648438 170.023438 184.273438 169.308594 184.902344 C 168.683594 185.527344 167.96875 186.15625 167.429688 186.871094 C 165.464844 184.453125 163.585938 182.125 161.710938 179.886719 C 159.832031 177.648438 157.957031 175.40625 156.167969 173.257812 Z M 138.738281 173.976562 C 137.304688 175.945312 135.964844 178.003906 134.625 180.15625 C 133.285156 182.304688 131.941406 184.542969 130.601562 186.78125 L 128.902344 184.273438 C 130.601562 181.675781 132.121094 179.347656 133.460938 177.199219 C 134.804688 175.050781 136.054688 173.078125 137.21875 171.199219 L 135.339844 168.511719 C 136.144531 167.976562 136.949219 167.4375 137.753906 166.898438 C 138.558594 166.363281 139.273438 165.734375 140.078125 165.199219 C 141.867188 168.242188 143.652344 171.289062 145.441406 174.332031 C 147.316406 177.289062 149.195312 180.332031 151.074219 183.199219 C 150.359375 183.648438 149.554688 184.183594 148.75 184.8125 C 147.945312 185.4375 147.140625 186.066406 146.246094 186.78125 C 144.992188 184.542969 143.832031 182.394531 142.582031 180.242188 C 141.238281 178.183594 139.988281 176.125 138.738281 173.976562 Z M 138.378906 178.453125 C 138.914062 179.167969 139.542969 179.886719 140.167969 180.601562 C 140.792969 181.320312 141.417969 181.945312 142.132812 182.660156 C 141.597656 183.109375 140.972656 183.648438 140.34375 184.183594 C 139.71875 184.722656 139.09375 185.347656 138.378906 185.976562 C 137.664062 185.257812 136.949219 184.632812 136.324219 184.09375 C 135.695312 183.558594 135.070312 183.019531 134.535156 182.574219 C 135.25 181.855469 135.875 181.230469 136.5 180.511719 C 137.21875 179.796875 137.84375 179.078125 138.378906 178.453125 Z M 127.117188 166.09375 C 127.027344 167.617188 127.027344 169.140625 126.9375 170.75 C 126.9375 172.363281 126.847656 173.976562 126.847656 175.675781 C 126.847656 177.378906 126.847656 178.988281 126.9375 180.601562 C 126.9375 182.214844 127.027344 183.738281 127.117188 185.257812 L 126.222656 186.15625 C 125.773438 186.15625 125.328125 186.066406 124.96875 186.066406 C 124.523438 186.066406 124.078125 186.066406 123.628906 186.066406 C 123.183594 186.066406 122.734375 186.066406 122.378906 186.066406 C 121.929688 186.066406 121.574219 186.066406 121.125 186.15625 C 121.214844 184.363281 121.214844 182.660156 121.304688 181.050781 C 121.304688 179.4375 121.394531 177.914062 121.394531 176.394531 C 121.394531 174.871094 121.394531 173.347656 121.304688 171.824219 C 121.304688 170.304688 121.214844 168.691406 121.125 167.078125 L 122.109375 166.183594 C 122.734375 166.183594 123.273438 166.273438 123.539062 166.273438 C 123.898438 166.273438 124.253906 166.273438 124.523438 166.273438 C 124.792969 166.273438 125.148438 166.273438 125.507812 166.273438 C 125.863281 166.183594 126.402344 166.183594 127.117188 166.09375 Z M 104.855469 166.09375 C 106.824219 166.09375 108.523438 166.183594 109.863281 166.363281 C 111.203125 166.542969 112.277344 166.898438 113.082031 167.257812 C 114.78125 168.152344 115.941406 169.226562 116.746094 170.660156 C 117.550781 172.003906 117.910156 173.796875 117.910156 175.855469 C 117.910156 179.347656 116.835938 181.945312 114.601562 183.648438 C 112.367188 185.347656 109.058594 186.15625 104.5 186.15625 L 99.851562 186.15625 L 98.957031 185.347656 C 99.046875 183.648438 99.046875 182.035156 99.136719 180.511719 C 99.136719 178.988281 99.226562 177.558594 99.226562 176.125 C 99.226562 174.691406 99.226562 173.257812 99.136719 171.734375 C 99.136719 170.214844 99.046875 168.691406 98.957031 167.078125 L 99.941406 166.09375 Z M 104.679688 184.363281 C 107.089844 184.273438 108.878906 183.46875 110.132812 181.945312 C 111.382812 180.511719 112.007812 178.363281 112.007812 175.675781 C 112.007812 173.078125 111.382812 171.109375 110.132812 169.765625 C 108.878906 168.421875 107.089844 167.707031 104.679688 167.617188 C 104.589844 168.960938 104.589844 170.394531 104.589844 171.734375 C 104.589844 173.167969 104.589844 174.511719 104.589844 175.945312 C 104.589844 177.289062 104.589844 178.722656 104.589844 180.066406 C 104.5 181.585938 104.589844 182.929688 104.679688 184.363281 Z M 80.632812 173.257812 L 80.632812 185.167969 L 77.769531 186.601562 L 77.769531 170.035156 L 76.609375 168.78125 C 77.414062 168.242188 78.128906 167.707031 78.933594 167.167969 C 79.648438 166.632812 80.453125 166.003906 81.167969 165.46875 C 83.046875 167.976562 84.921875 170.304688 86.710938 172.453125 C 88.5 174.601562 90.195312 176.570312 91.804688 178.273438 L 91.804688 166.898438 L 94.578125 165.46875 L 94.578125 181.585938 L 95.828125 183.019531 C 95.113281 183.648438 94.398438 184.273438 93.683594 184.902344 C 93.058594 185.527344 92.34375 186.15625 91.804688 186.871094 C 89.839844 184.453125 87.960938 182.125 86.085938 179.886719 C 84.296875 177.648438 82.417969 175.40625 80.632812 173.257812 Z M 72.40625 166.09375 C 72.316406 167.617188 72.316406 169.140625 72.230469 170.75 C 72.230469 172.363281 72.140625 173.976562 72.140625 175.675781 C 72.140625 177.378906 72.140625 178.988281 72.230469 180.601562 C 72.230469 182.214844 72.316406 183.738281 72.40625 185.257812 L 71.515625 186.15625 C 71.066406 186.15625 70.621094 186.066406 70.261719 186.066406 C 69.816406 186.066406 69.367188 186.066406 68.921875 186.066406 C 68.472656 186.066406 68.027344 186.066406 67.667969 186.066406 C 67.222656 186.066406 66.867188 186.066406 66.417969 186.15625 C 66.507812 184.363281 66.507812 182.660156 66.597656 181.050781 C 66.597656 179.4375 66.6875 177.914062 66.6875 176.394531 C 66.6875 174.871094 66.6875 173.347656 66.597656 171.824219 C 66.597656 170.304688 66.507812 168.691406 66.417969 167.078125 L 67.402344 166.183594 C 68.027344 166.183594 68.5625 166.273438 68.832031 166.273438 C 69.191406 166.273438 69.546875 166.273438 69.816406 166.273438 C 70.082031 166.273438 70.441406 166.273438 70.796875 166.273438 C 71.15625 166.183594 71.691406 166.183594 72.40625 166.09375 Z M 72.40625 166.09375 " fill-opacity="1" fill-rule="nonzero"/></svg>