<?xml version="1.0" encoding="utf-8"?>
<!-- Generator: Adobe Illustrator 27.5.0, SVG Export Plug-In . SVG Version: 6.00 Build 0)  -->
<svg version="1.1" id="Ebene_1" xmlns="http://www.w3.org/2000/svg" xmlns:xlink="http://www.w3.org/1999/xlink" x="0px" y="0px"
	 viewBox="0 0 419.5 42.5" style="enable-background:new 0 0 419.5 42.5;" xml:space="preserve">
<style type="text/css">
	.st0{fill:#FFFFFF;}
	.st1{fill:none;stroke:#FFFFFF;stroke-width:0.5;stroke-linejoin:bevel;stroke-miterlimit:22.9256;}
</style>
<path class="st0" d="M172.4,18.9l-0.2-0.1l-0.3-0.3l-0.2-0.1c0,0-0.1-0.1-0.2-0.4c-0.1-0.2-0.2-0.4-0.4-0.6c-0.1,0-0.2-0.1-0.3-0.2
	V17l-0.5-0.1l-0.4-0.2c-0.1-0.1-0.2-0.1-0.4-0.1c-0.2,0-0.4-0.1-0.6-0.1l-0.9,0.1l-0.3,0.1l-0.3-0.2l-0.5,0.1h-0.6l-0.1,0.3
	l-0.2,0.1c0,0.2,0,0.3,0.1,0.3c-0.1,0.2-0.4,0.4-0.7,0.7l-0.2,0.5l-0.3,0.1l-0.3,0.8l-0.1,0.9l-0.3,0.3v0.5
	c-0.2,0.2-0.3,0.4-0.3,0.5l0.1,0.7l-0.5,0.9l-0.1,0.7l0,1l0.1,0.2l-0.2,0.4l0.1,0.2l-0.2,0.5c0.2,0.3,0.3,0.7,0.4,1.1l0.3,0.1
	l-0.1,0.2h0.3c0.2,0.1,0.3,0.2,0.4,0.2c0,0,0.1,0,0.1-0.1c0.1-0.1,0.2-0.1,0.5-0.1v0.1c0.1-0.1,0.2-0.2,0.2-0.3
	c0.2,0,0.2-0.1,0.2-0.2l0.3-0.1l0.1,0.1l0.1-0.3l0.6-0.2l0.1-0.3l0.4-0.2V26l0.3-0.3l0.1,0c0.1,0,0.1-0.1,0.1-0.2h0.2v-0.2l0.5-0.2
	l-0.1-0.5l0.3-0.2l-0.2-0.2c0,0,0.1,0,0.2,0c0.1,0,0.2,0,0.4-0.1l0-0.1l0.3,0l0.3-0.9l0.3-0.3l0.1-0.5l0.4-0.1
	c0.3-0.5,0.5-0.8,0.7-0.9v-0.4l0.3-0.1l0.7-1.5L172.4,18.9z M175.3,27c-0.2,0.8-0.5,1.3-0.8,1.5c-0.2-0.1-0.4-0.2-0.5-0.3l-0.5-0.8
	l-0.2-0.5l-0.4-1.4v-1.3l-0.1-1.2l0.1-0.7l-0.1-0.6V21l-0.3-0.4l-0.1,0.2l-0.2,0l-0.5,1.1l-0.5,0.8h-0.2l-0.1,0.3
	c0,0.1-0.1,0.2-0.2,0.4c-0.1,0.1-0.2,0.3-0.3,0.5l-0.8,0.9l-0.6,0.9l-0.7,0.7c-0.2,0.3-0.3,0.5-0.5,0.7l-0.4,0.3
	c-0.1,0.1-0.3,0.3-0.5,0.6l-0.5,0.2c-0.1,0-0.2,0.1-0.3,0.3l-0.4,0.1c-0.1,0-0.3,0.1-0.6,0.3l-0.3-0.1l-0.1,0.2l-0.3,0l-0.9-0.7
	c-0.2-0.2-0.3-0.5-0.3-0.9c-0.1-0.4-0.2-0.6-0.3-0.6l-0.2,0.1l0.3-0.5l-0.1-0.5l0.1-0.4l-0.1-0.6l0.2-0.9v-0.8l0.2-0.3v-0.7
	c0.1-0.3,0.2-0.5,0.2-0.7l0.1-0.1V21l0.3-0.5l0-0.4c0.1-0.2,0.2-0.4,0.3-0.6l0.1-0.9c0-0.2,0.1-0.4,0.3-0.5l0-0.3
	c0-0.1,0.1-0.2,0.2-0.4c0.1-0.2,0.2-0.3,0.2-0.4c0.3-0.3,0.5-0.5,0.7-0.6l-0.1-0.1c0.1,0,0.2-0.1,0.2-0.1c0,0,0.1,0,0.2,0
	c0.1,0,0.1,0,0.2,0l-0.1-0.1l1.3-0.4c0.2,0,0.4,0,0.5,0c0.2,0,0.2,0,0.2-0.1v0l0.5,0l0.3,0.1l0.2-0.1c0,0.1,0.1,0.1,0.2,0.1
	c0,0,0.1,0,0.1,0l0.5,0v0.1l0.1-0.1l0.4,0.4l0.5-0.1l0.3,0.5l0.5,0.4c0.1,0,0.1,0.2,0.3,0.4l0.5,0.3c0.2,0.2,0.3,0.2,0.4,0.2
	c0.1,0,0.1,0,0.1-0.1l0.2-1l0.2-0.5l-0.1-0.8l0.1-1.4l-0.1-0.4c0.1-0.2,0.2-0.4,0.2-0.6l-0.1-0.3l0.1-0.8l-0.1-0.8l0.1-0.2l-0.1-0.1
	c0.1-0.1,0.2-0.2,0.2-0.2c0,0,0-0.1-0.1-0.2c0.1-0.1,0.1-0.3,0.1-0.4c0-0.1,0-0.3-0.1-0.4h0.1c0-0.1-0.1-0.2-0.1-0.3
	c0-0.1,0.1-0.2,0.3-0.4l-0.1-0.1l0.1,0c0.1,0,0.2,0.1,0.2,0.2c0.1,0,0.2,0.2,0.3,0.4H174l0,0.5l0,0.3h-0.2l0.3,0.4l-0.1,0.4l0.2,0.5
	l-0.1,0.2c0.1,0.2,0.1,0.4,0.1,0.5c0,0.1,0,0.2-0.1,0.3l0.2,0.2c-0.1,0.1-0.2,0.1-0.2,0.2c0,0.1,0.1,0.2,0.2,0.2v0.1
	c0,0.1-0.1,0.2-0.2,0.3v0.3c0,0.5-0.1,1.3-0.2,2.5c0,0,0,0.1,0,0.2c0,0.1,0,0.3-0.1,0.6l0.1,0.3l-0.2,0.7l-0.1,0.7
	c0,0.1-0.1,0.3-0.2,0.5l0.1,0.3l-0.2,0.5l0.2,0.4l-0.2,0.9l0.2,0.7l-0.1,0.4l0.1,0.4l-0.2,0.1c0.2,0.3,0.3,0.5,0.3,0.5
	c0,0.1-0.1,0.1-0.2,0.2l0.1,0.2l-0.1,0.1l0.2,0.2l-0.1,0.5l0.2,0.7l-0.1,0.2l0.1,0.2l-0.2,0.5l0.1,0.1h0.2l0.2,0.3l0.4-0.1l0.1,0.2
	L175.3,27z M156.9,17.4l-0.2-0.5l-0.5-0.1l-0.8-0.7c-0.1-0.1-0.2-0.1-0.3-0.1c0,0-0.1,0-0.2,0.1l-0.2-0.1h-0.5l-0.1-0.2l-0.3,0.1
	l-0.1-0.1l-0.2,0.1l-0.5-0.1c-0.2,0-0.6,0.1-1.1,0.3l0.1,0.1l-0.3,0.1l-0.1,0.1l-0.3,0v0.2c-0.2,0.1-0.4,0.4-0.7,0.9
	c-0.2,0.6-0.3,1.1-0.5,1.5l0.2,0.1l-0.4,0.3l0.1,0.2c-0.2,0.3-0.3,0.6-0.3,0.9v0.2l-0.2,0.3v0.5c-0.2,0.2-0.2,0.4-0.3,0.5l-0.1,0.1
	v0.5l-0.1,0.1c0,0.2,0,0.5-0.1,0.8l0.2,0.4c-0.1,0.1-0.3,0.2-0.4,0.4l0.1,0.2l-0.2,0.2l0.2,0.6l-0.3,0.4l0,0.7l-0.1,0.3l0.1,0.1
	l0.1,0.2c0.2,0.1,0.3,0.2,0.4,0.3l0.7-0.2c0.1-0.3,0.3-0.4,0.7-0.5l-0.1-0.2c0.3-0.1,0.5-0.1,0.5-0.1s0-0.1,0.1-0.2
	c0-0.1,0.1-0.2,0.3-0.3h0.1c0.1,0,0.1,0,0.1-0.1l0.5-0.6h-0.1l0.3-0.3c0.1-0.1,0.3-0.2,0.5-0.3l0.2-0.6c0.4-0.2,0.6-0.4,0.6-0.6h0.2
	l0.3-0.4l-0.1-0.2l0.3-0.1c0-0.1-0.1-0.1-0.1-0.1c0,0,0.1-0.1,0.2-0.3c0.1-0.2,0.2-0.3,0.3-0.5l0.1,0.1c0-0.2,0.1-0.4,0.3-0.5
	c0-0.2,0.1-0.3,0.2-0.4c0.1-0.1,0.2-0.1,0.2-0.1h0.2l0-0.4c0,0,0.1-0.1,0.1-0.1c0-0.1,0-0.1-0.1-0.2c0.2-0.3,0.3-0.5,0.4-0.5
	l0.1-0.3l0.2-0.2l-0.1-0.3c0.1-0.2,0.2-0.4,0.2-0.5l0.3-0.3L156.9,17.4z M158.4,28.2l-0.4,0.2l-0.1,0.3c-0.2,0-0.3,0.1-0.5,0.2
	l-0.1-0.1l-0.2,0.1l-0.5-0.6v-0.7l-0.2-0.2l0.1-0.9l-0.2-1.9l0.1-0.6l-0.2-0.3l0.3-0.1l-0.2-0.3l0.1-0.3l0.2-0.1l0-0.4h0.2v-0.6
	l0.1-0.3c-0.1,0-0.2-0.1-0.3-0.3l-0.5,0.2c-0.1,0.2-0.3,0.4-0.4,0.5l0,0.3l-0.3,0.1l-0.1,0.4l-0.2,0.1v0.2c-0.2,0.1-0.3,0.3-0.4,0.5
	l-0.2,0.1l-0.5,0.8l-0.7,0.7l-0.2,0.4l-0.6,0.7l-0.2,0.3l-0.9,0.6l-1,1.1l-0.3,0.1c-0.1,0-0.2,0.1-0.5,0.3h-0.1
	c-0.2,0-0.3-0.2-0.4-0.5c-0.8-0.3-1.1-0.7-1.2-1.3L148,27c-0.1-0.4-0.2-0.8-0.2-1.2l-0.2-0.1l0.1-0.2c0-0.1,0.1-0.2,0.1-0.3
	c0-0.1,0.1-0.3,0.1-0.6l0.2-1.1c0,0,0-0.1,0-0.2c0-0.1,0-0.2,0.1-0.3c0-0.1-0.1-0.3-0.1-0.3c0-0.1,0-0.2,0.1-0.3l0.1,0
	c0.2-0.2,0.2-0.4,0.2-0.6c0-0.1,0-0.2-0.1-0.2c-0.1-0.1-0.1-0.1-0.1-0.1c0-0.1,0.1-0.1,0.2-0.2c-0.1,0-0.2-0.1-0.2-0.2
	c0-0.1,0.1-0.1,0.3-0.1v-0.1c0-0.2,0.1-0.4,0.2-0.6c0.1-0.2,0.2-0.3,0.2-0.4l-0.2-0.1l0.4-0.6v-0.1c0-0.4,0.1-0.8,0.4-1.1l0-0.5
	l0.1-0.1c-0.1-0.1-0.1-0.2-0.1-0.3c0-0.1,0.1-0.1,0.2-0.1v-0.5c0.1,0,0.1-0.1,0.1-0.1c0-0.1,0-0.1,0-0.2c0.1-0.1,0.2-0.2,0.4-0.5
	c0.2-0.2,0.4-0.4,0.4-0.6h0.1c0.2,0,0.3-0.1,0.3-0.2c0,0,0-0.1-0.1-0.1c0.4,0,0.6-0.1,0.6-0.2l0.5-0.3l1.6,0.1v0.1l1.3,0.3h0.1
	c0.2,0,0.3,0.1,0.3,0.2l0.1-0.1c0,0.2,0.2,0.3,0.3,0.3l0.1,0l0.3,0.3l0.6,0.2V16c0.3-0.2,0.6-0.3,1.1-0.5V16h-0.1l0.3,0.1l-0.1,0.1
	l0.2,0.8l-0.3,0.3l-0.1,0.5c0,0.2-0.1,0.4-0.3,0.6l0.2,0.4c0,0-0.1,0.1-0.2,0.2c-0.1,0.1-0.1,0.3-0.1,0.7c0.1,0,0.1,0.1,0.1,0.1
	l-0.1,0.2l0,0.2l-0.1,0.3l0.1,0.3l-0.2,0.2l0.1,0.7l-0.1,0.1l0.1,0.1l-0.1,0.1c0,0,0,0.1,0,0.1c0,0.1,0,0.2-0.1,0.3l0.1,0.2
	l-0.1,0.3c-0.1,0-0.1,0.2-0.1,0.4l0.1,0.4L157,24c0.1,0.2,0.2,0.3,0.3,0.4c-0.1,0.2-0.3,0.6-0.4,1.2l0.2,0.1l0,0.2c0,0,0,0.1,0,0.2
	c0,0.2-0.1,0.4-0.2,0.6h0.2l0.1,0.5l0.6,0.1l0.2,0.4c-0.1,0-0.1,0.1-0.1,0.1c0,0.1,0.1,0.2,0.3,0.3h0c0,0-0.1,0-0.1,0
	C158.1,27.9,158.2,28,158.4,28.2z M143.6,21.7l-0.1-0.7v-0.5l-0.2-1.6l-0.3-1.1l-0.4-1l-0.7-1.2c0-0.1-0.1-0.2-0.2-0.3l-0.5,0.1
	l-0.2-0.1l-0.2,0.3l-0.4,0.1v0.4c0,0-0.1,0.1-0.2,0.1c-0.2,0-0.3,0.2-0.3,0.4c-0.2,0.2-0.4,0.4-0.5,0.5c-0.1,0.1-0.2,0.3-0.3,0.4
	h-0.1l-0.2,0.7l-0.2,0.4l-0.4,1c0,0.3-0.1,0.5-0.2,0.7c-0.1,0.2-0.2,0.4-0.4,0.7l0,0.5l-0.4,0.6l-0.2,1l-0.3,0.2c0,0,0,0,0,0.1
	c0,0,0,0.1,0,0.1c0,0.1,0.1,0.3,0.1,0.5c0,0.3,0,0.5-0.1,0.7l-0.2,0.1l0.1,0.5l-0.2,0.1l0,0.3l-0.1,0.2c-0.2,0.1-0.3,0.2-0.3,0.3
	c0,0.1,0.1,0.1,0.2,0.1c-0.1,0.1-0.1,0.1-0.1,0.2c0,0,0,0.1,0.1,0.2l0.6-0.3l0.4,0c0,0.1,0,0.1,0.1,0.1h0c0.2,0,0.4,0.1,0.4,0.2
	l0.1-0.2l0,0.2c0.2,0,0.4,0.1,0.4,0.1v0.4c0.1,0.1,0.3,0.2,0.5,0.4h1l0.8-0.2l0.1-0.2l0.2,0.1l0.2-0.2c0.1-0.1,0.3-0.1,0.7-0.2
	l-0.1-0.2h0.3v-0.1h0.1c0.1,0,0.2-0.1,0.3-0.4c0.1-0.2,0.1-0.4,0.1-0.4l0.8-0.9v-0.4l0.3-0.7v-0.8l0.1-0.9l0-0.4L143.6,21.7z
	 M144.3,23.9l-0.2,0.3l0.1,0.7l-0.6,0.9v0.3l-0.4,0.5l0.2,0.3c-0.2,0.2-0.4,0.5-0.6,0.9l-0.6,0.4c-0.1,0.2-0.2,0.2-0.4,0.3
	c-0.2,0-0.3,0.1-0.5,0.1l-0.1,0.2l-0.1-0.1l-0.3,0.1l-0.2-0.1c-0.1,0-0.3,0-0.4,0.1l0.1,0.1l-0.4-0.1l-0.1,0.1l-0.2-0.1l-0.5,0.3
	l-0.3-0.3l-0.6,0.1l-0.5-0.1c-0.4-0.1-0.6-0.2-0.8-0.5l-0.3-0.1l-0.2-0.6c0-0.1-0.2-0.2-0.4-0.3l-0.3,0.1l-0.4-0.2l-0.5-1l0.1-0.2
	l-0.2-0.3v-0.6l-0.1-0.2l0.1-0.5l-0.2-0.3l0.1-0.3v-1l0.1-0.3l0.1-1.9l0.1-0.7l-0.1-0.1l0.2-0.7l-0.1-0.4v-0.4l0.1-0.2
	c0-0.6-0.1-0.9-0.1-0.9l0.3-1l-0.2-1l0.2-0.1l-0.1-0.3V14l-0.1-0.9l0.1-0.3l-0.1-0.5l0.1-0.1c-0.1,0-0.1-0.1-0.1-0.2
	c0,0,0-0.1,0.1-0.2c0-0.1,0.1-0.2,0.1-0.3v-0.1l-0.1-0.3c0-0.2,0.1-0.3,0.1-0.4c0-0.2-0.1-0.4-0.2-0.7c0-0.1,0.1-0.2,0.2-0.2
	l-0.2-0.4l0.1-0.4l-0.2-0.6l0.3,0l0-0.3l0.2-0.1c0.1,0.1,0.1,0.3,0.2,0.5l0.3,0.3l-0.2,0.2l0.4,0.5l-0.2,0.3l-0.2,0.1
	c0.2,0.2,0.2,0.3,0.2,0.3c0,0.1,0,0.1-0.1,0.1l0.1,0.2l-0.1,0.1l0.3,0.2c-0.1,0.1-0.1,0.2-0.1,0.3l0.3,0.6l-0.1,0.3l0.1,0.1
	l-0.1,0.1c0.1,0.1,0.1,0.2,0.1,0.3c0,0.1-0.1,0.2-0.2,0.3L136,13c0,0.2-0.1,0.5-0.1,0.6c0,0.2-0.1,0.4-0.2,0.6
	c0.1,0.1,0.2,0.2,0.2,0.5l-0.1,0.4l0.1,0.3l-0.3,1.2l0.3,0.4l-0.3,0.5l0.1,0.4l-0.1,0.3l0.2,0.3l-0.3,0.3l0.1,0.2l0,0.3l0,0.2
	l-0.1,0.3l0.1,0.3l-0.1,0.2l0.1,0.3l-0.1,0.1c0.1,0.2,0.1,0.3,0.1,0.4c0,0.1-0.1,0.2-0.2,0.4l0.2,0.2l-0.1,0.4v1.2
	c0.2,0.2,0.3,0.2,0.3,0.2c0.1,0,0.2-0.1,0.2-0.4v-0.1c0.1-0.1,0.2-0.2,0.3-0.3c0.1-0.2,0.2-0.3,0.2-0.3v-0.2l0.1-0.2
	c0-0.4,0.1-0.7,0.2-0.8l0-0.6l0.2,0l0-0.2l0.1,0.1l0.1-0.4l0.2-0.4v-0.2l0.2-0.3l0-0.3l0.3-0.4l0.2-0.1v-0.2
	c0.2-0.1,0.2-0.2,0.3-0.5l0.3-0.4l0.1,0.1v-0.1l0.2-0.1c0-0.2,0.1-0.4,0.4-0.7c-0.1,0-0.1-0.1-0.1-0.1c0-0.1,0-0.1,0.1-0.1l0.1-0.1
	c0.1,0,0.3-0.1,0.5-0.3l0.2-0.5h0.2l-0.1-0.1c0.2-0.1,0.5-0.2,0.8-0.2l-0.2-0.1l0.3-0.2h0.1l-0.1-0.1l0.2-0.1l-0.1-0.1h0.3l0,0.1
	l0.7,0.1l0.2,0.3c0,0.1,0.1,0.3,0.1,0.8l0.3,0l0.1,0.4l0.3,0.2v0.4l0.1,0.1l0,0.3l0.4,0.2l0.1,0.6v0.1c0,0.2,0.1,0.5,0.4,0.9
	c-0.1,0.2-0.1,0.3-0.2,0.4c0.1,0.1,0.2,0.2,0.3,0.2c0.1,0,0.2,0,0.2-0.1c0,0.2-0.1,0.4-0.3,0.5l0.2,1.2c0.1,0,0.1,0.1,0.1,0.1
	l-0.1,0.3l0,1.6l0.1,0.3l-0.1,0.5L144.3,23.9z M127.2,18.9l-0.2-0.1l-0.3-0.3l-0.2-0.1c0,0-0.1-0.1-0.2-0.4
	c-0.1-0.2-0.2-0.4-0.4-0.6c-0.1,0-0.2-0.1-0.3-0.2V17l-0.5-0.1l-0.4-0.2c-0.1-0.1-0.2-0.1-0.4-0.1c-0.2,0-0.4-0.1-0.6-0.1l-0.9,0.1
	l-0.3,0.1l-0.3-0.2l-0.5,0.1h-0.6l-0.1,0.3l-0.2,0.1c0,0.2,0,0.3,0.1,0.3c-0.1,0.2-0.4,0.4-0.7,0.7l-0.2,0.5l-0.3,0.1l-0.3,0.8
	l-0.1,0.9l-0.3,0.3v0.5c-0.2,0.2-0.3,0.4-0.3,0.5l0.1,0.7l-0.5,0.9l-0.1,0.7l0,1l0.1,0.2l-0.2,0.4l0.1,0.2l-0.2,0.5
	c0.2,0.3,0.3,0.7,0.4,1.1l0.3,0.1l-0.1,0.2h0.3c0.2,0.1,0.3,0.2,0.4,0.2c0,0,0.1,0,0.1-0.1c0.1-0.1,0.2-0.1,0.5-0.1v0.1
	c0.1-0.1,0.2-0.2,0.2-0.3c0.2,0,0.2-0.1,0.2-0.2l0.3-0.1l0.1,0.1l0.1-0.3l0.6-0.2l0.1-0.3l0.4-0.2V26l0.3-0.3l0.1,0
	c0.1,0,0.1-0.1,0.1-0.2h0.2v-0.2l0.5-0.2l-0.1-0.5l0.3-0.2l-0.2-0.2c0,0,0.1,0,0.2,0c0.1,0,0.2,0,0.4-0.1l0-0.1l0.3,0l0.3-0.9
	l0.3-0.3l0.1-0.5l0.4-0.1c0.3-0.5,0.5-0.8,0.7-0.9v-0.4l0.3-0.1l0.7-1.5L127.2,18.9z M130.1,27c-0.2,0.8-0.5,1.3-0.8,1.5
	c-0.2-0.1-0.4-0.2-0.5-0.3l-0.5-0.8l-0.2-0.5l-0.4-1.4v-1.3l-0.1-1.2l0.1-0.7l-0.1-0.6V21l-0.3-0.4l-0.1,0.2l-0.2,0l-0.5,1.1
	l-0.5,0.8h-0.2l-0.1,0.3c0,0.1-0.1,0.2-0.2,0.4c-0.1,0.1-0.2,0.3-0.3,0.5l-0.8,0.9l-0.6,0.9l-0.7,0.7c-0.2,0.3-0.3,0.5-0.5,0.7
	l-0.4,0.3c-0.1,0.1-0.3,0.3-0.5,0.6l-0.5,0.2c-0.1,0-0.2,0.1-0.3,0.3l-0.4,0.1c-0.1,0-0.3,0.1-0.6,0.3l-0.3-0.1l-0.1,0.2l-0.3,0
	l-0.9-0.7c-0.2-0.2-0.3-0.5-0.3-0.9c-0.1-0.4-0.2-0.6-0.3-0.6l-0.2,0.1l0.3-0.5l-0.1-0.5l0.1-0.4l-0.1-0.6l0.2-0.9v-0.8l0.2-0.3
	v-0.7c0.1-0.3,0.2-0.5,0.2-0.7l0.1-0.1V21l0.3-0.5l0-0.4c0.1-0.2,0.2-0.4,0.3-0.6l0.1-0.9c0-0.2,0.1-0.4,0.3-0.5l0-0.3
	c0-0.1,0.1-0.2,0.2-0.4c0.1-0.2,0.2-0.3,0.2-0.4c0.3-0.3,0.5-0.5,0.7-0.6l-0.1-0.1c0.1,0,0.2-0.1,0.2-0.1c0,0,0.1,0,0.2,0
	c0.1,0,0.1,0,0.2,0l-0.1-0.1l1.3-0.4c0.2,0,0.4,0,0.5,0c0.2,0,0.2,0,0.2-0.1v0l0.5,0l0.3,0.1l0.2-0.1c0,0.1,0.1,0.1,0.2,0.1
	c0,0,0.1,0,0.1,0l0.5,0v0.1l0.1-0.1l0.4,0.4l0.5-0.1l0.3,0.5l0.5,0.4c0.1,0,0.1,0.2,0.3,0.4l0.5,0.3c0.2,0.2,0.3,0.2,0.4,0.2
	c0.1,0,0.1,0,0.1-0.1l0.2-1l0.2-0.5l-0.1-0.8l0.1-1.4l-0.1-0.4c0.1-0.2,0.2-0.4,0.2-0.6l-0.1-0.3l0.1-0.8L128,11l0.1-0.2l-0.1-0.1
	c0.1-0.1,0.2-0.2,0.2-0.2c0,0,0-0.1-0.1-0.2c0.1-0.1,0.1-0.3,0.1-0.4c0-0.1,0-0.3-0.1-0.4h0.1c0-0.1-0.1-0.2-0.1-0.3
	c0-0.1,0.1-0.2,0.3-0.4l-0.1-0.1l0.1,0c0.1,0,0.2,0.1,0.2,0.2c0.1,0,0.2,0.2,0.3,0.4h-0.1l0,0.5l0,0.3h-0.2l0.3,0.4l-0.1,0.4
	l0.2,0.5l-0.1,0.2c0.1,0.2,0.1,0.4,0.1,0.5c0,0.1,0,0.2-0.1,0.3l0.2,0.2c-0.1,0.1-0.1,0.1-0.1,0.2c0,0.1,0.1,0.2,0.2,0.2v0.1
	c0,0.1-0.1,0.2-0.2,0.3v0.3c0,0.5-0.1,1.3-0.2,2.5c0,0,0,0.1,0,0.2c0,0.1,0,0.3-0.1,0.6l0.1,0.3l-0.2,0.7l-0.1,0.7
	c0,0.1-0.1,0.3-0.2,0.5l0.1,0.3l-0.2,0.5l0.2,0.4l-0.2,0.9l0.1,0.7l-0.1,0.4l0.1,0.4l-0.2,0.1c0.2,0.3,0.3,0.5,0.3,0.5
	c0,0.1-0.1,0.1-0.2,0.2l0.1,0.2l-0.1,0.1l0.2,0.2l-0.1,0.5l0.2,0.7l-0.1,0.2l0.1,0.2l-0.2,0.5l0.1,0.1h0.2l0.2,0.3l0.4-0.1l0.1,0.2
	L130.1,27z M115.1,24.8c0.1,0.1,0.2,0.2,0.2,0.3c0,0.2-0.1,0.4-0.2,0.4c-0.2,0.4-0.5,0.6-0.7,0.6c0,0.1-0.3,0.4-1,1
	c-0.2,0-0.3,0.1-0.4,0.2c-0.1,0.1-0.2,0.2-0.4,0.4c-0.3,0-0.5,0.1-0.5,0.3l-0.3,0.1l-0.1-0.1l-0.1,0.2h-0.1c-0.1,0-0.4,0.1-0.6,0.2
	c-0.3,0.1-0.4,0.2-0.5,0.2l-0.3,0.1h-0.2l-0.2-0.3l-0.3-0.2c-0.1-0.3-0.3-0.6-0.5-0.8l-0.1-0.7l0-0.3l-0.1-0.2l0-0.9l0-0.7l0-0.4
	c0.1-0.1,0.1-0.2,0.1-0.2c0-0.1-0.1-0.3-0.2-0.5c0.1-0.8,0.1-1.3,0.1-1.4c0-0.2-0.1-0.4-0.2-0.5l0.2-0.1l0.1-1.1l-0.1-0.5l0.2-0.5
	l-0.2-0.6c0.2-0.2,0.2-0.5,0.2-0.8v-1l0.1-0.2l0-1.5l0.1-1.4c-0.1-0.3-0.2-0.7-0.1-1.1l0.1-0.9l-0.1-0.3l0.1-1.4
	c0.1,0,0.2-0.1,0.3-0.1c0.1-0.1,0.2-0.1,0.2-0.1c0,0,0.1,0,0.1,0.1l0.1,0.5l0.3,0.3l-0.2,0.3V11c0,0.1,0,0.2,0.1,0.4
	c0,0.3-0.1,0.5-0.2,0.5l0.1,0.2c0,0.6,0.1,1,0.2,1.3L110,14l0.2,0.3c-0.2,0.4-0.3,0.8-0.3,1.1c0,0.2,0.1,0.3,0.3,0.4l-0.2,0.6
	c0.1,0.2,0.1,0.3,0.1,0.3c0,0.1,0,0.2-0.1,0.4l0.1,0.4l-0.1,1l0,0.5c0,0.1-0.1,0.5-0.2,0.9l0.1,0.6l-0.1,1.1l-0.2,0.1l0.2,0.4
	l-0.1,0.6l-0.1,0.9l0.1,0.2l-0.1,0.1c0.1,0.2,0.2,0.4,0.2,0.7c0,0.1,0,0.2-0.1,0.3l0.1,0.3l-0.1,0.5l0.1,0.3l-0.1,0.2l0.3,1l0.4,0.1
	c0.3-0.2,0.6-0.3,0.7-0.3l0.2,0l0.4-0.3c0.1,0,0.2-0.1,0.4-0.2c0.1-0.2,0.3-0.3,0.5-0.3l0.1-0.2l0.2,0l0.1-0.1l0.3-0.1l0.3-0.2
	l0.3-0.1c0,0,0.1-0.1,0.3-0.3c0.2-0.2,0.3-0.3,0.5-0.4c0-0.1,0.1-0.2,0.2-0.2c0,0,0.1,0.1,0.1,0.1C114.8,24.9,114.9,24.9,115.1,24.8
	z M102.6,17.4l-0.2-0.5l-0.5-0.1l-0.8-0.7c-0.1-0.1-0.2-0.1-0.3-0.1c0,0-0.1,0-0.2,0.1l-0.1-0.1h-0.5l-0.1-0.2l-0.3,0.1l-0.1-0.1
	L99,15.6l-0.5-0.1c-0.2,0-0.6,0.1-1.1,0.3l0.1,0.1l-0.3,0.1l-0.1,0.1l-0.3,0v0.2c-0.2,0.1-0.4,0.4-0.7,0.9c-0.2,0.6-0.3,1.1-0.5,1.5
	l0.2,0.1l-0.4,0.3l0.1,0.2c-0.2,0.3-0.3,0.6-0.3,0.9v0.2L95.2,21v0.5c-0.2,0.2-0.2,0.4-0.3,0.5l-0.1,0.1v0.5l-0.1,0.1
	c0,0.2,0,0.5-0.1,0.8l0.2,0.4c-0.1,0.1-0.3,0.2-0.4,0.4l0.1,0.2l-0.2,0.2l0.2,0.6l-0.3,0.4l0,0.7l-0.1,0.3l0.1,0.1l0.1,0.2
	c0.2,0.1,0.3,0.2,0.4,0.3l0.7-0.2c0.1-0.3,0.3-0.4,0.7-0.5l-0.1-0.2c0.3-0.1,0.5-0.1,0.5-0.1c0,0,0-0.1,0.1-0.2
	c0-0.1,0.1-0.2,0.3-0.3h0.1c0.1,0,0.1,0,0.1-0.1l0.5-0.6h-0.1l0.3-0.3c0.1-0.1,0.3-0.2,0.5-0.3l0.2-0.6c0.4-0.2,0.6-0.4,0.6-0.6h0.2
	l0.3-0.4L99.5,23l0.3-0.1c0-0.1-0.1-0.1-0.1-0.1c0,0,0.1-0.1,0.2-0.3c0.1-0.2,0.2-0.3,0.3-0.5l0.1,0.1c0-0.2,0.1-0.4,0.3-0.5
	c0-0.2,0.1-0.3,0.2-0.4c0.1-0.1,0.2-0.1,0.2-0.1h0.2l0-0.4c0,0,0.1-0.1,0.1-0.1c0-0.1,0-0.1-0.1-0.2c0.2-0.3,0.3-0.5,0.4-0.5
	l0.1-0.3l0.2-0.2L102,19c0.1-0.2,0.2-0.4,0.2-0.5l0.3-0.3L102.6,17.4z M104.1,28.2l-0.4,0.2l-0.1,0.3c-0.2,0-0.3,0.1-0.5,0.2
	l-0.1-0.1l-0.2,0.1l-0.5-0.6v-0.7l-0.2-0.2l0.1-0.9l-0.2-1.9l0.1-0.6l-0.2-0.3l0.3-0.1l-0.2-0.3l0.1-0.3l0.2-0.1l0-0.4h0.2v-0.6
	l0.1-0.3c-0.1,0-0.2-0.1-0.3-0.3l-0.5,0.2c-0.1,0.2-0.3,0.4-0.4,0.5l0,0.3l-0.3,0.1l-0.1,0.4l-0.2,0.1v0.2c-0.2,0.1-0.3,0.3-0.4,0.5
	l-0.2,0.1l-0.5,0.8l-0.7,0.7l-0.2,0.4l-0.6,0.7l-0.2,0.3l-0.9,0.6l-1,1.1l-0.3,0.1c-0.1,0-0.2,0.1-0.5,0.3h-0.1
	c-0.2,0-0.3-0.2-0.4-0.5c-0.8-0.3-1.1-0.7-1.2-1.3l0.2-0.1c-0.1-0.4-0.2-0.8-0.2-1.2l-0.2-0.1l0.1-0.2c0-0.1,0.1-0.2,0.1-0.3
	c0-0.1,0.1-0.3,0.1-0.6l0.2-1.1c0,0,0-0.1,0-0.2c0-0.1,0-0.2,0.1-0.3c0-0.1-0.1-0.3-0.1-0.3c0-0.1,0-0.2,0.1-0.3l0.1,0
	c0.2-0.2,0.2-0.4,0.2-0.6c0-0.1,0-0.2-0.1-0.2c-0.1-0.1-0.1-0.1-0.1-0.1c0-0.1,0.1-0.1,0.2-0.2c-0.1,0-0.2-0.1-0.2-0.2
	c0-0.1,0.1-0.1,0.3-0.1v-0.1c0-0.2,0.1-0.4,0.2-0.6c0.1-0.2,0.2-0.3,0.2-0.4l-0.2-0.1l0.4-0.6v-0.1c0-0.4,0.1-0.8,0.4-1.1l0-0.5
	l0.1-0.1c-0.1-0.1-0.1-0.2-0.1-0.3c0-0.1,0.1-0.1,0.2-0.1v-0.5c0.1,0,0.1-0.1,0.1-0.1c0-0.1,0-0.1,0-0.2c0.1-0.1,0.2-0.2,0.4-0.5
	c0.2-0.2,0.4-0.4,0.4-0.6h0.1c0.2,0,0.3-0.1,0.3-0.2c0,0,0-0.1-0.1-0.1c0.4,0,0.6-0.1,0.6-0.2l0.5-0.3l1.6,0.1v0.1l1.3,0.3h0.1
	c0.2,0,0.3,0.1,0.3,0.2l0.1-0.1c0,0.2,0.2,0.3,0.3,0.3l0.1,0l0.3,0.3l0.6,0.2V16c0.3-0.2,0.6-0.3,1.1-0.5V16h-0.1l0.3,0.1l-0.1,0.1
	l0.2,0.8l-0.3,0.3l-0.1,0.5c0,0.2-0.1,0.4-0.3,0.6l0.2,0.4c0,0-0.1,0.1-0.2,0.2c-0.1,0.1-0.1,0.3-0.1,0.7c0.1,0,0.1,0.1,0.1,0.1
	l-0.1,0.2l0,0.2l-0.1,0.3l0.1,0.3l-0.2,0.2l0.1,0.7l-0.1,0.1l0.1,0.1l-0.1,0.1c0,0,0,0.1,0,0.1c0,0.1,0,0.2-0.1,0.3l0.1,0.2
	l-0.1,0.3c-0.1,0-0.1,0.2-0.1,0.4l0.1,0.4l-0.3,0.4c0.1,0.2,0.2,0.3,0.3,0.4c-0.1,0.2-0.3,0.6-0.4,1.2l0.2,0.1l0,0.2
	c0,0,0,0.1,0,0.2c0,0.2-0.1,0.4-0.2,0.6h0.2l0.1,0.5l0.6,0.1l0.2,0.4c-0.1,0-0.1,0.1-0.1,0.1c0,0.1,0.1,0.2,0.3,0.3h0
	c0,0-0.1,0-0.1,0C103.9,27.9,103.9,28,104.1,28.2z M91.8,13.5l-0.3,0.6c0.1,0.1,0.2,0.3,0.2,0.3c0,0,0,0.1,0,0.1
	c0,0-0.1,0.1-0.1,0.2c0,0.1-0.1,0.3-0.2,0.5c-0.1,0.3-0.1,0.5-0.2,0.8c-0.1,0.3-0.2,0.4-0.2,0.6c-0.1,0.1-0.1,0.2-0.2,0.3
	c0,0.1-0.1,0.1-0.1,0.1l-0.3,0.7L90,18.4v0.1l-1.2,1.7l-0.2,0.7L88,21.5l-0.4,0.9l-0.4,0.2L87,23c-0.3,0.2-0.4,0.4-0.5,0.7l-0.2,0.4
	l-0.3,0.3l-0.2,0.4l-0.7,1.1L85,26.1c0,0.1-0.1,0.3-0.2,0.4l-0.3,0.4v0.5l-0.3,0.5l0.2,1.2c-0.1,0.1-0.3,0.2-0.6,0.3
	c-0.1,0.1-0.1,0.1-0.3,0.1l-0.4-0.2l-0.4-1.1L82.2,27l0-0.8l-0.6-0.5l-0.3-0.8c-0.1-0.2-0.2-0.4-0.3-0.7l-0.2-0.6
	c-0.1-0.2-0.2-0.5-0.3-0.7l-0.2-0.3c-0.1-0.1-0.1-0.2-0.1-0.4l-0.1-0.5l-0.3-0.2l-0.2-1.2l-0.5-1.1l0.1-0.2c-0.4-0.6-0.6-1-0.6-1.4
	v-0.2c-0.1,0.1-0.3,0.3-0.4,0.6l-0.3,0.3c-0.2,0.1-0.5,0.3-1,0.7v0c0,0.2-0.1,0.3-0.3,0.4c-0.2,0.1-0.3,0.2-0.4,0.2
	c-0.1,0-0.2,0-0.4,0.1c-0.1,0.1-0.3,0.2-0.4,0.4c-0.2,0.2-0.3,0.4-0.4,0.4l-0.3,0.3l-0.7,0.9L73,23.2c-0.3,0.2-0.5,0.4-0.5,0.4
	c-0.1,0.1-0.2,0.3-0.4,0.6c-0.1,0.3-0.1,0.4-0.1,0.5l-0.3,0.1v0.4l-0.3,0.1l-0.2,0.6c-0.1,0.2-0.2,0.4-0.3,0.7
	c-0.2,0.1-0.2,0.2-0.2,0.3l0.1,0.2v0.1c0,0.2,0.1,0.3,0.2,0.5l-0.2,0l0.1,0.3c0,0.2-0.1,0.3-0.3,0.4l0.1,0.2v0.1
	c0,0.3-0.1,0.5-0.4,0.5c-0.2,0-0.3-0.1-0.4-0.2l-0.8-1.2l-0.2-0.4L68,25.8l-0.3-1.2l-0.5-1.1L67,22.8l-0.4-0.7L66.3,21v-0.4
	l-0.7-2.5l0.1-0.4l-0.2-0.2c0,0,0-0.1-0.1-0.1c0-0.1-0.1-0.1-0.1-0.2c0-0.1-0.1-0.2-0.1-0.3v-0.5l-0.1-1.3l-0.2-0.3l0.2-0.5
	c0.1-0.1,0.2-0.3,0.2-0.5v-0.1c0.1-0.3,0.2-0.5,0.3-0.5c0.2,0,0.4,0.1,0.6,0.3c0.2,0.2,0.3,0.5,0.3,0.9v0.1l-0.1,0.2l0.1,0.1
	l-0.1,0.5v0.5l0.4,2.5l0,0.3l0.3,0.7l0.3,1.9l0.2,0.4l0.3,1.3l0.2,0.1v0.4l0.1,0.3c0,0.1,0.1,0.3,0.1,0.8l0.2,0.1l0.2,0.8l0.2,0.1
	c0.3,0.6,0.5,0.9,0.7,0.9c0.2-0.5,0.3-0.8,0.4-0.8h0.2l0.5-0.6l0.1-0.4c0-0.1,0.2-0.3,0.4-0.5v-0.3c0-0.1,0.2-0.2,0.6-0.5l0.1-0.5
	l0.7-0.7l0.2-0.5l0.4-0.2c0-0.5,0.2-0.7,0.6-0.8l0.1-0.3c0.3,0,0.4,0,0.4-0.1v-0.1l0.2-0.3c0.1-0.2,0.2-0.3,0.4-0.3
	c0.4-0.2,0.6-0.4,0.6-0.7v-0.1l0.3,0c0.2-0.2,0.3-0.5,0.4-0.8h0.2l0.3-0.5h0.2c0.1,0,0.2-0.1,0.4-0.3v-0.6l0.3-0.3
	c0-0.1,0.1-0.2,0.1-0.3l0.1-0.6c0.3-0.2,0.5-0.4,0.5-0.5c0,0,0-0.1,0-0.1h0.5c0.3,0.4,0.5,0.6,0.7,0.6l0.1,0.4l-0.1,0.8l0.1,0.9
	l0.7,1.9l-0.1,0.4l0.2,0.3c0.1,0.1,0.1,0.3,0.2,0.7l0.3,0.2l0.3,1.7l0.2,0.5c0.1,0.2,0.1,0.4,0.2,0.8l0.4,0.3l0.5,1.3
	c0.6,1.1,1,1.7,1.1,1.7v0c0,0,0-0.1,0-0.1l0.1-0.9l0.4-0.3l0.1-0.3c0.1-0.1,0.3-0.2,0.6-0.4l0.3-0.6l0.1-0.3c0-0.1,0.1-0.3,0.4-0.6
	c0.2-0.1,0.4-0.3,0.4-0.5V23l0.4-0.1l0.3-0.7l0.7-0.8l0.7-1.2l0.5-0.7l0.4-0.8l0.4-0.4c0.2-0.2,0.3-0.5,0.5-0.9l0.4-1.2l-0.2-0.2
	l0.3-0.6L90,15.2l0.2-0.1v-0.2l0-0.3L90,14.3c0-0.3,0.1-0.6,0.3-0.9l-0.1-0.2h0.2c0.1-0.4,0.2-0.5,0.4-0.5c0.1,0,0.2,0.1,0.4,0.2
	L91.8,13.5z"/>
<path class="st1" d="M172.4,18.9l-0.2-0.1l-0.3-0.3l-0.2-0.1c0,0-0.1-0.1-0.2-0.4c-0.1-0.2-0.2-0.4-0.4-0.6c-0.1,0-0.2-0.1-0.3-0.2
	V17l-0.5-0.1l-0.4-0.2c-0.1-0.1-0.2-0.1-0.4-0.1c-0.2,0-0.4-0.1-0.6-0.1l-0.9,0.1l-0.3,0.1l-0.3-0.2l-0.5,0.1h-0.6l-0.1,0.3
	l-0.2,0.1c0,0.2,0,0.3,0.1,0.3c-0.1,0.2-0.4,0.4-0.7,0.7l-0.2,0.5l-0.3,0.1l-0.3,0.8l-0.1,0.9l-0.3,0.3v0.5
	c-0.2,0.2-0.3,0.4-0.3,0.5l0.1,0.7l-0.5,0.9l-0.1,0.7l0,1l0.1,0.2l-0.2,0.4l0.1,0.2l-0.2,0.5c0.2,0.3,0.3,0.7,0.4,1.1l0.3,0.1
	l-0.1,0.2h0.3c0.2,0.1,0.3,0.2,0.4,0.2c0,0,0.1,0,0.1-0.1c0.1-0.1,0.2-0.1,0.5-0.1v0.1c0.1-0.1,0.2-0.2,0.2-0.3
	c0.2,0,0.2-0.1,0.2-0.2l0.3-0.1l0.1,0.1l0.1-0.3l0.6-0.2l0.1-0.3l0.4-0.2V26l0.3-0.3l0.1,0c0.1,0,0.1-0.1,0.1-0.2h0.2v-0.2l0.5-0.2
	l-0.1-0.5l0.3-0.2l-0.2-0.2c0,0,0.1,0,0.2,0c0.1,0,0.2,0,0.4-0.1l0-0.1l0.3,0l0.3-0.9l0.3-0.3l0.1-0.5l0.4-0.1
	c0.3-0.5,0.5-0.8,0.7-0.9v-0.4l0.3-0.1l0.7-1.5L172.4,18.9z M175.3,27c-0.2,0.8-0.5,1.3-0.8,1.5c-0.2-0.1-0.4-0.2-0.5-0.3l-0.5-0.8
	l-0.2-0.5l-0.4-1.4v-1.3l-0.1-1.2l0.1-0.7l-0.1-0.6V21l-0.3-0.4l-0.1,0.2l-0.2,0l-0.5,1.1l-0.5,0.8h-0.2l-0.1,0.3
	c0,0.1-0.1,0.2-0.2,0.4c-0.1,0.1-0.2,0.3-0.3,0.5l-0.8,0.9l-0.6,0.9l-0.7,0.7c-0.2,0.3-0.3,0.5-0.5,0.7l-0.4,0.3
	c-0.1,0.1-0.3,0.3-0.5,0.6l-0.5,0.2c-0.1,0-0.2,0.1-0.3,0.3l-0.4,0.1c-0.1,0-0.3,0.1-0.6,0.3l-0.3-0.1l-0.1,0.2l-0.3,0l-0.9-0.7
	c-0.2-0.2-0.3-0.5-0.3-0.9c-0.1-0.4-0.2-0.6-0.3-0.6l-0.2,0.1l0.3-0.5l-0.1-0.5l0.1-0.4l-0.1-0.6l0.2-0.9v-0.8l0.2-0.3v-0.7
	c0.1-0.3,0.2-0.5,0.2-0.7l0.1-0.1V21l0.3-0.5l0-0.4c0.1-0.2,0.2-0.4,0.3-0.6l0.1-0.9c0-0.2,0.1-0.4,0.3-0.5l0-0.3
	c0-0.1,0.1-0.2,0.2-0.4c0.1-0.2,0.2-0.3,0.2-0.4c0.3-0.3,0.5-0.5,0.7-0.6l-0.1-0.1c0.1,0,0.2-0.1,0.2-0.1c0,0,0.1,0,0.2,0
	c0.1,0,0.1,0,0.2,0l-0.1-0.1l1.3-0.4c0.2,0,0.4,0,0.5,0c0.2,0,0.2,0,0.2-0.1v0l0.5,0l0.3,0.1l0.2-0.1c0,0.1,0.1,0.1,0.2,0.1
	c0,0,0.1,0,0.1,0l0.5,0v0.1l0.1-0.1l0.4,0.4l0.5-0.1l0.3,0.5l0.5,0.4c0.1,0,0.1,0.2,0.3,0.4l0.5,0.3c0.2,0.2,0.3,0.2,0.4,0.2
	c0.1,0,0.1,0,0.1-0.1l0.2-1l0.2-0.5l-0.1-0.8l0.1-1.4l-0.1-0.4c0.1-0.2,0.2-0.4,0.2-0.6l-0.1-0.3l0.1-0.8l-0.1-0.8l0.1-0.2l-0.1-0.1
	c0.1-0.1,0.2-0.2,0.2-0.2c0,0,0-0.1-0.1-0.2c0.1-0.1,0.1-0.3,0.1-0.4c0-0.1,0-0.3-0.1-0.4h0.1c0-0.1-0.1-0.2-0.1-0.3
	c0-0.1,0.1-0.2,0.3-0.4l-0.1-0.1l0.1,0c0.1,0,0.2,0.1,0.2,0.2c0.1,0,0.2,0.2,0.3,0.4H174l0,0.5l0,0.3h-0.2l0.3,0.4l-0.1,0.4l0.2,0.5
	l-0.1,0.2c0.1,0.2,0.1,0.4,0.1,0.5c0,0.1,0,0.2-0.1,0.3l0.2,0.2c-0.1,0.1-0.2,0.1-0.2,0.2c0,0.1,0.1,0.2,0.2,0.2v0.1
	c0,0.1-0.1,0.2-0.2,0.3v0.3c0,0.5-0.1,1.3-0.2,2.5c0,0,0,0.1,0,0.2c0,0.1,0,0.3-0.1,0.6l0.1,0.3l-0.2,0.7l-0.1,0.7
	c0,0.1-0.1,0.3-0.2,0.5l0.1,0.3l-0.2,0.5l0.2,0.4l-0.2,0.9l0.2,0.7l-0.1,0.4l0.1,0.4l-0.2,0.1c0.2,0.3,0.3,0.5,0.3,0.5
	c0,0.1-0.1,0.1-0.2,0.2l0.1,0.2l-0.1,0.1l0.2,0.2l-0.1,0.5l0.2,0.7l-0.1,0.2l0.1,0.2l-0.2,0.5l0.1,0.1h0.2l0.2,0.3l0.4-0.1l0.1,0.2
	L175.3,27z M156.9,17.4l-0.2-0.5l-0.5-0.1l-0.8-0.7c-0.1-0.1-0.2-0.1-0.3-0.1c0,0-0.1,0-0.2,0.1l-0.2-0.1h-0.5l-0.1-0.2l-0.3,0.1
	l-0.1-0.1l-0.2,0.1l-0.5-0.1c-0.2,0-0.6,0.1-1.1,0.3l0.1,0.1l-0.3,0.1l-0.1,0.1l-0.3,0v0.2c-0.2,0.1-0.4,0.4-0.7,0.9
	c-0.2,0.6-0.3,1.1-0.5,1.5l0.2,0.1l-0.4,0.3l0.1,0.2c-0.2,0.3-0.3,0.6-0.3,0.9v0.2l-0.2,0.3v0.5c-0.2,0.2-0.2,0.4-0.3,0.5l-0.1,0.1
	v0.5l-0.1,0.1c0,0.2,0,0.5-0.1,0.8l0.2,0.4c-0.1,0.1-0.3,0.2-0.4,0.4l0.1,0.2l-0.2,0.2l0.2,0.6l-0.3,0.4l0,0.7l-0.1,0.3l0.1,0.1
	l0.1,0.2c0.2,0.1,0.3,0.2,0.4,0.3l0.7-0.2c0.1-0.3,0.3-0.4,0.7-0.5l-0.1-0.2c0.3-0.1,0.5-0.1,0.5-0.1s0-0.1,0.1-0.2
	c0-0.1,0.1-0.2,0.3-0.3h0.1c0.1,0,0.1,0,0.1-0.1l0.5-0.6h-0.1l0.3-0.3c0.1-0.1,0.3-0.2,0.5-0.3l0.2-0.6c0.4-0.2,0.6-0.4,0.6-0.6h0.2
	l0.3-0.4l-0.1-0.2l0.3-0.1c0-0.1-0.1-0.1-0.1-0.1c0,0,0.1-0.1,0.2-0.3c0.1-0.2,0.2-0.3,0.3-0.5l0.1,0.1c0-0.2,0.1-0.4,0.3-0.5
	c0-0.2,0.1-0.3,0.2-0.4c0.1-0.1,0.2-0.1,0.2-0.1h0.2l0-0.4c0,0,0.1-0.1,0.1-0.1c0-0.1,0-0.1-0.1-0.2c0.2-0.3,0.3-0.5,0.4-0.5
	l0.1-0.3l0.2-0.2l-0.1-0.3c0.1-0.2,0.2-0.4,0.2-0.5l0.3-0.3L156.9,17.4z M158.4,28.2l-0.4,0.2l-0.1,0.3c-0.2,0-0.3,0.1-0.5,0.2
	l-0.1-0.1l-0.2,0.1l-0.5-0.6v-0.7l-0.2-0.2l0.1-0.9l-0.2-1.9l0.1-0.6l-0.2-0.3l0.3-0.1l-0.2-0.3l0.1-0.3l0.2-0.1l0-0.4h0.2v-0.6
	l0.1-0.3c-0.1,0-0.2-0.1-0.3-0.3l-0.5,0.2c-0.1,0.2-0.3,0.4-0.4,0.5l0,0.3l-0.3,0.1l-0.1,0.4l-0.2,0.1v0.2c-0.2,0.1-0.3,0.3-0.4,0.5
	l-0.2,0.1l-0.5,0.8l-0.7,0.7l-0.2,0.4l-0.6,0.7l-0.2,0.3l-0.9,0.6l-1,1.1l-0.3,0.1c-0.1,0-0.2,0.1-0.5,0.3h-0.1
	c-0.2,0-0.3-0.2-0.4-0.5c-0.8-0.3-1.1-0.7-1.2-1.3L148,27c-0.1-0.4-0.2-0.8-0.2-1.2l-0.2-0.1l0.1-0.2c0-0.1,0.1-0.2,0.1-0.3
	c0-0.1,0.1-0.3,0.1-0.6l0.2-1.1c0,0,0-0.1,0-0.2c0-0.1,0-0.2,0.1-0.3c0-0.1-0.1-0.3-0.1-0.3c0-0.1,0-0.2,0.1-0.3l0.1,0
	c0.2-0.2,0.2-0.4,0.2-0.6c0-0.1,0-0.2-0.1-0.2c-0.1-0.1-0.1-0.1-0.1-0.1c0-0.1,0.1-0.1,0.2-0.2c-0.1,0-0.2-0.1-0.2-0.2
	c0-0.1,0.1-0.1,0.3-0.1v-0.1c0-0.2,0.1-0.4,0.2-0.6c0.1-0.2,0.2-0.3,0.2-0.4l-0.2-0.1l0.4-0.6v-0.1c0-0.4,0.1-0.8,0.4-1.1l0-0.5
	l0.1-0.1c-0.1-0.1-0.1-0.2-0.1-0.3c0-0.1,0.1-0.1,0.2-0.1v-0.5c0.1,0,0.1-0.1,0.1-0.1c0-0.1,0-0.1,0-0.2c0.1-0.1,0.2-0.2,0.4-0.5
	c0.2-0.2,0.4-0.4,0.4-0.6h0.1c0.2,0,0.3-0.1,0.3-0.2c0,0,0-0.1-0.1-0.1c0.4,0,0.6-0.1,0.6-0.2l0.5-0.3l1.6,0.1v0.1l1.3,0.3h0.1
	c0.2,0,0.3,0.1,0.3,0.2l0.1-0.1c0,0.2,0.2,0.3,0.3,0.3l0.1,0l0.3,0.3l0.6,0.2V16c0.3-0.2,0.6-0.3,1.1-0.5V16h-0.1l0.3,0.1l-0.1,0.1
	l0.2,0.8l-0.3,0.3l-0.1,0.5c0,0.2-0.1,0.4-0.3,0.6l0.2,0.4c0,0-0.1,0.1-0.2,0.2c-0.1,0.1-0.1,0.3-0.1,0.7c0.1,0,0.1,0.1,0.1,0.1
	l-0.1,0.2l0,0.2l-0.1,0.3l0.1,0.3l-0.2,0.2l0.1,0.7l-0.1,0.1l0.1,0.1l-0.1,0.1c0,0,0,0.1,0,0.1c0,0.1,0,0.2-0.1,0.3l0.1,0.2
	l-0.1,0.3c-0.1,0-0.1,0.2-0.1,0.4l0.1,0.4L157,24c0.1,0.2,0.2,0.3,0.3,0.4c-0.1,0.2-0.3,0.6-0.4,1.2l0.2,0.1l0,0.2c0,0,0,0.1,0,0.2
	c0,0.2-0.1,0.4-0.2,0.6h0.2l0.1,0.5l0.6,0.1l0.2,0.4c-0.1,0-0.1,0.1-0.1,0.1c0,0.1,0.1,0.2,0.3,0.3h0c0,0-0.1,0-0.1,0
	C158.1,27.9,158.2,28,158.4,28.2z M143.6,21.7l-0.1-0.7v-0.5l-0.2-1.6l-0.3-1.1l-0.4-1l-0.7-1.2c0-0.1-0.1-0.2-0.2-0.3l-0.5,0.1
	l-0.2-0.1l-0.2,0.3l-0.4,0.1v0.4c0,0-0.1,0.1-0.2,0.1c-0.2,0-0.3,0.2-0.3,0.4c-0.2,0.2-0.4,0.4-0.5,0.5c-0.1,0.1-0.2,0.3-0.3,0.4
	h-0.1l-0.2,0.7l-0.2,0.4l-0.4,1c0,0.3-0.1,0.5-0.2,0.7c-0.1,0.2-0.2,0.4-0.4,0.7l0,0.5l-0.4,0.6l-0.2,1l-0.3,0.2c0,0,0,0,0,0.1
	c0,0,0,0.1,0,0.1c0,0.1,0.1,0.3,0.1,0.5c0,0.3,0,0.5-0.1,0.7l-0.2,0.1l0.1,0.5l-0.2,0.1l0,0.3l-0.1,0.2c-0.2,0.1-0.3,0.2-0.3,0.3
	c0,0.1,0.1,0.1,0.2,0.1c-0.1,0.1-0.1,0.1-0.1,0.2c0,0,0,0.1,0.1,0.2l0.6-0.3l0.4,0c0,0.1,0,0.1,0.1,0.1h0c0.2,0,0.4,0.1,0.4,0.2
	l0.1-0.2l0,0.2c0.2,0,0.4,0.1,0.4,0.1v0.4c0.1,0.1,0.3,0.2,0.5,0.4h1l0.8-0.2l0.1-0.2l0.2,0.1l0.2-0.2c0.1-0.1,0.3-0.1,0.7-0.2
	l-0.1-0.2h0.3v-0.1h0.1c0.1,0,0.2-0.1,0.3-0.4c0.1-0.2,0.1-0.4,0.1-0.4l0.8-0.9v-0.4l0.3-0.7v-0.8l0.1-0.9l0-0.4L143.6,21.7z
	 M144.3,23.9l-0.2,0.3l0.1,0.7l-0.6,0.9v0.3l-0.4,0.5l0.2,0.3c-0.2,0.2-0.4,0.5-0.6,0.9l-0.6,0.4c-0.1,0.2-0.2,0.2-0.4,0.3
	c-0.2,0-0.3,0.1-0.5,0.1l-0.1,0.2l-0.1-0.1l-0.3,0.1l-0.2-0.1c-0.1,0-0.3,0-0.4,0.1l0.1,0.1l-0.4-0.1l-0.1,0.1l-0.2-0.1l-0.5,0.3
	l-0.3-0.3l-0.6,0.1l-0.5-0.1c-0.4-0.1-0.6-0.2-0.8-0.5l-0.3-0.1l-0.2-0.6c0-0.1-0.2-0.2-0.4-0.3l-0.3,0.1l-0.4-0.2l-0.5-1l0.1-0.2
	l-0.2-0.3v-0.6l-0.1-0.2l0.1-0.5l-0.2-0.3l0.1-0.3v-1l0.1-0.3l0.1-1.9l0.1-0.7l-0.1-0.1l0.2-0.7l-0.1-0.4v-0.4l0.1-0.2
	c0-0.6-0.1-0.9-0.1-0.9l0.3-1l-0.2-1l0.2-0.1l-0.1-0.3V14l-0.1-0.9l0.1-0.3l-0.1-0.5l0.1-0.1c-0.1,0-0.1-0.1-0.1-0.2
	c0,0,0-0.1,0.1-0.2c0-0.1,0.1-0.2,0.1-0.3v-0.1l-0.1-0.3c0-0.2,0.1-0.3,0.1-0.4c0-0.2-0.1-0.4-0.2-0.7c0-0.1,0.1-0.2,0.2-0.2
	l-0.2-0.4l0.1-0.4l-0.2-0.6l0.3,0l0-0.3l0.2-0.1c0.1,0.1,0.1,0.3,0.2,0.5l0.3,0.3l-0.2,0.2l0.4,0.5l-0.2,0.3l-0.2,0.1
	c0.2,0.2,0.2,0.3,0.2,0.3c0,0.1,0,0.1-0.1,0.1l0.1,0.2l-0.1,0.1l0.3,0.2c-0.1,0.1-0.1,0.2-0.1,0.3l0.3,0.6l-0.1,0.3l0.1,0.1
	l-0.1,0.1c0.1,0.1,0.1,0.2,0.1,0.3c0,0.1-0.1,0.2-0.2,0.3L136,13c0,0.2-0.1,0.5-0.1,0.6c0,0.2-0.1,0.4-0.2,0.6
	c0.1,0.1,0.2,0.2,0.2,0.5l-0.1,0.4l0.1,0.3l-0.3,1.2l0.3,0.4l-0.3,0.5l0.1,0.4l-0.1,0.3l0.2,0.3l-0.3,0.3l0.1,0.2l0,0.3l0,0.2
	l-0.1,0.3l0.1,0.3l-0.1,0.2l0.1,0.3l-0.1,0.1c0.1,0.2,0.1,0.3,0.1,0.4c0,0.1-0.1,0.2-0.2,0.4l0.2,0.2l-0.1,0.4v1.2
	c0.2,0.2,0.3,0.2,0.3,0.2c0.1,0,0.2-0.1,0.2-0.4v-0.1c0.1-0.1,0.2-0.2,0.3-0.3c0.1-0.2,0.2-0.3,0.2-0.3v-0.2l0.1-0.2
	c0-0.4,0.1-0.7,0.2-0.8l0-0.6l0.2,0l0-0.2l0.1,0.1l0.1-0.4l0.2-0.4v-0.2l0.2-0.3l0-0.3l0.3-0.4l0.2-0.1v-0.2
	c0.2-0.1,0.2-0.2,0.3-0.5l0.3-0.4l0.1,0.1v-0.1l0.2-0.1c0-0.2,0.1-0.4,0.4-0.7c-0.1,0-0.1-0.1-0.1-0.1c0-0.1,0-0.1,0.1-0.1l0.1-0.1
	c0.1,0,0.3-0.1,0.5-0.3l0.2-0.5h0.2l-0.1-0.1c0.2-0.1,0.5-0.2,0.8-0.2l-0.2-0.1l0.3-0.2h0.1l-0.1-0.1l0.2-0.1l-0.1-0.1h0.3l0,0.1
	l0.7,0.1l0.2,0.3c0,0.1,0.1,0.3,0.1,0.8l0.3,0l0.1,0.4l0.3,0.2v0.4l0.1,0.1l0,0.3l0.4,0.2l0.1,0.6v0.1c0,0.2,0.1,0.5,0.4,0.9
	c-0.1,0.2-0.1,0.3-0.2,0.4c0.1,0.1,0.2,0.2,0.3,0.2c0.1,0,0.2,0,0.2-0.1c0,0.2-0.1,0.4-0.3,0.5l0.2,1.2c0.1,0,0.1,0.1,0.1,0.1
	l-0.1,0.3l0,1.6l0.1,0.3l-0.1,0.5L144.3,23.9z M127.2,18.9l-0.2-0.1l-0.3-0.3l-0.2-0.1c0,0-0.1-0.1-0.2-0.4
	c-0.1-0.2-0.2-0.4-0.4-0.6c-0.1,0-0.2-0.1-0.3-0.2V17l-0.5-0.1l-0.4-0.2c-0.1-0.1-0.2-0.1-0.4-0.1c-0.2,0-0.4-0.1-0.6-0.1l-0.9,0.1
	l-0.3,0.1l-0.3-0.2l-0.5,0.1h-0.6l-0.1,0.3l-0.2,0.1c0,0.2,0,0.3,0.1,0.3c-0.1,0.2-0.4,0.4-0.7,0.7l-0.2,0.5l-0.3,0.1l-0.3,0.8
	l-0.1,0.9l-0.3,0.3v0.5c-0.2,0.2-0.3,0.4-0.3,0.5l0.1,0.7l-0.5,0.9l-0.1,0.7l0,1l0.1,0.2l-0.2,0.4l0.1,0.2l-0.2,0.5
	c0.2,0.3,0.3,0.7,0.4,1.1l0.3,0.1l-0.1,0.2h0.3c0.2,0.1,0.3,0.2,0.4,0.2c0,0,0.1,0,0.1-0.1c0.1-0.1,0.2-0.1,0.5-0.1v0.1
	c0.1-0.1,0.2-0.2,0.2-0.3c0.2,0,0.2-0.1,0.2-0.2l0.3-0.1l0.1,0.1l0.1-0.3l0.6-0.2l0.1-0.3l0.4-0.2V26l0.3-0.3l0.1,0
	c0.1,0,0.1-0.1,0.1-0.2h0.2v-0.2l0.5-0.2l-0.1-0.5l0.3-0.2l-0.2-0.2c0,0,0.1,0,0.2,0c0.1,0,0.2,0,0.4-0.1l0-0.1l0.3,0l0.3-0.9
	l0.3-0.3l0.1-0.5l0.4-0.1c0.3-0.5,0.5-0.8,0.7-0.9v-0.4l0.3-0.1l0.7-1.5L127.2,18.9z M130.1,27c-0.2,0.8-0.5,1.3-0.8,1.5
	c-0.2-0.1-0.4-0.2-0.5-0.3l-0.5-0.8l-0.2-0.5l-0.4-1.4v-1.3l-0.1-1.2l0.1-0.7l-0.1-0.6V21l-0.3-0.4l-0.1,0.2l-0.2,0l-0.5,1.1
	l-0.5,0.8h-0.2l-0.1,0.3c0,0.1-0.1,0.2-0.2,0.4c-0.1,0.1-0.2,0.3-0.3,0.5l-0.8,0.9l-0.6,0.9l-0.7,0.7c-0.2,0.3-0.3,0.5-0.5,0.7
	l-0.4,0.3c-0.1,0.1-0.3,0.3-0.5,0.6l-0.5,0.2c-0.1,0-0.2,0.1-0.3,0.3l-0.4,0.1c-0.1,0-0.3,0.1-0.6,0.3l-0.3-0.1l-0.1,0.2l-0.3,0
	l-0.9-0.7c-0.2-0.2-0.3-0.5-0.3-0.9c-0.1-0.4-0.2-0.6-0.3-0.6l-0.2,0.1l0.3-0.5l-0.1-0.5l0.1-0.4l-0.1-0.6l0.2-0.9v-0.8l0.2-0.3
	v-0.7c0.1-0.3,0.2-0.5,0.2-0.7l0.1-0.1V21l0.3-0.5l0-0.4c0.1-0.2,0.2-0.4,0.3-0.6l0.1-0.9c0-0.2,0.1-0.4,0.3-0.5l0-0.3
	c0-0.1,0.1-0.2,0.2-0.4c0.1-0.2,0.2-0.3,0.2-0.4c0.3-0.3,0.5-0.5,0.7-0.6l-0.1-0.1c0.1,0,0.2-0.1,0.2-0.1c0,0,0.1,0,0.2,0
	c0.1,0,0.1,0,0.2,0l-0.1-0.1l1.3-0.4c0.2,0,0.4,0,0.5,0c0.2,0,0.2,0,0.2-0.1v0l0.5,0l0.3,0.1l0.2-0.1c0,0.1,0.1,0.1,0.2,0.1
	c0,0,0.1,0,0.1,0l0.5,0v0.1l0.1-0.1l0.4,0.4l0.5-0.1l0.3,0.5l0.5,0.4c0.1,0,0.1,0.2,0.3,0.4l0.5,0.3c0.2,0.2,0.3,0.2,0.4,0.2
	c0.1,0,0.1,0,0.1-0.1l0.2-1l0.2-0.5l-0.1-0.8l0.1-1.4l-0.1-0.4c0.1-0.2,0.2-0.4,0.2-0.6l-0.1-0.3l0.1-0.8L128,11l0.1-0.2l-0.1-0.1
	c0.1-0.1,0.2-0.2,0.2-0.2c0,0,0-0.1-0.1-0.2c0.1-0.1,0.1-0.3,0.1-0.4c0-0.1,0-0.3-0.1-0.4h0.1c0-0.1-0.1-0.2-0.1-0.3
	c0-0.1,0.1-0.2,0.3-0.4l-0.1-0.1l0.1,0c0.1,0,0.2,0.1,0.2,0.2c0.1,0,0.2,0.2,0.3,0.4h-0.1l0,0.5l0,0.3h-0.2l0.3,0.4l-0.1,0.4
	l0.2,0.5l-0.1,0.2c0.1,0.2,0.1,0.4,0.1,0.5c0,0.1,0,0.2-0.1,0.3l0.2,0.2c-0.1,0.1-0.1,0.1-0.1,0.2c0,0.1,0.1,0.2,0.2,0.2v0.1
	c0,0.1-0.1,0.2-0.2,0.3v0.3c0,0.5-0.1,1.3-0.2,2.5c0,0,0,0.1,0,0.2c0,0.1,0,0.3-0.1,0.6l0.1,0.3l-0.2,0.7l-0.1,0.7
	c0,0.1-0.1,0.3-0.2,0.5l0.1,0.3l-0.2,0.5l0.2,0.4l-0.2,0.9l0.1,0.7l-0.1,0.4l0.1,0.4l-0.2,0.1c0.2,0.3,0.3,0.5,0.3,0.5
	c0,0.1-0.1,0.1-0.2,0.2l0.1,0.2l-0.1,0.1l0.2,0.2l-0.1,0.5l0.2,0.7l-0.1,0.2l0.1,0.2l-0.2,0.5l0.1,0.1h0.2l0.2,0.3l0.4-0.1l0.1,0.2
	L130.1,27z M115.1,24.8c0.1,0.1,0.2,0.2,0.2,0.3c0,0.2-0.1,0.4-0.2,0.4c-0.2,0.4-0.5,0.6-0.7,0.6c0,0.1-0.3,0.4-1,1
	c-0.2,0-0.3,0.1-0.4,0.2c-0.1,0.1-0.2,0.2-0.4,0.4c-0.3,0-0.5,0.1-0.5,0.3l-0.3,0.1l-0.1-0.1l-0.1,0.2h-0.1c-0.1,0-0.4,0.1-0.6,0.2
	c-0.3,0.1-0.4,0.2-0.5,0.2l-0.3,0.1h-0.2l-0.2-0.3l-0.3-0.2c-0.1-0.3-0.3-0.6-0.5-0.8l-0.1-0.7l0-0.3l-0.1-0.2l0-0.9l0-0.7l0-0.4
	c0.1-0.1,0.1-0.2,0.1-0.2c0-0.1-0.1-0.3-0.2-0.5c0.1-0.8,0.1-1.3,0.1-1.4c0-0.2-0.1-0.4-0.2-0.5l0.2-0.1l0.1-1.1l-0.1-0.5l0.2-0.5
	l-0.2-0.6c0.2-0.2,0.2-0.5,0.2-0.8v-1l0.1-0.2l0-1.5l0.1-1.4c-0.1-0.3-0.2-0.7-0.1-1.1l0.1-0.9l-0.1-0.3l0.1-1.4
	c0.1,0,0.2-0.1,0.3-0.1c0.1-0.1,0.2-0.1,0.2-0.1c0,0,0.1,0,0.1,0.1l0.1,0.5l0.3,0.3l-0.2,0.3V11c0,0.1,0,0.2,0.1,0.4
	c0,0.3-0.1,0.5-0.2,0.5l0.1,0.2c0,0.6,0.1,1,0.2,1.3L110,14l0.2,0.3c-0.2,0.4-0.3,0.8-0.3,1.1c0,0.2,0.1,0.3,0.3,0.4l-0.2,0.6
	c0.1,0.2,0.1,0.3,0.1,0.3c0,0.1,0,0.2-0.1,0.4l0.1,0.4l-0.1,1l0,0.5c0,0.1-0.1,0.5-0.2,0.9l0.1,0.6l-0.1,1.1l-0.2,0.1l0.2,0.4
	l-0.1,0.6l-0.1,0.9l0.1,0.2l-0.1,0.1c0.1,0.2,0.2,0.4,0.2,0.7c0,0.1,0,0.2-0.1,0.3l0.1,0.3l-0.1,0.5l0.1,0.3l-0.1,0.2l0.3,1l0.4,0.1
	c0.3-0.2,0.6-0.3,0.7-0.3l0.2,0l0.4-0.3c0.1,0,0.2-0.1,0.4-0.2c0.1-0.2,0.3-0.3,0.5-0.3l0.1-0.2l0.2,0l0.1-0.1l0.3-0.1l0.3-0.2
	l0.3-0.1c0,0,0.1-0.1,0.3-0.3c0.2-0.2,0.3-0.3,0.5-0.4c0-0.1,0.1-0.2,0.2-0.2c0,0,0.1,0.1,0.1,0.1C114.8,24.9,114.9,24.9,115.1,24.8
	z M102.6,17.4l-0.2-0.5l-0.5-0.1l-0.8-0.7c-0.1-0.1-0.2-0.1-0.3-0.1c0,0-0.1,0-0.2,0.1l-0.1-0.1h-0.5l-0.1-0.2l-0.3,0.1l-0.1-0.1
	L99,15.6l-0.5-0.1c-0.2,0-0.6,0.1-1.1,0.3l0.1,0.1l-0.3,0.1l-0.1,0.1l-0.3,0v0.2c-0.2,0.1-0.4,0.4-0.7,0.9c-0.2,0.6-0.3,1.1-0.5,1.5
	l0.2,0.1l-0.4,0.3l0.1,0.2c-0.2,0.3-0.3,0.6-0.3,0.9v0.2L95.2,21v0.5c-0.2,0.2-0.2,0.4-0.3,0.5l-0.1,0.1v0.5l-0.1,0.1
	c0,0.2,0,0.5-0.1,0.8l0.2,0.4c-0.1,0.1-0.3,0.2-0.4,0.4l0.1,0.2l-0.2,0.2l0.2,0.6l-0.3,0.4l0,0.7l-0.1,0.3l0.1,0.1l0.1,0.2
	c0.2,0.1,0.3,0.2,0.4,0.3l0.7-0.2c0.1-0.3,0.3-0.4,0.7-0.5l-0.1-0.2c0.3-0.1,0.5-0.1,0.5-0.1c0,0,0-0.1,0.1-0.2
	c0-0.1,0.1-0.2,0.3-0.3h0.1c0.1,0,0.1,0,0.1-0.1l0.5-0.6h-0.1l0.3-0.3c0.1-0.1,0.3-0.2,0.5-0.3l0.2-0.6c0.4-0.2,0.6-0.4,0.6-0.6h0.2
	l0.3-0.4L99.5,23l0.3-0.1c0-0.1-0.1-0.1-0.1-0.1c0,0,0.1-0.1,0.2-0.3c0.1-0.2,0.2-0.3,0.3-0.5l0.1,0.1c0-0.2,0.1-0.4,0.3-0.5
	c0-0.2,0.1-0.3,0.2-0.4c0.1-0.1,0.2-0.1,0.2-0.1h0.2l0-0.4c0,0,0.1-0.1,0.1-0.1c0-0.1,0-0.1-0.1-0.2c0.2-0.3,0.3-0.5,0.4-0.5
	l0.1-0.3l0.2-0.2L102,19c0.1-0.2,0.2-0.4,0.2-0.5l0.3-0.3L102.6,17.4z M104.1,28.2l-0.4,0.2l-0.1,0.3c-0.2,0-0.3,0.1-0.5,0.2
	l-0.1-0.1l-0.2,0.1l-0.5-0.6v-0.7l-0.2-0.2l0.1-0.9l-0.2-1.9l0.1-0.6l-0.2-0.3l0.3-0.1l-0.2-0.3l0.1-0.3l0.2-0.1l0-0.4h0.2v-0.6
	l0.1-0.3c-0.1,0-0.2-0.1-0.3-0.3l-0.5,0.2c-0.1,0.2-0.3,0.4-0.4,0.5l0,0.3l-0.3,0.1l-0.1,0.4l-0.2,0.1v0.2c-0.2,0.1-0.3,0.3-0.4,0.5
	l-0.2,0.1l-0.5,0.8l-0.7,0.7l-0.2,0.4l-0.6,0.7l-0.2,0.3l-0.9,0.6l-1,1.1l-0.3,0.1c-0.1,0-0.2,0.1-0.5,0.3h-0.1
	c-0.2,0-0.3-0.2-0.4-0.5c-0.8-0.3-1.1-0.7-1.2-1.3l0.2-0.1c-0.1-0.4-0.2-0.8-0.2-1.2l-0.2-0.1l0.1-0.2c0-0.1,0.1-0.2,0.1-0.3
	c0-0.1,0.1-0.3,0.1-0.6l0.2-1.1c0,0,0-0.1,0-0.2c0-0.1,0-0.2,0.1-0.3c0-0.1-0.1-0.3-0.1-0.3c0-0.1,0-0.2,0.1-0.3l0.1,0
	c0.2-0.2,0.2-0.4,0.2-0.6c0-0.1,0-0.2-0.1-0.2c-0.1-0.1-0.1-0.1-0.1-0.1c0-0.1,0.1-0.1,0.2-0.2c-0.1,0-0.2-0.1-0.2-0.2
	c0-0.1,0.1-0.1,0.3-0.1v-0.1c0-0.2,0.1-0.4,0.2-0.6c0.1-0.2,0.2-0.3,0.2-0.4l-0.2-0.1l0.4-0.6v-0.1c0-0.4,0.1-0.8,0.4-1.1l0-0.5
	l0.1-0.1c-0.1-0.1-0.1-0.2-0.1-0.3c0-0.1,0.1-0.1,0.2-0.1v-0.5c0.1,0,0.1-0.1,0.1-0.1c0-0.1,0-0.1,0-0.2c0.1-0.1,0.2-0.2,0.4-0.5
	c0.2-0.2,0.4-0.4,0.4-0.6h0.1c0.2,0,0.3-0.1,0.3-0.2c0,0,0-0.1-0.1-0.1c0.4,0,0.6-0.1,0.6-0.2l0.5-0.3l1.6,0.1v0.1l1.3,0.3h0.1
	c0.2,0,0.3,0.1,0.3,0.2l0.1-0.1c0,0.2,0.2,0.3,0.3,0.3l0.1,0l0.3,0.3l0.6,0.2V16c0.3-0.2,0.6-0.3,1.1-0.5V16h-0.1l0.3,0.1l-0.1,0.1
	l0.2,0.8l-0.3,0.3l-0.1,0.5c0,0.2-0.1,0.4-0.3,0.6l0.2,0.4c0,0-0.1,0.1-0.2,0.2c-0.1,0.1-0.1,0.3-0.1,0.7c0.1,0,0.1,0.1,0.1,0.1
	l-0.1,0.2l0,0.2l-0.1,0.3l0.1,0.3l-0.2,0.2l0.1,0.7l-0.1,0.1l0.1,0.1l-0.1,0.1c0,0,0,0.1,0,0.1c0,0.1,0,0.2-0.1,0.3l0.1,0.2
	l-0.1,0.3c-0.1,0-0.1,0.2-0.1,0.4l0.1,0.4l-0.3,0.4c0.1,0.2,0.2,0.3,0.3,0.4c-0.1,0.2-0.3,0.6-0.4,1.2l0.2,0.1l0,0.2
	c0,0,0,0.1,0,0.2c0,0.2-0.1,0.4-0.2,0.6h0.2l0.1,0.5l0.6,0.1l0.2,0.4c-0.1,0-0.1,0.1-0.1,0.1c0,0.1,0.1,0.2,0.3,0.3h0
	c0,0-0.1,0-0.1,0C103.9,27.9,103.9,28,104.1,28.2z M91.8,13.5l-0.3,0.6c0.1,0.1,0.2,0.3,0.2,0.3c0,0,0,0.1,0,0.1
	c0,0-0.1,0.1-0.1,0.2c0,0.1-0.1,0.3-0.2,0.5c-0.1,0.3-0.1,0.5-0.2,0.8c-0.1,0.3-0.2,0.4-0.2,0.6c-0.1,0.1-0.1,0.2-0.2,0.3
	c0,0.1-0.1,0.1-0.1,0.1l-0.3,0.7L90,18.4v0.1l-1.2,1.7l-0.2,0.7L88,21.5l-0.4,0.9l-0.4,0.2L87,23c-0.3,0.2-0.4,0.4-0.5,0.7l-0.2,0.4
	l-0.3,0.3l-0.2,0.4l-0.7,1.1L85,26.1c0,0.1-0.1,0.3-0.2,0.4l-0.3,0.4v0.5l-0.3,0.5l0.2,1.2c-0.1,0.1-0.3,0.2-0.6,0.3
	c-0.1,0.1-0.1,0.1-0.3,0.1l-0.4-0.2l-0.4-1.1L82.2,27l0-0.8l-0.6-0.5l-0.3-0.8c-0.1-0.2-0.2-0.4-0.3-0.7l-0.2-0.6
	c-0.1-0.2-0.2-0.5-0.3-0.7l-0.2-0.3c-0.1-0.1-0.1-0.2-0.1-0.4l-0.1-0.5l-0.3-0.2l-0.2-1.2l-0.5-1.1l0.1-0.2c-0.4-0.6-0.6-1-0.6-1.4
	v-0.2c-0.1,0.1-0.3,0.3-0.4,0.6l-0.3,0.3c-0.2,0.1-0.5,0.3-1,0.7v0c0,0.2-0.1,0.3-0.3,0.4c-0.2,0.1-0.3,0.2-0.4,0.2
	c-0.1,0-0.2,0-0.4,0.1c-0.1,0.1-0.3,0.2-0.4,0.4c-0.2,0.2-0.3,0.4-0.4,0.4l-0.3,0.3l-0.7,0.9L73,23.2c-0.3,0.2-0.5,0.4-0.5,0.4
	c-0.1,0.1-0.2,0.3-0.4,0.6c-0.1,0.3-0.1,0.4-0.1,0.5l-0.3,0.1v0.4l-0.3,0.1l-0.2,0.6c-0.1,0.2-0.2,0.4-0.3,0.7
	c-0.2,0.1-0.2,0.2-0.2,0.3l0.1,0.2v0.1c0,0.2,0.1,0.3,0.2,0.5l-0.2,0l0.1,0.3c0,0.2-0.1,0.3-0.3,0.4l0.1,0.2v0.1
	c0,0.3-0.1,0.5-0.4,0.5c-0.2,0-0.3-0.1-0.4-0.2l-0.8-1.2l-0.2-0.4L68,25.8l-0.3-1.2l-0.5-1.1L67,22.8l-0.4-0.7L66.3,21v-0.4
	l-0.7-2.5l0.1-0.4l-0.2-0.2c0,0,0-0.1-0.1-0.1c0-0.1-0.1-0.1-0.1-0.2c0-0.1-0.1-0.2-0.1-0.3v-0.5l-0.1-1.3l-0.2-0.3l0.2-0.5
	c0.1-0.1,0.2-0.3,0.2-0.5v-0.1c0.1-0.3,0.2-0.5,0.3-0.5c0.2,0,0.4,0.1,0.6,0.3c0.2,0.2,0.3,0.5,0.3,0.9v0.1l-0.1,0.2l0.1,0.1
	l-0.1,0.5v0.5l0.4,2.5l0,0.3l0.3,0.7l0.3,1.9l0.2,0.4l0.3,1.3l0.2,0.1v0.4l0.1,0.3c0,0.1,0.1,0.3,0.1,0.8l0.2,0.1l0.2,0.8l0.2,0.1
	c0.3,0.6,0.5,0.9,0.7,0.9c0.2-0.5,0.3-0.8,0.4-0.8h0.2l0.5-0.6l0.1-0.4c0-0.1,0.2-0.3,0.4-0.5v-0.3c0-0.1,0.2-0.2,0.6-0.5l0.1-0.5
	l0.7-0.7l0.2-0.5l0.4-0.2c0-0.5,0.2-0.7,0.6-0.8l0.1-0.3c0.3,0,0.4,0,0.4-0.1v-0.1l0.2-0.3c0.1-0.2,0.2-0.3,0.4-0.3
	c0.4-0.2,0.6-0.4,0.6-0.7v-0.1l0.3,0c0.2-0.2,0.3-0.5,0.4-0.8h0.2l0.3-0.5h0.2c0.1,0,0.2-0.1,0.4-0.3v-0.6l0.3-0.3
	c0-0.1,0.1-0.2,0.1-0.3l0.1-0.6c0.3-0.2,0.5-0.4,0.5-0.5c0,0,0-0.1,0-0.1h0.5c0.3,0.4,0.5,0.6,0.7,0.6l0.1,0.4l-0.1,0.8l0.1,0.9
	l0.7,1.9l-0.1,0.4l0.2,0.3c0.1,0.1,0.1,0.3,0.2,0.7l0.3,0.2l0.3,1.7l0.2,0.5c0.1,0.2,0.1,0.4,0.2,0.8l0.4,0.3l0.5,1.3
	c0.6,1.1,1,1.7,1.1,1.7v0c0,0,0-0.1,0-0.1l0.1-0.9l0.4-0.3l0.1-0.3c0.1-0.1,0.3-0.2,0.6-0.4l0.3-0.6l0.1-0.3c0-0.1,0.1-0.3,0.4-0.6
	c0.2-0.1,0.4-0.3,0.4-0.5V23l0.4-0.1l0.3-0.7l0.7-0.8l0.7-1.2l0.5-0.7l0.4-0.8l0.4-0.4c0.2-0.2,0.3-0.5,0.5-0.9l0.4-1.2l-0.2-0.2
	l0.3-0.6L90,15.2l0.2-0.1v-0.2l0-0.3L90,14.3c0-0.3,0.1-0.6,0.3-0.9l-0.1-0.2h0.2c0.1-0.4,0.2-0.5,0.4-0.5c0.1,0,0.2,0.1,0.4,0.2
	L91.8,13.5z"/>
<path class="st0" d="M312,23.9c0,0.2-0.1,0.3-0.4,0.5l0,0.1c0,0.1-0.1,0.3-0.4,0.6c-0.3,0.3-0.4,0.6-0.4,0.7l-0.3,0.1
	c0,0.4-0.2,0.6-0.5,0.7c0,0.1-0.1,0.2-0.1,0.2h-0.1c0,0.2-0.1,0.2-0.3,0.2l-0.2,0.3l-0.4,0.1l-0.3,0.2c0,0-0.1,0.1-0.2,0.1l-0.7,0.1
	l-0.2,0l-0.2,0l-0.1-0.1l-0.3,0l-0.3-0.4h-0.1c-0.1-0.1-0.1-0.2-0.1-0.3c-0.3-0.3-0.5-0.6-0.5-0.8V26l-0.2-0.4v-0.2l0.1-0.1
	l-0.1-0.4l-0.2-0.5l0-0.8l-0.3-0.5v-0.7c-0.3-1.5-0.4-2.3-0.4-2.7v-0.1c0-0.2-0.1-0.3-0.1-0.3c0-0.1,0-0.1,0-0.2
	c-0.2-0.3-0.3-0.6-0.3-0.8l-0.1-0.1l-0.6,0.7l-0.3,0.4l-1.1,1.3l-0.4,0.7c-0.1,0.3-0.3,0.6-0.3,0.7c-0.1,0.2-0.3,0.4-0.6,0.7
	l0.1,0.3l-0.2,0.6l-0.2,0v0.3h-0.2l-0.6,0.7c0,0.3-0.1,0.5-0.4,0.6c-0.1,0.1-0.2,0.3-0.2,0.6c-0.1,0.2-0.2,0.4-0.3,0.4l-0.1,0.1
	c-0.2,0.3-0.4,0.6-0.5,0.7c-0.2,0.2-0.4,0.4-0.7,0.6c-0.1,0.3-0.2,0.5-0.4,0.6l0,0.1c0,0.1-0.1,0.3-0.1,0.4
	c-0.1,0.1-0.3,0.2-0.7,0.3c-0.1,0-0.3-0.2-0.3-0.5c-0.1-0.3-0.2-0.5-0.3-0.6l-0.1-0.2l0.2-0.4l0-0.4l0.1-0.1l-0.1-0.3l0-0.4
	l-0.2-0.7l0.2-0.4l-0.1-0.4c0.1-0.3,0.2-0.7,0.2-1.2v-0.2c0,0-0.1-0.2-0.2-0.4c0.2-0.1,0.2-0.2,0.2-0.4l-0.1-0.5l0.2-1.1l-0.1-0.2
	l0-0.5l-0.2-0.3l0.1-0.9l-0.1-0.3l0.1-0.5l-0.1-0.8l0.2-0.4c0.4,0.1,0.6,0.2,0.6,0.2c0,0,0.1,0.1,0.1,0.3c0,0.1,0,0.4,0,0.7l0.2,0.4
	l-0.1,0.6l0.1,1.2l-0.2,0.7l0.1,0.8V22l-0.3,0.4l0.2,0.6c-0.1,0.1-0.1,0.4-0.2,0.8l0.1,0.3c-0.2,0.5-0.2,0.9-0.2,1.2l0,1.1l0.1,0.1
	l0.4-0.2h0.3l0.2-0.7c0.2-0.1,0.4-0.2,0.4-0.3c0-0.2,0.2-0.3,0.5-0.3c0-0.2,0.1-0.4,0.2-0.5c0.1,0,0.2-0.1,0.3-0.4
	c0.2-0.2,0.4-0.4,0.5-0.6v-0.4h0c0.1,0,0.2-0.1,0.3-0.2c0.1-0.1,0.2-0.2,0.4-0.2c0.1-0.2,0.2-0.4,0.3-0.5l0.4-0.5l0.4-0.8
	c0-0.2-0.1-0.3-0.1-0.3c0-0.1,0-0.1,0.1-0.1c0.4-0.3,0.6-0.5,0.6-0.8v-0.4c0.3-0.1,0.5-0.2,0.5-0.3c0,0,0-0.1,0-0.2
	c0-0.1,0-0.1,0-0.1c0-0.1,0-0.1,0.1-0.1c0.1,0,0.1,0,0.2,0.1c0.1-0.5,0.4-0.8,0.7-0.8c0.1,0,0.1,0,0.3,0.1c0-0.3,0.1-0.5,0.3-0.7
	c0-0.1,0.3-0.3,0.7-0.5l0.1-0.2h0.1c0.2,0.2,0.3,0.4,0.4,0.4l0.1,0.2l0.1,0.1l0.1,0.6l0.4,0.2l-0.1,0.5l0.2,0.9v0.9l0.2,1l0.1,1.1
	l0.3,1l0.1,1c0,0,0.1,0.1,0.2,0.3c0.1,0.2,0.2,0.4,0.2,0.7l0.1,0.1v0.5l0.3,0.3l-0.1,0.2l0.2,0.1v0.1c0.2,0.1,0.3,0.2,0.5,0.2
	c0.2,0,0.3,0,0.5-0.1c0.1,0,0.1,0.1,0.1,0.1c0.1,0,0.2-0.1,0.3-0.2c0.3,0,0.4-0.1,0.4-0.2v-0.1c0-0.1,0.2-0.2,0.6-0.3
	c0.1-0.1,0.2-0.2,0.3-0.3l0-0.1c0,0,0.1-0.1,0.1-0.2c0.1-0.1,0.1-0.1,0.3-0.3c0.1-0.1,0.2-0.2,0.3-0.3l0.2-0.3
	c0.1-0.2,0.3-0.5,0.6-0.8l0.4-0.2h0.3L312,23.9z M292.8,24.5l-0.1,0.3l-0.3,0.2l-0.1,0.4l-0.4,0.1c-0.1,0.4-0.3,0.6-0.4,0.7
	l-0.4,0.1l-0.3,0.3c-0.1,0-0.2,0.2-0.5,0.5h-0.2c-0.1,0.2-0.4,0.3-0.7,0.3c-0.2,0.3-0.3,0.4-0.4,0.5c-0.1,0.1-0.3,0.2-0.6,0.2
	c-0.2,0-0.4,0.1-0.4,0.1l-0.1,0.2h-0.5l-0.3,0.2l-0.7-0.6l-0.4-1l-0.1-1.6l-0.1-0.3l0.3-2.5l0.2-0.1l-0.1-1.5c0-0.2,0-0.4,0.1-0.5
	c0-0.2,0.1-0.4,0.1-0.7l0.1-0.1c0-0.3-0.1-0.6-0.2-0.8l0.1-0.4v-0.6l0.1-0.2c0-0.1-0.1-0.3-0.1-0.5c0-0.2-0.1-0.3-0.1-0.3
	c0-0.2,0-0.2,0.1-0.2c0,0,0,0,0.1,0c-0.1-0.3-0.2-0.5-0.2-0.6c0-0.1,0.1-0.2,0.2-0.2c0,0,0.1,0,0.2,0.1c0.1,0.1,0.2,0.1,0.2,0.1
	c0,0,0.1,0,0.1-0.1c0-0.2,0.1-0.2,0.2-0.2c0.1,0,0.2,0,0.2,0.1c0,0,0,0.2,0.1,0.6l0.3,0.1l-0.3,0.3l-0.3,1.9l0.2,0.5
	c0,0.2-0.1,0.4-0.3,0.6l-0.1,0.4l0.1,0.3l-0.4,1.2l0,0.1l-0.1,1v0.7l-0.2,0.5l0.1,0.4l-0.1,0.7c0,0.5,0.1,1,0.2,1.3l0,0.2l0.3,0.2
	l0.3-0.1l0.4,0.1l0.4-0.2c0.1-0.1,0.3-0.2,0.5-0.2l0.2-0.2l0.1,0.1l0.2-0.2l0.3-0.1c0.2-0.2,0.5-0.3,0.7-0.4
	c0.1-0.1,0.2-0.2,0.4-0.2l0.2-0.3l0.3,0l-0.1-0.3h0.1l0.1-0.2l0.6-0.3l0.1-0.4l0.6,0C292.7,24.4,292.8,24.4,292.8,24.5z M289.8,9.4
	c-0.1,0.2-0.2,0.3-0.5,0.5v0.2l-0.3,0.3c-0.1,0.1-0.2,0.2-0.2,0.2c0,0-0.1,0-0.2-0.1l-0.8,1l-0.2,0.3l-0.7,0.2l-0.4,0.5l-0.3,0.1
	c-0.1,0-0.3,0.2-0.7,0.6l-0.2-0.1l0-0.4l0.7-0.3c0.1-0.5,0.2-0.8,0.4-0.8c0.2-0.1,0.2-0.1,0.2-0.1v-0.1l0.1-0.1l0.1,0l0.1-0.2h0.1
	l-0.1-0.3h0.5v-0.4l0.2-0.1l0.1-0.2l0.2-0.1l0.2-0.4c0.1,0,0.1-0.1,0.2-0.2h0.2l0-0.3c0.2-0.2,0.3-0.4,0.4-0.6
	C289.4,8.8,289.7,9,289.8,9.4z M284.1,25.4l-0.2,0.4l-0.8,1.1c-0.4,0.3-0.8,0.6-1.1,0.8c-0.3,0.2-0.9,0.4-1.7,0.6l-0.3-0.1l-0.4,0.1
	l-0.5-0.1l-0.5,0.1l-0.1-0.1l-0.3,0.1l-0.4-0.1h-0.5l-0.4-0.4l-0.7-0.2l-0.3-0.3l-0.3,0.1l-0.4-0.4c-0.1-0.1-0.1-0.1-0.2-0.1
	l-0.4-0.1l-0.4-0.5h-0.9l-0.2-0.4h-0.3l-0.1-0.2l-0.4-0.1l-0.1-0.6l-0.4,0.3l-0.2-0.3l-0.5-0.4l-0.3-0.4c-0.1-0.1-0.3-0.3-0.5-0.4
	c-0.2-0.2-0.4-0.3-0.6-0.5c-0.2-0.2-0.4-0.3-0.6-0.4c-0.2-0.3-0.4-0.5-0.7-0.5H268l-0.1-0.2l-0.4,0.1l-0.1-0.3l-0.2,0.1l-0.5-0.1
	l-0.3,0.4l0.1,1l-0.3,0.1l0.3,0.8c0,0.3-0.1,0.8-0.4,1.3c0.2,0.1,0.3,0.2,0.4,0.5c-0.2,0.3-0.2,0.5-0.2,0.8v0.7l-0.2,0.5l-0.1,0.4
	c0,0.3-0.3,0.9-0.8,1.6l-0.3-0.2l0.1-0.4l0-0.3c0-0.1,0.1-0.2,0.2-0.4l-0.1-0.3l0.3-0.2c-0.2,0-0.3-0.1-0.3-0.3c0,0,0,0,0-0.1
	c0-0.1,0.1-0.2,0.3-0.4l-0.2-0.2l0.2-0.3l0.1,0.1c0-0.4-0.1-0.6-0.2-0.9l0.2-0.5l-0.2,0.1c-0.1-0.1-0.1-0.3-0.1-0.4
	c0-0.1,0.1-0.3,0.2-0.6c0-0.3-0.1-0.6-0.1-0.9c0-0.3,0-0.4-0.1-0.5c-0.1,0-0.1-0.1-0.1-0.2l0.2-0.2l-0.2-0.6l0.3-0.4l-0.1-0.3v-0.7
	l-0.1-0.7l0.4-0.4c-0.1-0.1-0.2-0.2-0.2-0.5l0-0.3c0-0.1,0-0.2,0-0.2l0.1-0.4l-0.1-0.1V18c0.1,0,0.2-0.1,0.2-0.2l-0.1-0.3v-1.4
	l0-0.2c0.1-0.1,0.1-0.3,0.1-0.6c-0.2-0.2-0.2-0.5-0.2-0.8c0-0.3,0.1-0.7,0.2-1c0.1-0.1,0.3-0.1,0.4-0.1c0.2,0,0.3,0.1,0.6,0.1
	l0.4,0.6l-0.1,0.7l0.2,0.2l-0.1,0.3l0.1,0.4l-0.4,0.6l0.2,1l-0.2,0.7l0.1,1l-0.3,0.5l0.2,0.2l0.4,0.7c0,0,0.2,0.1,0.5,0.1
	c0.3,0.1,0.6,0.1,0.8,0.2l0.2-0.1l0.3,0.1l0.3-0.2l0.5,0.1l0.1,0.1c0.5-0.4,0.9-0.6,1.1-0.6c0.2,0,0.4,0,0.5,0.1v-0.2h0.3
	c0.3-0.3,0.6-0.5,0.8-0.5h0.1l0.2-0.2v0c0,0,0.1-0.1,0.1-0.1h0.3l1-0.4c0.2-0.3,0.3-0.5,0.4-0.6c0.1,0,0.2-0.1,0.2-0.1
	c0.1,0,0.1,0,0.2,0.1l0.1-0.4h0.2l0.1-0.2l0.4-0.1l0.3-0.5h0.3c0.1,0,0.2-0.1,0.2-0.4c0-0.3,0.2-0.4,0.5-0.4
	c0.1-0.2,0.3-0.4,0.4-0.4v-0.2l0.4-0.1c0.1-0.5,0.3-0.8,0.5-0.9c0.1-0.2,0.2-0.4,0.3-0.5c0-0.2,0.3-0.5,0.7-0.9v-0.2
	c0-0.3,0.1-0.4,0.3-0.4c0.2,0,0.4,0.2,0.7,0.5l-0.2,0v0.3c-0.1,0.2-0.2,0.4-0.5,0.6l-0.1,0.4l-0.3,0.1l-0.3,0.9l-0.3,0.4
	c-0.2,0.3-0.3,0.4-0.3,0.5c0,0-0.1,0.1-0.2,0.1c-0.1,0.1-0.2,0.1-0.4,0.3c0,0.2,0.1,0.4,0.1,0.5c-0.5,0-0.8,0.2-0.9,0.5l-0.3,0.1
	v0.2l-0.4,0.2l-0.6,0.7l-0.8,0.4l-0.6,0.4l-0.5,0.1l-0.5,0.3l-0.8,0.2c-0.7,0.5-1.2,0.8-1.5,0.9l-0.9,0.3l-0.6,0.1l0.8,0.6l0.1,0.2
	h0.3l0.3,0.5l0.7,0.6l0.9,0.5l0.1,0.3l0.8,0.3l0.7,0.5l0.9,0.5l0.5,0.5l0.6,0.2l0.8,0.6l1.1,0.4l0.9,0.1l1.4-0.2h0.6
	c0.2,0,0.3-0.1,0.4-0.2c0.1-0.1,0.2-0.2,0.3-0.2c0,0,0.1,0,0.1,0.1c0.1,0,0.1,0,0.2,0h0.1c0.1-0.2,0.2-0.4,0.4-0.4h0.1l0.1-0.3
	c0.2-0.3,0.5-0.5,0.7-0.7l0-0.2c0.2-0.1,0.4-0.2,0.5-0.3l0.1,0.1L284.1,25.4z M255.1,16.7l-0.1,0.4l-0.9,0.1l-0.6,0.4l-0.4,0.1
	l-0.5,0.3l-0.5,0.2c-0.2,0.2-0.4,0.3-0.6,0.4v0.2l-0.4,0.2l-0.3,0.5h-0.3l-0.2,0.5l-0.3,0.2c-0.1,0.1-0.2,0.2-0.3,0.3l-0.3,0.5
	c-0.2,0.1-0.4,0.4-0.4,0.8l-0.1-0.1l-0.1,0.2l-0.2,0.1l-0.2,0.5c-0.2,0.3-0.3,0.5-0.3,0.7l-0.3,0.1V24c-0.1,0.1-0.1,0.2-0.1,0.3
	l0.1,0.1l-0.3,0.1l0.1,0.2c0,0.2-0.2,0.6-0.5,1.1l0.1,0.4l-0.3,0.5c0,0.2,0.1,0.3,0.1,0.5l-0.1,0.5l0.1,0.5c0,0,0.1,0.1,0.1,0.2
	l0.2,0.2c-0.1,0.2-0.2,0.4-0.4,0.5l-0.4-0.1l0.1,0.3l-0.7-0.1v-0.4l-0.1-0.3l0.1-0.5l-0.1-0.2l0.1-1L246,26c-0.1,0-0.2-0.1-0.2-0.2
	c0-0.1,0.1-0.2,0.2-0.4v-0.4c0-0.2,0-0.4,0-0.5l0.1-0.1l-0.1-0.6l0.1-0.5l-0.1-0.3l0.1-0.8l-0.1-0.2l0.1-0.3l-0.2-0.6l0.1-0.5
	c0-0.1,0-0.3-0.1-0.5l0.1-0.1l-0.2-1l-0.2-0.1l0.2-0.5c-0.2-0.3-0.3-0.6-0.3-1v-0.4c-0.1-0.1-0.1-0.2-0.2-0.3
	c0.1-0.2,0.4-0.3,0.7-0.5l0.2,0.1c0,0.2,0.1,0.5,0.3,0.7l-0.1,0.7l0.3,2.3c0,0.1-0.1,0.3-0.2,0.4l0.1,0.6l-0.1,0.5l0.1,0.5l-0.1,0.4
	l0.2,0.4l-0.1,0.1l0.1,0.7l0.2,0.1l0.1-0.6c0-0.1,0.1-0.2,0.3-0.5c0.3-0.2,0.4-0.5,0.4-0.7v-0.2l0.2-0.1c0,0,0.1,0,0.1-0.1
	c0-0.1,0-0.1,0.1-0.1h0.1l0.2-0.6l0.5-0.3l0-0.2h0.2l-0.1-0.3l0.5-0.2l0-0.4l0.4-0.1c0.2-0.2,0.4-0.4,0.4-0.6l0.3-0.1
	c0-0.1,0.2-0.3,0.5-0.5c0.1,0,0.1,0,0.1-0.1l0.5-0.3l0.1-0.2l0.3-0.1c0.5-0.4,0.9-0.6,1.1-0.6h0.1c0.2,0,0.3,0,0.4-0.1l0.3,0.1
	c0.1-0.1,0.2-0.1,0.3-0.1C254.9,16.6,255.1,16.7,255.1,16.7z M238.1,11.9l-0.2,0.5l-0.4,0.2c-0.1,0.2-0.3,0.3-0.4,0.3
	c-0.1,0-0.4,0.1-0.6,0.2c-0.1-0.2-0.3-0.3-0.5-0.5c-0.2-0.2-0.3-0.3-0.3-0.3c0,0,0-0.2-0.1-0.6l0.3-0.3l-0.1-0.2l0.1-0.1l-0.1-0.1
	c0.1,0,0.2-0.1,0.2-0.2c0,0,0.1,0,0.1,0c0,0,0.1,0,0.1-0.1v-0.1h0.1c0.1,0,0.1,0,0.2-0.1c0-0.1,0.1-0.1,0.1-0.1
	c0.1,0.1,0.4,0.2,0.8,0.2c0.2,0.3,0.4,0.5,0.6,0.5v0.2l0.2,0.1l-0.1,0.3L238.1,11.9z M233.2,11.6L233.2,11.6l0,0.4l-0.1,0.1v0.2
	c-0.1,0-0.3,0.2-0.6,0.5c-0.2,0-0.4,0-0.5,0.1c-0.2,0.1-0.3,0.1-0.3,0.1c0,0-0.1,0-0.1-0.1c0-0.1-0.1-0.1-0.2-0.1h-0.1
	c0-0.1,0-0.1-0.1-0.1h-0.1l-0.2-0.1l0.1-0.1l-0.1-0.1l0.1-0.2l-0.3-0.4c0.1-0.2,0.1-0.4,0.1-0.5c0-0.1,0.1-0.2,0.4-0.4
	c0.2-0.1,0.4-0.3,0.5-0.4l0.2,0.1c0.3,0,0.5,0.1,0.6,0.3c0.1,0.1,0.3,0.2,0.6,0.3L233.2,11.6z M241.8,27c0.1,0,0.3,0,0.5,0
	c0.2,0,0.3,0.1,0.3,0.2c0,0.1-0.1,0.3-0.3,0.5l-0.2,0.1l-0.1,0.2c0,0-0.2,0.2-0.5,0.3l-0.5,0.1c-0.1,0.1-0.4,0.2-1,0.2
	c0,0-0.2,0-0.4-0.1c-0.2-0.1-0.4-0.1-0.5-0.2l-1-0.9l-0.2-0.9l-0.3-0.3V26c0-0.3-0.1-0.6-0.2-0.8l0-0.7c0.1-0.4,0.1-0.6,0.1-0.6
	c0-0.2-0.1-0.4-0.2-0.7l0.1-1.3l-0.3,0.2l-0.2,0.3l-0.3,0.2c-0.1,0.1-0.2,0.2-0.3,0.3l-0.3,0c-0.2,0.2-0.3,0.4-0.3,0.6
	c-0.3,0.1-0.5,0.3-0.6,0.5c-0.1,0.2-0.2,0.4-0.5,0.7c-0.2,0.2-0.4,0.4-0.5,0.4c-0.1,0-0.2,0.1-0.3,0.2l-0.9,1.1h-0.1l-0.7,0.8
	l-0.6,0.3l-0.2,0.4c-0.3,0.1-0.8,0.3-1.2,0.5l-0.4-0.3c0,0-0.1,0-0.2,0c-0.1,0-0.2-0.1-0.2-0.2c0-0.1,0-0.1,0-0.2l-0.3-0.2
	c0-0.1,0-0.2,0.1-0.3l-0.4-0.4l0.2-0.3h-0.3l-0.2-0.6l0.2-0.2l-0.3-0.4c0-0.5,0-0.7,0.1-0.8l0-0.5c0-0.2,0.1-0.4,0.2-0.6l-0.2-0.2
	c0.2-0.2,0.2-0.4,0.2-0.6c0-0.1,0-0.3-0.2-0.5c0.1-0.1,0.2-0.2,0.2-0.5c0-0.1,0-0.2,0-0.4l-0.1-1l0.4-2.1c0-0.4-0.1-0.7-0.1-1.1
	l-0.1-0.5c0-0.3,0.2-0.5,0.5-0.5l0.4,0.1l0.2,0.3l-0.1,0.6l-0.1,1.5l0.1,0.9l-0.2,0.5l0.1,0.3l-0.1,0.5v0.4c-0.1,0-0.1,0.1-0.1,0.2
	c0,0.1,0,0.2,0,0.2c0,0.1,0,0.2-0.1,0.3l0.2,0.3l-0.3,0.4l0.2,0.3l-0.1,0.4l0.1,0.5v0.6l0.2,0.2l-0.1,0.7c0,0.1,0.1,0.3,0.2,0.4
	l-0.1,0.3l0.1,0.4c0.2,0.1,0.4,0.3,0.6,0.6c0.2,0,0.4-0.1,0.6-0.3c0.2-0.2,0.4-0.3,0.6-0.5c0,0,0,0-0.1,0c0.3-0.1,0.5-0.3,0.5-0.5
	c0.2,0,0.4-0.1,0.5-0.1l0.1-0.4l0.3-0.1c0.2-0.3,0.6-0.5,1-0.6l0-0.3l0.5-0.4c0-0.4,0.3-0.6,0.6-0.6L235,23l0.3-0.1l0.4-0.6h0.2
	v-0.2l0.3-0.1l0.2-0.4c0.2-0.1,0.5-0.2,0.7-0.3l0.1-0.3l0.2-0.1v-0.2l0.1,0c0-0.5,0.2-0.7,0.5-0.7l-0.1-0.1l0.6-1.7h0.1v-0.4h0
	c0.1,0,0.2-0.4,0.5-1.1l0.5-0.1l-0.1,0.1l0.3,0.6l-0.2,1.1l-0.4,0.7l-0.3,1.1l-0.4,0.3V21l-0.2,0.4l0.1,0.5l-0.2,0.2l0.1,1.3
	l-0.1,1.6l0.1,0.2l0,0.2h0.1V26c0.3,0.5,0.5,0.8,0.5,0.9l0.4,0.1l0.1,0.3c0.3,0.1,0.5,0.2,0.7,0.3l0.4,0l0.3,0.1l0.5-0.2
	C241.3,27.4,241.5,27.2,241.8,27z M228.3,10.1c0,0.1-0.1,0.3-0.2,0.4l-0.1-0.1l-0.3,0.2l-0.2-0.6c-0.2-0.5-0.3-0.9-0.5-1
	c-0.1-0.2-0.2-0.2-0.3-0.2l-0.2,0.2c-0.2-0.2-0.5-0.2-0.8-0.3l-0.3,0.3c-0.2-0.1-0.3-0.1-0.5-0.1l-0.7,0.1C224,8.9,224,9.1,224,9.2
	c0,0.1-0.1,0.1-0.1,0.1c0,0,0,0-0.1-0.1c0,0-0.1-0.1-0.1-0.1c-0.1,0-0.5,0.6-1.2,1.8c-0.1,0.5-0.2,0.9-0.2,1l-0.2,0
	c-0.1,0.4-0.2,0.8-0.4,1.1l0.2,0.6l-0.4,0.2c-0.1,0.5-0.2,0.8-0.3,1l0,0.5l-0.4,1.1l0.1,0.6c0,0.1-0.1,0.3-0.2,0.6
	c-0.1,0.1-0.1,0.3-0.1,0.6c0,0.3,0.2,0.5,0.5,0.5h0.2c0.1-0.1,0.3-0.2,0.5-0.2h0.1c0.1,0,0.3,0,0.4-0.1c0,0,0.1,0,0.3,0
	c0.2,0,0.4,0,0.5,0h0.2c0.2-0.1,0.3-0.1,0.4-0.1c0.1,0,0.3,0.1,0.6,0.2l0.7-0.1c0,0,0.1,0,0.2,0.1c0.1,0,0.2,0.1,0.3,0.1
	c0.2,0,0.3,0,0.4-0.1c0.1,0.2,0.2,0.2,0.3,0.2c0.2-0.1,0.3-0.2,0.4-0.2c0.1,0,0.1,0.1,0.1,0.2c0,0,0,0.2-0.1,0.4l-0.8,0.3l-0.9-0.2
	c-0.1,0.1-0.4,0.2-0.7,0.3c-0.1-0.2-0.3-0.2-0.4-0.2c-0.1,0-0.3,0.1-0.6,0.4c-0.1,0-0.3,0-0.5-0.1l-0.1,0.1l-0.5,0.2l-0.3-0.2
	l-0.2,0h-0.2c-0.1,0-0.2,0.1-0.3,0.2c-0.1,0.1-0.3,0.2-0.4,0.2l-0.3,0.4l0.1,0.4l-0.1,0.5l0.1,0.5l-0.3,0.7l0.1,1.3l-0.2,0.5
	l0.1,0.4l-0.3,0.7l0.2,0.7v0c0,0,0,0.2-0.1,0.4c-0.1,0.2-0.1,0.5-0.1,0.8l0,0.8c0,0.3,0.1,0.5,0.2,0.6l-0.1,0.4l0.2,0.7l-0.1,0.5
	l0.3,1.6l0.1,1.8l0.5,0.7l-0.2,0.1l-0.1,0.4c0.2,0.3,0.4,0.6,0.4,0.9v0.1c0.1,0.2,0.1,0.4,0.1,0.5c0,0.3-0.1,0.4-0.4,0.4l-0.2-0.3
	l-0.2-0.1l0-0.3l-0.6-1.7V34l-0.2-0.2l0.2-0.3l-0.1-0.7l0.1-0.5c0,0,0-0.1-0.1-0.2c0-0.1-0.1-0.3-0.1-0.5c0-0.2,0-0.3,0-0.3
	l-0.2-1.6l0.1-0.1l-0.1-0.7l0.1-0.5l-0.1-0.3l0.1-0.2l0-1.6l0.1-0.1v-1.2l0.1-0.3l-0.1-1l0.1-0.3l0.3-2c0-0.1,0-0.2,0.1-0.4
	c0-0.2,0.1-0.3,0.1-0.4c0,0-0.1-0.2-0.3-0.6l-0.5,0.2l-0.5-0.1l-0.3,0.2l-0.3-0.2l-0.1,0.1l-0.5,0.1l-0.5-0.1l-0.8,0.1l-0.4-0.1
	l-0.1,0.1c-0.3-0.1-0.6-0.2-0.7-0.3c-0.1-0.1-0.2-0.3-0.3-0.6l0.1-0.4c0-0.1,0.1-0.2,0.3-0.2c0.1,0,0.3,0,0.5,0.1l0.1,0.2l1-0.1
	l1.2,0.1l0.8-0.2l0.6,0c0.3,0,0.5,0.1,0.6,0.2c0-0.1,0.1-0.1,0.4-0.2l-0.1-0.3l0.1-0.6l0-0.6c0-0.2,0.1-0.4,0.2-0.7l-0.1-0.7
	c0,0,0-0.1,0.1-0.2c0.1-0.1,0.1-0.2,0.1-0.3v-0.1l0.3-0.3l0.1-1l0.2-0.2l-0.1-0.4c0.2-0.3,0.3-0.5,0.3-0.7c0,0,0-0.1,0-0.2
	c0-0.1,0-0.2,0.1-0.5c0.1-0.2,0.1-0.4,0.2-0.5c0-0.1,0.1-0.2,0.2-0.4c0.1-0.1,0.1-0.3,0.1-0.4l0-0.2v-0.1c0-0.1,0.1-0.3,0.2-0.3
	l-0.1-0.2c0-0.1,0.1-0.2,0.3-0.3c0.2-0.3,0.4-0.7,0.5-1c0.2,0,0.3-0.2,0.5-0.7l0.4-0.1h0.4l0.2-0.3l0.5,0.2c0.3-0.2,0.6-0.2,0.8-0.2
	l0.6,0.1c0.2,0.1,0.4,0.1,0.4,0.1c0.1,0,0.2,0,0.4-0.1c0.1,0,0.2,0.2,0.3,0.4l0.5,0.3c0.2,0.4,0.4,0.7,0.6,1L228.3,10.1L228.3,10.1z
	 M206.9,23.9c0,0.2-0.1,0.3-0.4,0.5l0,0.1c0,0.1-0.1,0.3-0.4,0.6c-0.3,0.3-0.4,0.6-0.4,0.7l-0.3,0.1c0,0.4-0.2,0.6-0.5,0.7
	c0,0.1-0.1,0.2-0.1,0.2h-0.1c0,0.2-0.1,0.2-0.3,0.2l-0.2,0.3l-0.4,0.1l-0.3,0.2c0,0-0.1,0.1-0.2,0.1l-0.7,0.1l-0.2,0l-0.2,0
	l-0.1-0.1l-0.3,0l-0.3-0.4h-0.1c-0.1-0.1-0.1-0.2-0.1-0.3c-0.3-0.3-0.5-0.6-0.5-0.8V26l-0.2-0.4v-0.2l0.1-0.1l-0.1-0.4l-0.2-0.5
	l0-0.8l-0.3-0.5v-0.7c-0.3-1.5-0.4-2.3-0.4-2.7v-0.1c0-0.2-0.1-0.3-0.1-0.3c0-0.1,0-0.1,0-0.2c-0.2-0.3-0.3-0.6-0.3-0.8l-0.1-0.1
	l-0.6,0.7l-0.3,0.4l-1.1,1.3l-0.4,0.7c-0.1,0.3-0.3,0.6-0.3,0.7c-0.1,0.2-0.3,0.4-0.6,0.7l0.1,0.3l-0.2,0.6l-0.2,0v0.3h-0.2
	l-0.6,0.7c0,0.3-0.1,0.5-0.4,0.6c-0.1,0.1-0.2,0.3-0.2,0.6c-0.1,0.2-0.2,0.4-0.3,0.4l-0.1,0.1c-0.2,0.3-0.4,0.6-0.5,0.7
	c-0.2,0.2-0.4,0.4-0.7,0.6c-0.1,0.3-0.2,0.5-0.4,0.6l0,0.1c0,0.1-0.1,0.3-0.1,0.4c-0.1,0.1-0.3,0.2-0.7,0.3c-0.1,0-0.3-0.2-0.3-0.5
	c-0.1-0.3-0.2-0.5-0.3-0.6l-0.1-0.2l0.2-0.4l0-0.4l0.1-0.1l-0.1-0.3l0-0.4l-0.2-0.7l0.2-0.4l-0.1-0.4c0.1-0.3,0.2-0.7,0.2-1.2v-0.2
	c0,0-0.1-0.2-0.2-0.4c0.2-0.1,0.2-0.2,0.2-0.4l-0.1-0.5l0.2-1.1l-0.1-0.2l0-0.5l-0.2-0.3l0.1-0.9l-0.1-0.3l0.1-0.5l-0.1-0.8l0.2-0.4
	c0.4,0.1,0.6,0.2,0.6,0.2c0,0,0.1,0.1,0.1,0.3c0,0.1,0,0.4,0,0.7l0.2,0.4l-0.1,0.6l0.1,1.2l-0.2,0.7l0.1,0.8V22l-0.3,0.4l0.2,0.6
	c-0.1,0.1-0.1,0.4-0.2,0.8l0.1,0.3c-0.2,0.5-0.2,0.9-0.2,1.2l0,1.1l0.1,0.1l0.4-0.2h0.3l0.2-0.7c0.2-0.1,0.4-0.2,0.4-0.3
	c0-0.2,0.2-0.3,0.5-0.3c0-0.2,0.1-0.4,0.2-0.5c0.1,0,0.2-0.1,0.3-0.4c0.2-0.2,0.4-0.4,0.5-0.6v-0.4h0c0.1,0,0.2-0.1,0.3-0.2
	c0.1-0.1,0.2-0.2,0.4-0.2c0.1-0.2,0.2-0.4,0.3-0.5l0.4-0.5l0.4-0.8c0-0.2-0.1-0.3-0.1-0.3c0-0.1,0-0.1,0.1-0.1
	c0.4-0.3,0.6-0.5,0.6-0.8v-0.4c0.3-0.1,0.5-0.2,0.5-0.3c0,0,0-0.1,0-0.2c0-0.1,0-0.1,0-0.1c0-0.1,0-0.1,0.1-0.1c0.1,0,0.1,0,0.2,0.1
	c0.1-0.5,0.4-0.8,0.7-0.8c0.1,0,0.1,0,0.3,0.1c0-0.3,0.1-0.5,0.3-0.7c0-0.1,0.3-0.3,0.7-0.5l0.1-0.2h0.1c0.2,0.2,0.3,0.4,0.4,0.4
	l0.1,0.2l0.1,0.1l0.1,0.6l0.4,0.2l-0.1,0.5l0.2,0.9v0.9l0.2,1l0.1,1.1l0.3,1l0.1,1c0,0,0.1,0.1,0.2,0.3c0.1,0.2,0.2,0.4,0.2,0.7
	l0.1,0.1v0.5l0.3,0.3l-0.1,0.2l0.2,0.1v0.1c0.2,0.1,0.3,0.2,0.5,0.2c0.2,0,0.3,0,0.5-0.1c0.1,0,0.1,0.1,0.1,0.1
	c0.1,0,0.2-0.1,0.3-0.2c0.3,0,0.4-0.1,0.4-0.2v-0.1c0-0.1,0.2-0.2,0.6-0.3c0.1-0.1,0.2-0.2,0.3-0.3l0-0.1c0,0,0.1-0.1,0.1-0.2
	c0.1-0.1,0.1-0.1,0.3-0.3c0.1-0.1,0.2-0.2,0.3-0.3l0.2-0.3c0.1-0.2,0.3-0.5,0.6-0.8l0.4-0.2h0.3L206.9,23.9z M184.5,18.9
	c0.1,0,0.2-0.1,0.4-0.4l0.1-0.4c0.2-0.4,0.4-0.7,0.4-0.8c0-0.1,0.1-0.2,0.1-0.4c0-0.2-0.1-0.5-0.2-0.9l-0.6-0.2
	c-0.2,0-0.3,0.1-0.3,0.1l-0.2-0.1c-0.1,0-0.2,0.1-0.3,0.3c-0.2,0-0.4,0.1-0.8,0.2l-0.1,0.2c0,0-0.1,0-0.1,0c0,0-0.1,0-0.1,0
	c0,0-0.1,0-0.1,0c0,0,0,0-0.1,0.1c0,0,0,0.1-0.1,0.1c0,0,0,0.1,0,0.1c0,0,0,0.1,0,0.1c0,0-0.1,0.1-0.2,0.3l-0.2,0.3l-0.4,0.8
	l-0.2,0.2c-0.1,0.1-0.1,0.2-0.2,0.4c0,0.2-0.3,0.7-0.8,1.4l0.2,0.1l0.1,0.2l0.5,0.1c0.3-0.2,0.6-0.3,0.9-0.4l0.1-0.2
	c0.1,0,0.2,0.1,0.2,0.1c0.1,0,0.2-0.1,0.3-0.2l0.3-0.1l0.2-0.4h0.2l0.1-0.3c0.3,0,0.5-0.1,0.7-0.4V18.9z M187,25.7
	c0.1,0.2,0.2,0.4,0.2,0.5c0,0.1-0.1,0.2-0.3,0.5c-0.2,0.3-0.3,0.5-0.4,0.8l-0.2,0l-0.3,0.6l-0.4,0.1l-0.8,0.5l-0.1,0.3l-0.2,0
	l-0.3,0.3h-0.4l-0.1,0.1l-0.2,0c-0.2,0-0.4,0.1-0.6,0.3l-0.2-0.1c-0.2,0.1-0.4,0.1-0.5,0.1c-0.2,0-0.4,0-0.5-0.1c-0.1,0-0.2,0-0.4,0
	l-0.2-0.1c-0.5,0-0.9-0.2-1.1-0.5v-0.4l-0.5-0.3l-0.1-0.3c0-0.1-0.1-0.2-0.3-0.4v-0.2l-0.3-1.4l0.1-1l0.1-0.6v-0.6l0.2-0.5L179,23
	c0.1-0.1,0.2-0.2,0.2-0.3c0-0.1,0.1-0.3,0.2-0.4c0-0.2-0.1-0.4-0.1-0.7l0.3-0.2l-0.3-0.3c0.1-0.2,0.2-0.4,0.2-0.4l-0.1-0.9
	c0-0.2,0-0.4,0.1-0.6c0.1,0.2,0.2,0.3,0.4,0.3c0.1,0,0.3,0,0.6-0.1c0-0.1,0-0.1,0-0.2c0-0.1,0.1-0.3,0.2-0.4
	c0.2-0.5,0.4-0.9,0.7-1.4c0.2-0.1,0.3-0.3,0.3-0.6h0.1l0.1-0.3l0.2-0.1c0-0.1,0.1-0.3,0.3-0.4c0.2-0.1,0.5-0.3,0.8-0.7
	c0,0,0.1,0,0.2,0c0,0,0.1-0.1,0.2-0.3c0.3-0.1,0.5-0.2,0.5-0.2c0.1,0,0.2,0.1,0.3,0.2l0.3-0.1l0.1,0.1h0.2c0.1,0.3,0.3,0.5,0.6,0.5
	h0.1c0,0.1,0.1,0.2,0.2,0.3l-0.1,0.1c0.3,0.2,0.5,0.6,0.5,1.2l-0.1,0.3l0.1,0.8l-0.1,0.1l-0.3,0.9l-0.6,0.7l0,0.4
	c-0.7,0.6-1.3,1-1.8,1.2c0,0.1-0.1,0.2-0.2,0.2c0,0-0.1,0-0.2-0.1l-0.7,0.5h-0.4l-0.6,0.3l-0.2-0.1c-0.1,0-0.3-0.1-0.6-0.1
	c-0.3,0.3-0.4,0.6-0.4,1.1l-0.2,0.2c0,0.4-0.1,0.6-0.1,0.8l-0.2,0.1l0.2,1.1l-0.2,0.1l0,0.3l0,0.4c0,0.1,0,0.3,0.1,0.6
	c0,0.3,0.1,0.5,0.2,0.5c0,0.1,0,0.3,0.3,0.5c0.2,0.2,0.5,0.3,0.8,0.4v0.2l0.8,0.1l1.1,0.1l0.7-0.1c0.3-0.2,0.5-0.3,0.7-0.4l0.2-0.3
	h0.3l0-0.1c0.4-0.1,0.7-0.2,0.7-0.3c0-0.1,0.1-0.1,0.1-0.2c0.1-0.1,0.2-0.2,0.3-0.2l0.1-0.2c0.4-0.1,0.7-0.4,0.8-0.9
	C186.7,25.8,186.9,25.7,187,25.7z"/>
<path class="st1" d="M312,23.9c0,0.2-0.1,0.3-0.4,0.5l0,0.1c0,0.1-0.1,0.3-0.4,0.6c-0.3,0.3-0.4,0.6-0.4,0.7l-0.3,0.1
	c0,0.4-0.2,0.6-0.5,0.7c0,0.1-0.1,0.2-0.1,0.2h-0.1c0,0.2-0.1,0.2-0.3,0.2l-0.2,0.3l-0.4,0.1l-0.3,0.2c0,0-0.1,0.1-0.2,0.1l-0.7,0.1
	l-0.2,0l-0.2,0l-0.1-0.1l-0.3,0l-0.3-0.4h-0.1c-0.1-0.1-0.1-0.2-0.1-0.3c-0.3-0.3-0.5-0.6-0.5-0.8V26l-0.2-0.4v-0.2l0.1-0.1
	l-0.1-0.4l-0.2-0.5l0-0.8l-0.3-0.5v-0.7c-0.3-1.5-0.4-2.3-0.4-2.7v-0.1c0-0.2-0.1-0.3-0.1-0.3c0-0.1,0-0.1,0-0.2
	c-0.2-0.3-0.3-0.6-0.3-0.8l-0.1-0.1l-0.6,0.7l-0.3,0.4l-1.1,1.3l-0.4,0.7c-0.1,0.3-0.3,0.6-0.3,0.7c-0.1,0.2-0.3,0.4-0.6,0.7
	l0.1,0.3l-0.2,0.6l-0.2,0v0.3h-0.2l-0.6,0.7c0,0.3-0.1,0.5-0.4,0.6c-0.1,0.1-0.2,0.3-0.2,0.6c-0.1,0.2-0.2,0.4-0.3,0.4l-0.1,0.1
	c-0.2,0.3-0.4,0.6-0.5,0.7c-0.2,0.2-0.4,0.4-0.7,0.6c-0.1,0.3-0.2,0.5-0.4,0.6l0,0.1c0,0.1-0.1,0.3-0.1,0.4
	c-0.1,0.1-0.3,0.2-0.7,0.3c-0.1,0-0.3-0.2-0.3-0.5c-0.1-0.3-0.2-0.5-0.3-0.6l-0.1-0.2l0.2-0.4l0-0.4l0.1-0.1l-0.1-0.3l0-0.4
	l-0.2-0.7l0.2-0.4l-0.1-0.4c0.1-0.3,0.2-0.7,0.2-1.2v-0.2c0,0-0.1-0.2-0.2-0.4c0.2-0.1,0.2-0.2,0.2-0.4l-0.1-0.5l0.2-1.1l-0.1-0.2
	l0-0.5l-0.2-0.3l0.1-0.9l-0.1-0.3l0.1-0.5l-0.1-0.8l0.2-0.4c0.4,0.1,0.6,0.2,0.6,0.2c0,0,0.1,0.1,0.1,0.3c0,0.1,0,0.4,0,0.7l0.2,0.4
	l-0.1,0.6l0.1,1.2l-0.2,0.7l0.1,0.8V22l-0.3,0.4l0.2,0.6c-0.1,0.1-0.1,0.4-0.2,0.8l0.1,0.3c-0.2,0.5-0.2,0.9-0.2,1.2l0,1.1l0.1,0.1
	l0.4-0.2h0.3l0.2-0.7c0.2-0.1,0.4-0.2,0.4-0.3c0-0.2,0.2-0.3,0.5-0.3c0-0.2,0.1-0.4,0.2-0.5c0.1,0,0.2-0.1,0.3-0.4
	c0.2-0.2,0.4-0.4,0.5-0.6v-0.4h0c0.1,0,0.2-0.1,0.3-0.2c0.1-0.1,0.2-0.2,0.4-0.2c0.1-0.2,0.2-0.4,0.3-0.5l0.4-0.5l0.4-0.8
	c0-0.2-0.1-0.3-0.1-0.3c0-0.1,0-0.1,0.1-0.1c0.4-0.3,0.6-0.5,0.6-0.8v-0.4c0.3-0.1,0.5-0.2,0.5-0.3c0,0,0-0.1,0-0.2
	c0-0.1,0-0.1,0-0.1c0-0.1,0-0.1,0.1-0.1c0.1,0,0.1,0,0.2,0.1c0.1-0.5,0.4-0.8,0.7-0.8c0.1,0,0.1,0,0.3,0.1c0-0.3,0.1-0.5,0.3-0.7
	c0-0.1,0.3-0.3,0.7-0.5l0.1-0.2h0.1c0.2,0.2,0.3,0.4,0.4,0.4l0.1,0.2l0.1,0.1l0.1,0.6l0.4,0.2l-0.1,0.5l0.2,0.9v0.9l0.2,1l0.1,1.1
	l0.3,1l0.1,1c0,0,0.1,0.1,0.2,0.3c0.1,0.2,0.2,0.4,0.2,0.7l0.1,0.1v0.5l0.3,0.3l-0.1,0.2l0.2,0.1v0.1c0.2,0.1,0.3,0.2,0.5,0.2
	c0.2,0,0.3,0,0.5-0.1c0.1,0,0.1,0.1,0.1,0.1c0.1,0,0.2-0.1,0.3-0.2c0.3,0,0.4-0.1,0.4-0.2v-0.1c0-0.1,0.2-0.2,0.6-0.3
	c0.1-0.1,0.2-0.2,0.3-0.3l0-0.1c0,0,0.1-0.1,0.1-0.2c0.1-0.1,0.1-0.1,0.3-0.3c0.1-0.1,0.2-0.2,0.3-0.3l0.2-0.3
	c0.1-0.2,0.3-0.5,0.6-0.8l0.4-0.2h0.3L312,23.9z M292.8,24.5l-0.1,0.3l-0.3,0.2l-0.1,0.4l-0.4,0.1c-0.1,0.4-0.3,0.6-0.4,0.7
	l-0.4,0.1l-0.3,0.3c-0.1,0-0.2,0.2-0.5,0.5h-0.2c-0.1,0.2-0.4,0.3-0.7,0.3c-0.2,0.3-0.3,0.4-0.4,0.5c-0.1,0.1-0.3,0.2-0.6,0.2
	c-0.2,0-0.4,0.1-0.4,0.1l-0.1,0.2h-0.5l-0.3,0.2l-0.7-0.6l-0.4-1l-0.1-1.6l-0.1-0.3l0.3-2.5l0.2-0.1l-0.1-1.5c0-0.2,0-0.4,0.1-0.5
	c0-0.2,0.1-0.4,0.1-0.7l0.1-0.1c0-0.3-0.1-0.6-0.2-0.8l0.1-0.4v-0.6l0.1-0.2c0-0.1-0.1-0.3-0.1-0.5c0-0.2-0.1-0.3-0.1-0.3
	c0-0.2,0-0.2,0.1-0.2c0,0,0,0,0.1,0c-0.1-0.3-0.2-0.5-0.2-0.6c0-0.1,0.1-0.2,0.2-0.2c0,0,0.1,0,0.2,0.1c0.1,0.1,0.2,0.1,0.2,0.1
	c0,0,0.1,0,0.1-0.1c0-0.2,0.1-0.2,0.2-0.2c0.1,0,0.2,0,0.2,0.1c0,0,0,0.2,0.1,0.6l0.3,0.1l-0.3,0.3l-0.3,1.9l0.2,0.5
	c0,0.2-0.1,0.4-0.3,0.6l-0.1,0.4l0.1,0.3l-0.4,1.2l0,0.1l-0.1,1v0.7l-0.2,0.5l0.1,0.4l-0.1,0.7c0,0.5,0.1,1,0.2,1.3l0,0.2l0.3,0.2
	l0.3-0.1l0.4,0.1l0.4-0.2c0.1-0.1,0.3-0.2,0.5-0.2l0.2-0.2l0.1,0.1l0.2-0.2l0.3-0.1c0.2-0.2,0.5-0.3,0.7-0.4
	c0.1-0.1,0.2-0.2,0.4-0.2l0.2-0.3l0.3,0l-0.1-0.3h0.1l0.1-0.2l0.6-0.3l0.1-0.4l0.6,0C292.7,24.4,292.8,24.4,292.8,24.5z M289.8,9.4
	c-0.1,0.2-0.2,0.3-0.5,0.5v0.2l-0.3,0.3c-0.1,0.1-0.2,0.2-0.2,0.2c0,0-0.1,0-0.2-0.1l-0.8,1l-0.2,0.3l-0.7,0.2l-0.4,0.5l-0.3,0.1
	c-0.1,0-0.3,0.2-0.7,0.6l-0.2-0.1l0-0.4l0.7-0.3c0.1-0.5,0.2-0.8,0.4-0.8c0.2-0.1,0.2-0.1,0.2-0.1v-0.1l0.1-0.1l0.1,0l0.1-0.2h0.1
	l-0.1-0.3h0.5v-0.4l0.2-0.1l0.1-0.2l0.2-0.1l0.2-0.4c0.1,0,0.1-0.1,0.2-0.2h0.2l0-0.3c0.2-0.2,0.3-0.4,0.4-0.6
	C289.4,8.8,289.7,9,289.8,9.4z M284.1,25.4l-0.2,0.4l-0.8,1.1c-0.4,0.3-0.8,0.6-1.1,0.8c-0.3,0.2-0.9,0.4-1.7,0.6l-0.3-0.1l-0.4,0.1
	l-0.5-0.1l-0.5,0.1l-0.1-0.1l-0.3,0.1l-0.4-0.1h-0.5l-0.4-0.4l-0.7-0.2l-0.3-0.3l-0.3,0.1l-0.4-0.4c-0.1-0.1-0.1-0.1-0.2-0.1
	l-0.4-0.1l-0.4-0.5h-0.9l-0.2-0.4h-0.3l-0.1-0.2l-0.4-0.1l-0.1-0.6l-0.4,0.3l-0.2-0.3l-0.5-0.4l-0.3-0.4c-0.1-0.1-0.3-0.3-0.5-0.4
	c-0.2-0.2-0.4-0.3-0.6-0.5c-0.2-0.2-0.4-0.3-0.6-0.4c-0.2-0.3-0.4-0.5-0.7-0.5H268l-0.1-0.2l-0.4,0.1l-0.1-0.3l-0.2,0.1l-0.5-0.1
	l-0.3,0.4l0.1,1l-0.3,0.1l0.3,0.8c0,0.3-0.1,0.8-0.4,1.3c0.2,0.1,0.3,0.2,0.4,0.5c-0.2,0.3-0.2,0.5-0.2,0.8v0.7l-0.2,0.5l-0.1,0.4
	c0,0.3-0.3,0.9-0.8,1.6l-0.3-0.2l0.1-0.4l0-0.3c0-0.1,0.1-0.2,0.2-0.4l-0.1-0.3l0.3-0.2c-0.2,0-0.3-0.1-0.3-0.3c0,0,0,0,0-0.1
	c0-0.1,0.1-0.2,0.3-0.4l-0.2-0.2l0.2-0.3l0.1,0.1c0-0.4-0.1-0.6-0.2-0.9l0.2-0.5l-0.2,0.1c-0.1-0.1-0.1-0.3-0.1-0.4
	c0-0.1,0.1-0.3,0.2-0.6c0-0.3-0.1-0.6-0.1-0.9c0-0.3,0-0.4-0.1-0.5c-0.1,0-0.1-0.1-0.1-0.2l0.2-0.2l-0.2-0.6l0.3-0.4l-0.1-0.3v-0.7
	l-0.1-0.7l0.4-0.4c-0.1-0.1-0.2-0.2-0.2-0.5l0-0.3c0-0.1,0-0.2,0-0.2l0.1-0.4l-0.1-0.1V18c0.1,0,0.2-0.1,0.2-0.2l-0.1-0.3v-1.4
	l0-0.2c0.1-0.1,0.1-0.3,0.1-0.6c-0.2-0.2-0.2-0.5-0.2-0.8c0-0.3,0.1-0.7,0.2-1c0.1-0.1,0.3-0.1,0.4-0.1c0.2,0,0.3,0.1,0.6,0.1
	l0.4,0.6l-0.1,0.7l0.2,0.2l-0.1,0.3l0.1,0.4l-0.4,0.6l0.2,1l-0.2,0.7l0.1,1l-0.3,0.5l0.2,0.2l0.4,0.7c0,0,0.2,0.1,0.5,0.1
	c0.3,0.1,0.6,0.1,0.8,0.2l0.2-0.1l0.3,0.1l0.3-0.2l0.5,0.1l0.1,0.1c0.5-0.4,0.9-0.6,1.1-0.6c0.2,0,0.4,0,0.5,0.1v-0.2h0.3
	c0.3-0.3,0.6-0.5,0.8-0.5h0.1l0.2-0.2v0c0,0,0.1-0.1,0.1-0.1h0.3l1-0.4c0.2-0.3,0.3-0.5,0.4-0.6c0.1,0,0.2-0.1,0.2-0.1
	c0.1,0,0.1,0,0.2,0.1l0.1-0.4h0.2l0.1-0.2l0.4-0.1l0.3-0.5h0.3c0.1,0,0.2-0.1,0.2-0.4c0-0.3,0.2-0.4,0.5-0.4
	c0.1-0.2,0.3-0.4,0.4-0.4v-0.2l0.4-0.1c0.1-0.5,0.3-0.8,0.5-0.9c0.1-0.2,0.2-0.4,0.3-0.5c0-0.2,0.3-0.5,0.7-0.9v-0.2
	c0-0.3,0.1-0.4,0.3-0.4c0.2,0,0.4,0.2,0.7,0.5l-0.2,0v0.3c-0.1,0.2-0.2,0.4-0.5,0.6l-0.1,0.4l-0.3,0.1l-0.3,0.9l-0.3,0.4
	c-0.2,0.3-0.3,0.4-0.3,0.5c0,0-0.1,0.1-0.2,0.1c-0.1,0.1-0.2,0.1-0.4,0.3c0,0.2,0.1,0.4,0.1,0.5c-0.5,0-0.8,0.2-0.9,0.5l-0.3,0.1
	v0.2l-0.4,0.2l-0.6,0.7l-0.8,0.4l-0.6,0.4l-0.5,0.1l-0.5,0.3l-0.8,0.2c-0.7,0.5-1.2,0.8-1.5,0.9l-0.9,0.3l-0.6,0.1l0.8,0.6l0.1,0.2
	h0.3l0.3,0.5l0.7,0.6l0.9,0.5l0.1,0.3l0.8,0.3l0.7,0.5l0.9,0.5l0.5,0.5l0.6,0.2l0.8,0.6l1.1,0.4l0.9,0.1l1.4-0.2h0.6
	c0.2,0,0.3-0.1,0.4-0.2c0.1-0.1,0.2-0.2,0.3-0.2c0,0,0.1,0,0.1,0.1c0.1,0,0.1,0,0.2,0h0.1c0.1-0.2,0.2-0.4,0.4-0.4h0.1l0.1-0.3
	c0.2-0.3,0.5-0.5,0.7-0.7l0-0.2c0.2-0.1,0.4-0.2,0.5-0.3l0.1,0.1L284.1,25.4z M255.1,16.7l-0.1,0.4l-0.9,0.1l-0.6,0.4l-0.4,0.1
	l-0.5,0.3l-0.5,0.2c-0.2,0.2-0.4,0.3-0.6,0.4v0.2l-0.4,0.2l-0.3,0.5h-0.3l-0.2,0.5l-0.3,0.2c-0.1,0.1-0.2,0.2-0.3,0.3l-0.3,0.5
	c-0.2,0.1-0.4,0.4-0.4,0.8l-0.1-0.1l-0.1,0.2l-0.2,0.1l-0.2,0.5c-0.2,0.3-0.3,0.5-0.3,0.7l-0.3,0.1V24c-0.1,0.1-0.1,0.2-0.1,0.3
	l0.1,0.1l-0.3,0.1l0.1,0.2c0,0.2-0.2,0.6-0.5,1.1l0.1,0.4l-0.3,0.5c0,0.2,0.1,0.3,0.1,0.5l-0.1,0.5l0.1,0.5c0,0,0.1,0.1,0.1,0.2
	l0.2,0.2c-0.1,0.2-0.2,0.4-0.4,0.5l-0.4-0.1l0.1,0.3l-0.7-0.1v-0.4l-0.1-0.3l0.1-0.5l-0.1-0.2l0.1-1L246,26c-0.1,0-0.2-0.1-0.2-0.2
	c0-0.1,0.1-0.2,0.2-0.4v-0.4c0-0.2,0-0.4,0-0.5l0.1-0.1l-0.1-0.6l0.1-0.5l-0.1-0.3l0.1-0.8l-0.1-0.2l0.1-0.3l-0.2-0.6l0.1-0.5
	c0-0.1,0-0.3-0.1-0.5l0.1-0.1l-0.2-1l-0.2-0.1l0.2-0.5c-0.2-0.3-0.3-0.6-0.3-1v-0.4c-0.1-0.1-0.1-0.2-0.2-0.3
	c0.1-0.2,0.4-0.3,0.7-0.5l0.2,0.1c0,0.2,0.1,0.5,0.3,0.7l-0.1,0.7l0.3,2.3c0,0.1-0.1,0.3-0.2,0.4l0.1,0.6l-0.1,0.5l0.1,0.5l-0.1,0.4
	l0.2,0.4l-0.1,0.1l0.1,0.7l0.2,0.1l0.1-0.6c0-0.1,0.1-0.2,0.3-0.5c0.3-0.2,0.4-0.5,0.4-0.7v-0.2l0.2-0.1c0,0,0.1,0,0.1-0.1
	c0-0.1,0-0.1,0.1-0.1h0.1l0.2-0.6l0.5-0.3l0-0.2h0.2l-0.1-0.3l0.5-0.2l0-0.4l0.4-0.1c0.2-0.2,0.4-0.4,0.4-0.6l0.3-0.1
	c0-0.1,0.2-0.3,0.5-0.5c0.1,0,0.1,0,0.1-0.1l0.5-0.3l0.1-0.2l0.3-0.1c0.5-0.4,0.9-0.6,1.1-0.6h0.1c0.2,0,0.3,0,0.4-0.1l0.3,0.1
	c0.1-0.1,0.2-0.1,0.3-0.1C254.9,16.6,255.1,16.7,255.1,16.7z M238.1,11.9l-0.2,0.5l-0.4,0.2c-0.1,0.2-0.3,0.3-0.4,0.3
	c-0.1,0-0.4,0.1-0.6,0.2c-0.1-0.2-0.3-0.3-0.5-0.5c-0.2-0.2-0.3-0.3-0.3-0.3c0,0,0-0.2-0.1-0.6l0.3-0.3l-0.1-0.2l0.1-0.1l-0.1-0.1
	c0.1,0,0.2-0.1,0.2-0.2c0,0,0.1,0,0.1,0c0,0,0.1,0,0.1-0.1v-0.1h0.1c0.1,0,0.1,0,0.2-0.1c0-0.1,0.1-0.1,0.1-0.1
	c0.1,0.1,0.4,0.2,0.8,0.2c0.2,0.3,0.4,0.5,0.6,0.5v0.2l0.2,0.1l-0.1,0.3L238.1,11.9z M233.2,11.6L233.2,11.6l0,0.4l-0.1,0.1v0.2
	c-0.1,0-0.3,0.2-0.6,0.5c-0.2,0-0.4,0-0.5,0.1c-0.2,0.1-0.3,0.1-0.3,0.1c0,0-0.1,0-0.1-0.1c0-0.1-0.1-0.1-0.2-0.1h-0.1
	c0-0.1,0-0.1-0.1-0.1h-0.1l-0.2-0.1l0.1-0.1l-0.1-0.1l0.1-0.2l-0.3-0.4c0.1-0.2,0.1-0.4,0.1-0.5c0-0.1,0.1-0.2,0.4-0.4
	c0.2-0.1,0.4-0.3,0.5-0.4l0.2,0.1c0.3,0,0.5,0.1,0.6,0.3c0.1,0.1,0.3,0.2,0.6,0.3L233.2,11.6z M241.8,27c0.1,0,0.3,0,0.5,0
	c0.2,0,0.3,0.1,0.3,0.2c0,0.1-0.1,0.3-0.3,0.5l-0.2,0.1l-0.1,0.2c0,0-0.2,0.2-0.5,0.3l-0.5,0.1c-0.1,0.1-0.4,0.2-1,0.2
	c0,0-0.2,0-0.4-0.1c-0.2-0.1-0.4-0.1-0.5-0.2l-1-0.9l-0.2-0.9l-0.3-0.3V26c0-0.3-0.1-0.6-0.2-0.8l0-0.7c0.1-0.4,0.1-0.6,0.1-0.6
	c0-0.2-0.1-0.4-0.2-0.7l0.1-1.3l-0.3,0.2l-0.2,0.3l-0.3,0.2c-0.1,0.1-0.2,0.2-0.3,0.3l-0.3,0c-0.2,0.2-0.3,0.4-0.3,0.6
	c-0.3,0.1-0.5,0.3-0.6,0.5c-0.1,0.2-0.2,0.4-0.5,0.7c-0.2,0.2-0.4,0.4-0.5,0.4c-0.1,0-0.2,0.1-0.3,0.2l-0.9,1.1h-0.1l-0.7,0.8
	l-0.6,0.3l-0.2,0.4c-0.3,0.1-0.8,0.3-1.2,0.5l-0.4-0.3c0,0-0.1,0-0.2,0c-0.1,0-0.2-0.1-0.2-0.2c0-0.1,0-0.1,0-0.2l-0.3-0.2
	c0-0.1,0-0.2,0.1-0.3l-0.4-0.4l0.2-0.3h-0.3l-0.2-0.6l0.2-0.2l-0.3-0.4c0-0.5,0-0.7,0.1-0.8l0-0.5c0-0.2,0.1-0.4,0.2-0.6l-0.2-0.2
	c0.2-0.2,0.2-0.4,0.2-0.6c0-0.1,0-0.3-0.2-0.5c0.1-0.1,0.2-0.2,0.2-0.5c0-0.1,0-0.2,0-0.4l-0.1-1l0.4-2.1c0-0.4-0.1-0.7-0.1-1.1
	l-0.1-0.5c0-0.3,0.2-0.5,0.5-0.5l0.4,0.1l0.2,0.3l-0.1,0.6l-0.1,1.5l0.1,0.9l-0.2,0.5l0.1,0.3l-0.1,0.5v0.4c-0.1,0-0.1,0.1-0.1,0.2
	c0,0.1,0,0.2,0,0.2c0,0.1,0,0.2-0.1,0.3l0.2,0.3l-0.3,0.4l0.2,0.3l-0.1,0.4l0.1,0.5v0.6l0.2,0.2l-0.1,0.7c0,0.1,0.1,0.3,0.2,0.4
	l-0.1,0.3l0.1,0.4c0.2,0.1,0.4,0.3,0.6,0.6c0.2,0,0.4-0.1,0.6-0.3c0.2-0.2,0.4-0.3,0.6-0.5c0,0,0,0-0.1,0c0.3-0.1,0.5-0.3,0.5-0.5
	c0.2,0,0.4-0.1,0.5-0.1l0.1-0.4l0.3-0.1c0.2-0.3,0.6-0.5,1-0.6l0-0.3l0.5-0.4c0-0.4,0.3-0.6,0.6-0.6L235,23l0.3-0.1l0.4-0.6h0.2
	v-0.2l0.3-0.1l0.2-0.4c0.2-0.1,0.5-0.2,0.7-0.3l0.1-0.3l0.2-0.1v-0.2l0.1,0c0-0.5,0.2-0.7,0.5-0.7l-0.1-0.1l0.6-1.7h0.1v-0.4h0
	c0.1,0,0.2-0.4,0.5-1.1l0.5-0.1l-0.1,0.1l0.3,0.6l-0.2,1.1l-0.4,0.7l-0.3,1.1l-0.4,0.3V21l-0.2,0.4l0.1,0.5l-0.2,0.2l0.1,1.3
	l-0.1,1.6l0.1,0.2l0,0.2h0.1V26c0.3,0.5,0.5,0.8,0.5,0.9l0.4,0.1l0.1,0.3c0.3,0.1,0.5,0.2,0.7,0.3l0.4,0l0.3,0.1l0.5-0.2
	C241.3,27.4,241.5,27.2,241.8,27z M228.3,10.1c0,0.1-0.1,0.3-0.2,0.4l-0.1-0.1l-0.3,0.2l-0.2-0.6c-0.2-0.5-0.3-0.9-0.5-1
	c-0.1-0.2-0.2-0.2-0.3-0.2l-0.2,0.2c-0.2-0.2-0.5-0.2-0.8-0.3l-0.3,0.3c-0.2-0.1-0.3-0.1-0.5-0.1l-0.7,0.1C224,8.9,224,9.1,224,9.2
	c0,0.1-0.1,0.1-0.1,0.1c0,0,0,0-0.1-0.1c0,0-0.1-0.1-0.1-0.1c-0.1,0-0.5,0.6-1.2,1.8c-0.1,0.5-0.2,0.9-0.2,1l-0.2,0
	c-0.1,0.4-0.2,0.8-0.4,1.1l0.2,0.6l-0.4,0.2c-0.1,0.5-0.2,0.8-0.3,1l0,0.5l-0.4,1.1l0.1,0.6c0,0.1-0.1,0.3-0.2,0.6
	c-0.1,0.1-0.1,0.3-0.1,0.6c0,0.3,0.2,0.5,0.5,0.5h0.2c0.1-0.1,0.3-0.2,0.5-0.2h0.1c0.1,0,0.3,0,0.4-0.1c0,0,0.1,0,0.3,0
	c0.2,0,0.4,0,0.5,0h0.2c0.2-0.1,0.3-0.1,0.4-0.1c0.1,0,0.3,0.1,0.6,0.2l0.7-0.1c0,0,0.1,0,0.2,0.1c0.1,0,0.2,0.1,0.3,0.1
	c0.2,0,0.3,0,0.4-0.1c0.1,0.2,0.2,0.2,0.3,0.2c0.2-0.1,0.3-0.2,0.4-0.2c0.1,0,0.1,0.1,0.1,0.2c0,0,0,0.2-0.1,0.4l-0.8,0.3l-0.9-0.2
	c-0.1,0.1-0.4,0.2-0.7,0.3c-0.1-0.2-0.3-0.2-0.4-0.2c-0.1,0-0.3,0.1-0.6,0.4c-0.1,0-0.3,0-0.5-0.1l-0.1,0.1l-0.5,0.2l-0.3-0.2
	l-0.2,0h-0.2c-0.1,0-0.2,0.1-0.3,0.2c-0.1,0.1-0.3,0.2-0.4,0.2l-0.3,0.4l0.1,0.4l-0.1,0.5l0.1,0.5l-0.3,0.7l0.1,1.3l-0.2,0.5
	l0.1,0.4l-0.3,0.7l0.2,0.7v0c0,0,0,0.2-0.1,0.4c-0.1,0.2-0.1,0.5-0.1,0.8l0,0.8c0,0.3,0.1,0.5,0.2,0.6l-0.1,0.4l0.2,0.7l-0.1,0.5
	l0.3,1.6l0.1,1.8l0.5,0.7l-0.2,0.1l-0.1,0.4c0.2,0.3,0.4,0.6,0.4,0.9v0.1c0.1,0.2,0.1,0.4,0.1,0.5c0,0.3-0.1,0.4-0.4,0.4l-0.2-0.3
	l-0.2-0.1l0-0.3l-0.6-1.7V34l-0.2-0.2l0.2-0.3l-0.1-0.7l0.1-0.5c0,0,0-0.1-0.1-0.2c0-0.1-0.1-0.3-0.1-0.5c0-0.2,0-0.3,0-0.3
	l-0.2-1.6l0.1-0.1l-0.1-0.7l0.1-0.5l-0.1-0.3l0.1-0.2l0-1.6l0.1-0.1v-1.2l0.1-0.3l-0.1-1l0.1-0.3l0.3-2c0-0.1,0-0.2,0.1-0.4
	c0-0.2,0.1-0.3,0.1-0.4c0,0-0.1-0.2-0.3-0.6l-0.5,0.2l-0.5-0.1l-0.3,0.2l-0.3-0.2l-0.1,0.1l-0.5,0.1l-0.5-0.1l-0.8,0.1l-0.4-0.1
	l-0.1,0.1c-0.3-0.1-0.6-0.2-0.7-0.3c-0.1-0.1-0.2-0.3-0.3-0.6l0.1-0.4c0-0.1,0.1-0.2,0.3-0.2c0.1,0,0.3,0,0.5,0.1l0.1,0.2l1-0.1
	l1.2,0.1l0.8-0.2l0.6,0c0.3,0,0.5,0.1,0.6,0.2c0-0.1,0.1-0.1,0.4-0.2l-0.1-0.3l0.1-0.6l0-0.6c0-0.2,0.1-0.4,0.2-0.7l-0.1-0.7
	c0,0,0-0.1,0.1-0.2c0.1-0.1,0.1-0.2,0.1-0.3v-0.1l0.3-0.3l0.1-1l0.2-0.2l-0.1-0.4c0.2-0.3,0.3-0.5,0.3-0.7c0,0,0-0.1,0-0.2
	c0-0.1,0-0.2,0.1-0.5c0.1-0.2,0.1-0.4,0.2-0.5c0-0.1,0.1-0.2,0.2-0.4c0.1-0.1,0.1-0.3,0.1-0.4l0-0.2v-0.1c0-0.1,0.1-0.3,0.2-0.3
	l-0.1-0.2c0-0.1,0.1-0.2,0.3-0.3c0.2-0.3,0.4-0.7,0.5-1c0.2,0,0.3-0.2,0.5-0.7l0.4-0.1h0.4l0.2-0.3l0.5,0.2c0.3-0.2,0.6-0.2,0.8-0.2
	l0.6,0.1c0.2,0.1,0.4,0.1,0.4,0.1c0.1,0,0.2,0,0.4-0.1c0.1,0,0.2,0.2,0.3,0.4l0.5,0.3c0.2,0.4,0.4,0.7,0.6,1L228.3,10.1L228.3,10.1z
	 M206.9,23.9c0,0.2-0.1,0.3-0.4,0.5l0,0.1c0,0.1-0.1,0.3-0.4,0.6c-0.3,0.3-0.4,0.6-0.4,0.7l-0.3,0.1c0,0.4-0.2,0.6-0.5,0.7
	c0,0.1-0.1,0.2-0.1,0.2h-0.1c0,0.2-0.1,0.2-0.3,0.2l-0.2,0.3l-0.4,0.1l-0.3,0.2c0,0-0.1,0.1-0.2,0.1l-0.7,0.1l-0.2,0l-0.2,0
	l-0.1-0.1l-0.3,0l-0.3-0.4h-0.1c-0.1-0.1-0.1-0.2-0.1-0.3c-0.3-0.3-0.5-0.6-0.5-0.8V26l-0.2-0.4v-0.2l0.1-0.1l-0.1-0.4l-0.2-0.5
	l0-0.8l-0.3-0.5v-0.7c-0.3-1.5-0.4-2.3-0.4-2.7v-0.1c0-0.2-0.1-0.3-0.1-0.3c0-0.1,0-0.1,0-0.2c-0.2-0.3-0.3-0.6-0.3-0.8l-0.1-0.1
	l-0.6,0.7l-0.3,0.4l-1.1,1.3l-0.4,0.7c-0.1,0.3-0.3,0.6-0.3,0.7c-0.1,0.2-0.3,0.4-0.6,0.7l0.1,0.3l-0.2,0.6l-0.2,0v0.3h-0.2
	l-0.6,0.7c0,0.3-0.1,0.5-0.4,0.6c-0.1,0.1-0.2,0.3-0.2,0.6c-0.1,0.2-0.2,0.4-0.3,0.4l-0.1,0.1c-0.2,0.3-0.4,0.6-0.5,0.7
	c-0.2,0.2-0.4,0.4-0.7,0.6c-0.1,0.3-0.2,0.5-0.4,0.6l0,0.1c0,0.1-0.1,0.3-0.1,0.4c-0.1,0.1-0.3,0.2-0.7,0.3c-0.1,0-0.3-0.2-0.3-0.5
	c-0.1-0.3-0.2-0.5-0.3-0.6l-0.1-0.2l0.2-0.4l0-0.4l0.1-0.1l-0.1-0.3l0-0.4l-0.2-0.7l0.2-0.4l-0.1-0.4c0.1-0.3,0.2-0.7,0.2-1.2v-0.2
	c0,0-0.1-0.2-0.2-0.4c0.2-0.1,0.2-0.2,0.2-0.4l-0.1-0.5l0.2-1.1l-0.1-0.2l0-0.5l-0.2-0.3l0.1-0.9l-0.1-0.3l0.1-0.5l-0.1-0.8l0.2-0.4
	c0.4,0.1,0.6,0.2,0.6,0.2c0,0,0.1,0.1,0.1,0.3c0,0.1,0,0.4,0,0.7l0.2,0.4l-0.1,0.6l0.1,1.2l-0.2,0.7l0.1,0.8V22l-0.3,0.4l0.2,0.6
	c-0.1,0.1-0.1,0.4-0.2,0.8l0.1,0.3c-0.2,0.5-0.2,0.9-0.2,1.2l0,1.1l0.1,0.1l0.4-0.2h0.3l0.2-0.7c0.2-0.1,0.4-0.2,0.4-0.3
	c0-0.2,0.2-0.3,0.5-0.3c0-0.2,0.1-0.4,0.2-0.5c0.1,0,0.2-0.1,0.3-0.4c0.2-0.2,0.4-0.4,0.5-0.6v-0.4h0c0.1,0,0.2-0.1,0.3-0.2
	c0.1-0.1,0.2-0.2,0.4-0.2c0.1-0.2,0.2-0.4,0.3-0.5l0.4-0.5l0.4-0.8c0-0.2-0.1-0.3-0.1-0.3c0-0.1,0-0.1,0.1-0.1
	c0.4-0.3,0.6-0.5,0.6-0.8v-0.4c0.3-0.1,0.5-0.2,0.5-0.3c0,0,0-0.1,0-0.2c0-0.1,0-0.1,0-0.1c0-0.1,0-0.1,0.1-0.1c0.1,0,0.1,0,0.2,0.1
	c0.1-0.5,0.4-0.8,0.7-0.8c0.1,0,0.1,0,0.3,0.1c0-0.3,0.1-0.5,0.3-0.7c0-0.1,0.3-0.3,0.7-0.5l0.1-0.2h0.1c0.2,0.2,0.3,0.4,0.4,0.4
	l0.1,0.2l0.1,0.1l0.1,0.6l0.4,0.2l-0.1,0.5l0.2,0.9v0.9l0.2,1l0.1,1.1l0.3,1l0.1,1c0,0,0.1,0.1,0.2,0.3c0.1,0.2,0.2,0.4,0.2,0.7
	l0.1,0.1v0.5l0.3,0.3l-0.1,0.2l0.2,0.1v0.1c0.2,0.1,0.3,0.2,0.5,0.2c0.2,0,0.3,0,0.5-0.1c0.1,0,0.1,0.1,0.1,0.1
	c0.1,0,0.2-0.1,0.3-0.2c0.3,0,0.4-0.1,0.4-0.2v-0.1c0-0.1,0.2-0.2,0.6-0.3c0.1-0.1,0.2-0.2,0.3-0.3l0-0.1c0,0,0.1-0.1,0.1-0.2
	c0.1-0.1,0.1-0.1,0.3-0.3c0.1-0.1,0.2-0.2,0.3-0.3l0.2-0.3c0.1-0.2,0.3-0.5,0.6-0.8l0.4-0.2h0.3L206.9,23.9z M184.5,18.9
	c0.1,0,0.2-0.1,0.4-0.4l0.1-0.4c0.2-0.4,0.4-0.7,0.4-0.8c0-0.1,0.1-0.2,0.1-0.4c0-0.2-0.1-0.5-0.2-0.9l-0.6-0.2
	c-0.2,0-0.3,0.1-0.3,0.1l-0.2-0.1c-0.1,0-0.2,0.1-0.3,0.3c-0.2,0-0.4,0.1-0.8,0.2l-0.1,0.2c0,0-0.1,0-0.1,0c0,0-0.1,0-0.1,0
	c0,0-0.1,0-0.1,0c0,0,0,0-0.1,0.1c0,0,0,0.1-0.1,0.1c0,0,0,0.1,0,0.1c0,0,0,0.1,0,0.1c0,0-0.1,0.1-0.2,0.3l-0.2,0.3l-0.4,0.8
	l-0.2,0.2c-0.1,0.1-0.1,0.2-0.2,0.4c0,0.2-0.3,0.7-0.8,1.4l0.2,0.1l0.1,0.2l0.5,0.1c0.3-0.2,0.6-0.3,0.9-0.4l0.1-0.2
	c0.1,0,0.2,0.1,0.2,0.1c0.1,0,0.2-0.1,0.3-0.2l0.3-0.1l0.2-0.4h0.2l0.1-0.3c0.3,0,0.5-0.1,0.7-0.4V18.9z M187,25.7
	c0.1,0.2,0.2,0.4,0.2,0.5c0,0.1-0.1,0.2-0.3,0.5c-0.2,0.3-0.3,0.5-0.4,0.8l-0.2,0l-0.3,0.6l-0.4,0.1l-0.8,0.5l-0.1,0.3l-0.2,0
	l-0.3,0.3h-0.4l-0.1,0.1l-0.2,0c-0.2,0-0.4,0.1-0.6,0.3l-0.2-0.1c-0.2,0.1-0.4,0.1-0.5,0.1c-0.2,0-0.4,0-0.5-0.1c-0.1,0-0.2,0-0.4,0
	l-0.2-0.1c-0.5,0-0.9-0.2-1.1-0.5v-0.4l-0.5-0.3l-0.1-0.3c0-0.1-0.1-0.2-0.3-0.4v-0.2l-0.3-1.4l0.1-1l0.1-0.6v-0.6l0.2-0.5L179,23
	c0.1-0.1,0.2-0.2,0.2-0.3c0-0.1,0.1-0.3,0.2-0.4c0-0.2-0.1-0.4-0.1-0.7l0.3-0.2l-0.3-0.3c0.1-0.2,0.2-0.4,0.2-0.4l-0.1-0.9
	c0-0.2,0-0.4,0.1-0.6c0.1,0.2,0.2,0.3,0.4,0.3c0.1,0,0.3,0,0.6-0.1c0-0.1,0-0.1,0-0.2c0-0.1,0.1-0.3,0.2-0.4
	c0.2-0.5,0.4-0.9,0.7-1.4c0.2-0.1,0.3-0.3,0.3-0.6h0.1l0.1-0.3l0.2-0.1c0-0.1,0.1-0.3,0.3-0.4c0.2-0.1,0.5-0.3,0.8-0.7
	c0,0,0.1,0,0.2,0c0,0,0.1-0.1,0.2-0.3c0.3-0.1,0.5-0.2,0.5-0.2c0.1,0,0.2,0.1,0.3,0.2l0.3-0.1l0.1,0.1h0.2c0.1,0.3,0.3,0.5,0.6,0.5
	h0.1c0,0.1,0.1,0.2,0.2,0.3l-0.1,0.1c0.3,0.2,0.5,0.6,0.5,1.2l-0.1,0.3l0.1,0.8l-0.1,0.1l-0.3,0.9l-0.6,0.7l0,0.4
	c-0.7,0.6-1.3,1-1.8,1.2c0,0.1-0.1,0.2-0.2,0.2c0,0-0.1,0-0.2-0.1l-0.7,0.5h-0.4l-0.6,0.3l-0.2-0.1c-0.1,0-0.3-0.1-0.6-0.1
	c-0.3,0.3-0.4,0.6-0.4,1.1l-0.2,0.2c0,0.4-0.1,0.6-0.1,0.8l-0.2,0.1l0.2,1.1l-0.2,0.1l0,0.3l0,0.4c0,0.1,0,0.3,0.1,0.6
	c0,0.3,0.1,0.5,0.2,0.5c0,0.1,0,0.3,0.3,0.5c0.2,0.2,0.5,0.3,0.8,0.4v0.2l0.8,0.1l1.1,0.1l0.7-0.1c0.3-0.2,0.5-0.3,0.7-0.4l0.2-0.3
	h0.3l0-0.1c0.4-0.1,0.7-0.2,0.7-0.3c0-0.1,0.1-0.1,0.1-0.2c0.1-0.1,0.2-0.2,0.3-0.2l0.1-0.2c0.4-0.1,0.7-0.4,0.8-0.9
	C186.7,25.8,186.9,25.7,187,25.7z"/>
<path class="st0" d="M350.8,16.7l-0.1,0.4l-0.9,0.1l-0.6,0.4l-0.4,0.1l-0.5,0.3l-0.5,0.2c-0.2,0.2-0.4,0.3-0.6,0.4v0.2l-0.4,0.2
	l-0.3,0.5h-0.3l-0.2,0.5l-0.3,0.2c-0.1,0.1-0.2,0.2-0.3,0.3l-0.3,0.5c-0.2,0.1-0.4,0.4-0.4,0.8l-0.1-0.1l-0.1,0.2l-0.2,0.1l-0.2,0.5
	c-0.2,0.3-0.3,0.5-0.3,0.7l-0.3,0.1V24c-0.1,0.1-0.1,0.2-0.1,0.3l0.1,0.1l-0.3,0.1l0.1,0.2c0,0.2-0.2,0.6-0.5,1.1l0.1,0.4l-0.3,0.5
	c0,0.2,0.1,0.3,0.1,0.5l-0.1,0.5l0.1,0.5c0,0,0.1,0.1,0.1,0.2l0.2,0.2c-0.1,0.2-0.2,0.4-0.4,0.5l-0.4-0.1l0.1,0.3l-0.7-0.1v-0.4
	l-0.1-0.3l0.1-0.5l-0.1-0.2l0.1-1l-0.1-0.7c-0.1,0-0.2-0.1-0.2-0.2c0-0.1,0.1-0.2,0.2-0.4v-0.4c0-0.2,0-0.4,0-0.5l0.1-0.1l-0.1-0.6
	l0.1-0.5l-0.1-0.3l0.1-0.8l-0.1-0.2l0.1-0.3l-0.2-0.6l0.1-0.5c0-0.1,0-0.3-0.1-0.5l0.1-0.1l-0.2-1l-0.2-0.1l0.2-0.5
	c-0.2-0.3-0.3-0.6-0.3-1v-0.4c-0.1-0.1-0.1-0.2-0.2-0.3c0.1-0.2,0.4-0.3,0.7-0.5l0.2,0.1c0,0.2,0.1,0.5,0.3,0.7l-0.1,0.7l0.3,2.3
	c0,0.1-0.1,0.3-0.2,0.4l0.2,0.6l-0.1,0.5l0.1,0.5l-0.1,0.4l0.2,0.4l-0.1,0.1l0.1,0.7l0.2,0.1l0.1-0.6c0-0.1,0.1-0.2,0.3-0.5
	c0.3-0.2,0.4-0.5,0.4-0.7v-0.2l0.2-0.1c0,0,0.1,0,0.1-0.1c0-0.1,0-0.1,0.1-0.1h0.1l0.2-0.6l0.5-0.3l0-0.2h0.2l-0.1-0.3l0.5-0.2
	l0-0.4l0.4-0.1c0.2-0.2,0.4-0.4,0.4-0.6l0.3-0.1c0-0.1,0.2-0.3,0.5-0.5c0.1,0,0.1,0,0.1-0.1l0.5-0.3l0.1-0.2l0.3-0.1
	c0.5-0.4,0.9-0.6,1.1-0.6h0.1c0.2,0,0.3,0,0.4-0.1l0.3,0.1c0.1-0.1,0.2-0.1,0.3-0.1C350.6,16.6,350.8,16.7,350.8,16.7z M335.4,18.9
	c0.1,0,0.2-0.1,0.4-0.4l0.1-0.4c0.2-0.4,0.4-0.7,0.4-0.8c0-0.1,0.1-0.2,0.1-0.4c0-0.2-0.1-0.5-0.2-0.9l-0.6-0.2
	c-0.2,0-0.3,0.1-0.3,0.1l-0.2-0.1c-0.1,0-0.2,0.1-0.3,0.3c-0.2,0-0.4,0.1-0.8,0.2l-0.1,0.2c0,0-0.1,0-0.1,0c0,0-0.1,0-0.1,0
	c0,0-0.1,0-0.1,0c0,0,0,0-0.1,0.1c0,0,0,0.1-0.1,0.1c0,0,0,0.1,0,0.1c0,0,0,0.1,0,0.1c0,0-0.1,0.1-0.2,0.3l-0.2,0.3l-0.4,0.8
	l-0.2,0.2c-0.1,0.1-0.1,0.2-0.2,0.4c0,0.2-0.3,0.7-0.8,1.4l0.2,0.1l0.1,0.2l0.5,0.1c0.3-0.2,0.6-0.3,0.9-0.4l0.1-0.2
	c0.1,0,0.2,0.1,0.2,0.1c0.1,0,0.2-0.1,0.3-0.2l0.3-0.1l0.2-0.4h0.2l0.1-0.3c0.3,0,0.5-0.1,0.7-0.4V18.9z M337.9,25.7
	c0.1,0.2,0.2,0.4,0.2,0.5c0,0.1-0.1,0.2-0.3,0.5c-0.2,0.3-0.3,0.5-0.4,0.8l-0.2,0l-0.3,0.6l-0.4,0.1l-0.8,0.5l-0.1,0.3l-0.2,0
	l-0.3,0.3h-0.4l-0.1,0.1l-0.2,0c-0.2,0-0.4,0.1-0.6,0.3l-0.2-0.1c-0.2,0.1-0.4,0.1-0.5,0.1c-0.2,0-0.4,0-0.5-0.1c-0.1,0-0.2,0-0.4,0
	l-0.2-0.1c-0.5,0-0.9-0.2-1.1-0.5v-0.4l-0.5-0.3l-0.1-0.3c0-0.1-0.1-0.2-0.3-0.4v-0.2l-0.3-1.4l0.1-1l0.1-0.6v-0.6l0.2-0.5l-0.1-0.4
	c0.1-0.1,0.2-0.2,0.2-0.3c0-0.1,0.1-0.3,0.2-0.4c0-0.2-0.1-0.4-0.1-0.7l0.3-0.2l-0.3-0.3c0.1-0.2,0.2-0.4,0.2-0.4l-0.1-0.9
	c0-0.2,0-0.4,0.1-0.6c0.1,0.2,0.2,0.3,0.4,0.3c0.1,0,0.3,0,0.6-0.1c0-0.1,0-0.1,0-0.2c0-0.1,0.1-0.3,0.2-0.4
	c0.2-0.5,0.4-0.9,0.7-1.4c0.2-0.1,0.3-0.3,0.3-0.6h0.1l0.1-0.3l0.2-0.1c0-0.1,0.1-0.3,0.3-0.4c0.2-0.1,0.5-0.3,0.8-0.7
	c0,0,0.1,0,0.2,0c0,0,0.1-0.1,0.2-0.3c0.3-0.1,0.5-0.2,0.5-0.2c0.1,0,0.2,0.1,0.3,0.2l0.3-0.1l0.1,0.1h0.2c0.1,0.3,0.3,0.5,0.6,0.5
	h0.1c0,0.1,0.1,0.2,0.2,0.3l-0.1,0.1c0.3,0.2,0.5,0.6,0.5,1.2l-0.1,0.3l0.1,0.8l-0.1,0.1l-0.3,0.9l-0.6,0.7l0,0.4
	c-0.7,0.6-1.3,1-1.8,1.2c0,0.1-0.1,0.2-0.2,0.2c0,0-0.1,0-0.2-0.1l-0.7,0.5h-0.4l-0.6,0.3l-0.2-0.1c-0.1,0-0.3-0.1-0.6-0.1
	c-0.3,0.3-0.4,0.6-0.4,1.1l-0.2,0.2c0,0.4-0.1,0.6-0.1,0.8l-0.2,0.1l0.2,1.1l-0.2,0.1l0,0.3l0,0.4c0,0.1,0,0.3,0.1,0.6
	c0,0.3,0.1,0.5,0.2,0.5c0,0.1,0,0.3,0.3,0.5c0.2,0.2,0.5,0.3,0.8,0.4v0.2l0.8,0.1l1.1,0.1l0.7-0.1c0.3-0.2,0.5-0.3,0.7-0.4l0.2-0.3
	h0.3l0-0.1c0.4-0.1,0.7-0.2,0.7-0.3c0-0.1,0.1-0.1,0.1-0.2c0.1-0.1,0.1-0.2,0.3-0.2l0.1-0.2c0.4-0.1,0.7-0.4,0.8-0.9
	C337.6,25.8,337.7,25.7,337.9,25.7z M323.3,18.9l-0.2-0.1l-0.3-0.3l-0.2-0.1c0,0-0.1-0.1-0.2-0.4c-0.1-0.2-0.2-0.4-0.4-0.6
	c-0.1,0-0.2-0.1-0.3-0.2V17l-0.5-0.1l-0.4-0.2c-0.1-0.1-0.2-0.1-0.4-0.1c-0.2,0-0.4-0.1-0.6-0.1l-0.9,0.1l-0.3,0.1l-0.3-0.2
	l-0.5,0.1h-0.6l-0.1,0.3l-0.2,0.1c0,0.2,0,0.3,0.1,0.3c-0.1,0.2-0.4,0.4-0.7,0.7l-0.2,0.5l-0.3,0.1l-0.3,0.8l-0.1,0.9l-0.3,0.3v0.5
	c-0.2,0.2-0.3,0.4-0.3,0.5l0.1,0.7l-0.5,0.9l-0.1,0.7l0,1l0.1,0.2l-0.2,0.4l0.1,0.2l-0.2,0.5c0.2,0.3,0.3,0.7,0.4,1.1l0.3,0.1
	l-0.1,0.2h0.3c0.2,0.1,0.3,0.2,0.4,0.2c0,0,0.1,0,0.1-0.1c0.1-0.1,0.2-0.1,0.5-0.1v0.1c0.1-0.1,0.2-0.2,0.2-0.3
	c0.2,0,0.2-0.1,0.2-0.2l0.3-0.1l0.1,0.1l0.1-0.3l0.6-0.2l0.1-0.3l0.4-0.2V26l0.3-0.3l0.1,0c0.1,0,0.1-0.1,0.1-0.2h0.2v-0.2l0.5-0.2
	l-0.1-0.5l0.3-0.2l-0.2-0.2c0,0,0.1,0,0.2,0c0.1,0,0.2,0,0.4-0.1l0-0.1l0.3,0l0.3-0.9l0.3-0.3l0.1-0.5l0.4-0.1
	c0.3-0.5,0.5-0.8,0.7-0.9v-0.4l0.3-0.1l0.7-1.5L323.3,18.9z M326.1,27c-0.2,0.8-0.5,1.3-0.8,1.5c-0.2-0.1-0.4-0.2-0.5-0.3l-0.5-0.8
	l-0.2-0.5l-0.4-1.4v-1.3l-0.1-1.2l0.1-0.7l-0.1-0.6V21l-0.3-0.4l-0.1,0.2l-0.2,0l-0.5,1.1l-0.5,0.8h-0.2l-0.1,0.3
	c0,0.1-0.1,0.2-0.2,0.4c-0.1,0.1-0.2,0.3-0.3,0.5l-0.8,0.9l-0.6,0.9l-0.7,0.7c-0.2,0.3-0.3,0.5-0.5,0.7l-0.4,0.3
	c-0.1,0.1-0.3,0.3-0.5,0.6l-0.5,0.2c-0.1,0-0.2,0.1-0.3,0.3l-0.4,0.1c-0.1,0-0.3,0.1-0.6,0.3l-0.3-0.1l-0.1,0.2l-0.3,0l-0.9-0.7
	c-0.2-0.2-0.3-0.5-0.3-0.9c-0.1-0.4-0.2-0.6-0.3-0.6l-0.2,0.1l0.3-0.5l-0.1-0.5l0.1-0.4l-0.1-0.6l0.2-0.9v-0.8L314,23v-0.7
	c0.1-0.3,0.2-0.5,0.2-0.7l0.1-0.1V21l0.3-0.5l0-0.4c0.1-0.2,0.2-0.4,0.3-0.6l0.1-0.9c0-0.2,0.1-0.4,0.3-0.5l0-0.3
	c0-0.1,0.1-0.2,0.2-0.4c0.1-0.2,0.2-0.3,0.2-0.4c0.3-0.3,0.5-0.5,0.7-0.6l-0.1-0.1c0.1,0,0.2-0.1,0.2-0.1c0,0,0.1,0,0.2,0
	c0.1,0,0.1,0,0.2,0l-0.1-0.1l1.3-0.4c0.2,0,0.4,0,0.5,0c0.2,0,0.2,0,0.2-0.1v0l0.5,0l0.3,0.1l0.2-0.1c0,0.1,0.1,0.1,0.2,0.1
	c0,0,0.1,0,0.1,0l0.5,0v0.1l0.1-0.1l0.4,0.4l0.5-0.1l0.3,0.5l0.5,0.4c0.1,0,0.1,0.2,0.3,0.4l0.5,0.3c0.2,0.2,0.3,0.2,0.4,0.2
	c0.1,0,0.1,0,0.1-0.1l0.2-1l0.2-0.5l-0.1-0.8l0.1-1.4l-0.1-0.4c0.1-0.2,0.2-0.4,0.2-0.6l-0.1-0.3l0.1-0.8l-0.1-0.8l0.1-0.2l-0.1-0.1
	c0.1-0.1,0.2-0.2,0.2-0.2c0,0,0-0.1-0.1-0.2c0.1-0.1,0.1-0.3,0.1-0.4c0-0.1,0-0.3-0.1-0.4h0.1c0-0.1-0.1-0.2-0.1-0.3
	c0-0.1,0.1-0.2,0.3-0.4l-0.1-0.1l0.1,0c0.1,0,0.2,0.1,0.2,0.2c0.1,0,0.2,0.2,0.3,0.4h-0.1l0,0.5l0,0.3h-0.2l0.3,0.4l-0.1,0.4
	l0.2,0.5l-0.1,0.2c0.1,0.2,0.1,0.4,0.1,0.5c0,0.1,0,0.2-0.1,0.3l0.2,0.2c-0.1,0.1-0.1,0.1-0.1,0.2c0,0.1,0.1,0.2,0.2,0.2v0.1
	c0,0.1-0.1,0.2-0.2,0.3v0.3c0,0.5-0.1,1.3-0.2,2.5c0,0,0,0.1,0,0.2c0,0.1,0,0.3-0.1,0.6l0.1,0.3l-0.2,0.7l-0.1,0.7
	c0,0.1-0.1,0.3-0.2,0.5l0.1,0.3l-0.2,0.5l0.2,0.4l-0.2,0.9l0.1,0.7l-0.1,0.4l0.1,0.4l-0.2,0.1c0.2,0.3,0.3,0.5,0.3,0.5
	c0,0.1-0.1,0.1-0.2,0.2l0.1,0.2l-0.1,0.1l0.2,0.2l-0.1,0.5l0.2,0.7l-0.1,0.2l0.1,0.2l-0.2,0.5l0.1,0.1h0.2l0.2,0.3l0.4-0.1l0.1,0.2
	L326.1,27z"/>
<path class="st1" d="M350.8,16.7l-0.1,0.4l-0.9,0.1l-0.6,0.4l-0.4,0.1l-0.5,0.3l-0.5,0.2c-0.2,0.2-0.4,0.3-0.6,0.4v0.2l-0.4,0.2
	l-0.3,0.5h-0.3l-0.2,0.5l-0.3,0.2c-0.1,0.1-0.2,0.2-0.3,0.3l-0.3,0.5c-0.2,0.1-0.4,0.4-0.4,0.8l-0.1-0.1l-0.1,0.2l-0.2,0.1l-0.2,0.5
	c-0.2,0.3-0.3,0.5-0.3,0.7l-0.3,0.1V24c-0.1,0.1-0.1,0.2-0.1,0.3l0.1,0.1l-0.3,0.1l0.1,0.2c0,0.2-0.2,0.6-0.5,1.1l0.1,0.4l-0.3,0.5
	c0,0.2,0.1,0.3,0.1,0.5l-0.1,0.5l0.1,0.5c0,0,0.1,0.1,0.1,0.2l0.2,0.2c-0.1,0.2-0.2,0.4-0.4,0.5l-0.4-0.1l0.1,0.3l-0.7-0.1v-0.4
	l-0.1-0.3l0.1-0.5l-0.1-0.2l0.1-1l-0.1-0.7c-0.1,0-0.2-0.1-0.2-0.2c0-0.1,0.1-0.2,0.2-0.4v-0.4c0-0.2,0-0.4,0-0.5l0.1-0.1l-0.1-0.6
	l0.1-0.5l-0.1-0.3l0.1-0.8l-0.1-0.2l0.1-0.3l-0.2-0.6l0.1-0.5c0-0.1,0-0.3-0.1-0.5l0.1-0.1l-0.2-1l-0.2-0.1l0.2-0.5
	c-0.2-0.3-0.3-0.6-0.3-1v-0.4c-0.1-0.1-0.1-0.2-0.2-0.3c0.1-0.2,0.4-0.3,0.7-0.5l0.2,0.1c0,0.2,0.1,0.5,0.3,0.7l-0.1,0.7l0.3,2.3
	c0,0.1-0.1,0.3-0.2,0.4l0.2,0.6l-0.1,0.5l0.1,0.5l-0.1,0.4l0.2,0.4l-0.1,0.1l0.1,0.7l0.2,0.1l0.1-0.6c0-0.1,0.1-0.2,0.3-0.5
	c0.3-0.2,0.4-0.5,0.4-0.7v-0.2l0.2-0.1c0,0,0.1,0,0.1-0.1c0-0.1,0-0.1,0.1-0.1h0.1l0.2-0.6l0.5-0.3l0-0.2h0.2l-0.1-0.3l0.5-0.2
	l0-0.4l0.4-0.1c0.2-0.2,0.4-0.4,0.4-0.6l0.3-0.1c0-0.1,0.2-0.3,0.5-0.5c0.1,0,0.1,0,0.1-0.1l0.5-0.3l0.1-0.2l0.3-0.1
	c0.5-0.4,0.9-0.6,1.1-0.6h0.1c0.2,0,0.3,0,0.4-0.1l0.3,0.1c0.1-0.1,0.2-0.1,0.3-0.1C350.6,16.6,350.8,16.7,350.8,16.7z M335.4,18.9
	c0.1,0,0.2-0.1,0.4-0.4l0.1-0.4c0.2-0.4,0.4-0.7,0.4-0.8c0-0.1,0.1-0.2,0.1-0.4c0-0.2-0.1-0.5-0.2-0.9l-0.6-0.2
	c-0.2,0-0.3,0.1-0.3,0.1l-0.2-0.1c-0.1,0-0.2,0.1-0.3,0.3c-0.2,0-0.4,0.1-0.8,0.2l-0.1,0.2c0,0-0.1,0-0.1,0c0,0-0.1,0-0.1,0
	c0,0-0.1,0-0.1,0c0,0,0,0-0.1,0.1c0,0,0,0.1-0.1,0.1c0,0,0,0.1,0,0.1c0,0,0,0.1,0,0.1c0,0-0.1,0.1-0.2,0.3l-0.2,0.3l-0.4,0.8
	l-0.2,0.2c-0.1,0.1-0.1,0.2-0.2,0.4c0,0.2-0.3,0.7-0.8,1.4l0.2,0.1l0.1,0.2l0.5,0.1c0.3-0.2,0.6-0.3,0.9-0.4l0.1-0.2
	c0.1,0,0.2,0.1,0.2,0.1c0.1,0,0.2-0.1,0.3-0.2l0.3-0.1l0.2-0.4h0.2l0.1-0.3c0.3,0,0.5-0.1,0.7-0.4V18.9z M337.9,25.7
	c0.1,0.2,0.2,0.4,0.2,0.5c0,0.1-0.1,0.2-0.3,0.5c-0.2,0.3-0.3,0.5-0.4,0.8l-0.2,0l-0.3,0.6l-0.4,0.1l-0.8,0.5l-0.1,0.3l-0.2,0
	l-0.3,0.3h-0.4l-0.1,0.1l-0.2,0c-0.2,0-0.4,0.1-0.6,0.3l-0.2-0.1c-0.2,0.1-0.4,0.1-0.5,0.1c-0.2,0-0.4,0-0.5-0.1c-0.1,0-0.2,0-0.4,0
	l-0.2-0.1c-0.5,0-0.9-0.2-1.1-0.5v-0.4l-0.5-0.3l-0.1-0.3c0-0.1-0.1-0.2-0.3-0.4v-0.2l-0.3-1.4l0.1-1l0.1-0.6v-0.6l0.2-0.5l-0.1-0.4
	c0.1-0.1,0.2-0.2,0.2-0.3c0-0.1,0.1-0.3,0.2-0.4c0-0.2-0.1-0.4-0.1-0.7l0.3-0.2l-0.3-0.3c0.1-0.2,0.2-0.4,0.2-0.4l-0.1-0.9
	c0-0.2,0-0.4,0.1-0.6c0.1,0.2,0.2,0.3,0.4,0.3c0.1,0,0.3,0,0.6-0.1c0-0.1,0-0.1,0-0.2c0-0.1,0.1-0.3,0.2-0.4
	c0.2-0.5,0.4-0.9,0.7-1.4c0.2-0.1,0.3-0.3,0.3-0.6h0.1l0.1-0.3l0.2-0.1c0-0.1,0.1-0.3,0.3-0.4c0.2-0.1,0.5-0.3,0.8-0.7
	c0,0,0.1,0,0.2,0c0,0,0.1-0.1,0.2-0.3c0.3-0.1,0.5-0.2,0.5-0.2c0.1,0,0.2,0.1,0.3,0.2l0.3-0.1l0.1,0.1h0.2c0.1,0.3,0.3,0.5,0.6,0.5
	h0.1c0,0.1,0.1,0.2,0.2,0.3l-0.1,0.1c0.3,0.2,0.5,0.6,0.5,1.2l-0.1,0.3l0.1,0.8l-0.1,0.1l-0.3,0.9l-0.6,0.7l0,0.4
	c-0.7,0.6-1.3,1-1.8,1.2c0,0.1-0.1,0.2-0.2,0.2c0,0-0.1,0-0.2-0.1l-0.7,0.5h-0.4l-0.6,0.3l-0.2-0.1c-0.1,0-0.3-0.1-0.6-0.1
	c-0.3,0.3-0.4,0.6-0.4,1.1l-0.2,0.2c0,0.4-0.1,0.6-0.1,0.8l-0.2,0.1l0.2,1.1l-0.2,0.1l0,0.3l0,0.4c0,0.1,0,0.3,0.1,0.6
	c0,0.3,0.1,0.5,0.2,0.5c0,0.1,0,0.3,0.3,0.5c0.2,0.2,0.5,0.3,0.8,0.4v0.2l0.8,0.1l1.1,0.1l0.7-0.1c0.3-0.2,0.5-0.3,0.7-0.4l0.2-0.3
	h0.3l0-0.1c0.4-0.1,0.7-0.2,0.7-0.3c0-0.1,0.1-0.1,0.1-0.2c0.1-0.1,0.1-0.2,0.3-0.2l0.1-0.2c0.4-0.1,0.7-0.4,0.8-0.9
	C337.6,25.8,337.7,25.7,337.9,25.7z M323.3,18.9l-0.2-0.1l-0.3-0.3l-0.2-0.1c0,0-0.1-0.1-0.2-0.4c-0.1-0.2-0.2-0.4-0.4-0.6
	c-0.1,0-0.2-0.1-0.3-0.2V17l-0.5-0.1l-0.4-0.2c-0.1-0.1-0.2-0.1-0.4-0.1c-0.2,0-0.4-0.1-0.6-0.1l-0.9,0.1l-0.3,0.1l-0.3-0.2
	l-0.5,0.1h-0.6l-0.1,0.3l-0.2,0.1c0,0.2,0,0.3,0.1,0.3c-0.1,0.2-0.4,0.4-0.7,0.7l-0.2,0.5l-0.3,0.1l-0.3,0.8l-0.1,0.9l-0.3,0.3v0.5
	c-0.2,0.2-0.3,0.4-0.3,0.5l0.1,0.7l-0.5,0.9l-0.1,0.7l0,1l0.1,0.2l-0.2,0.4l0.1,0.2l-0.2,0.5c0.2,0.3,0.3,0.7,0.4,1.1l0.3,0.1
	l-0.1,0.2h0.3c0.2,0.1,0.3,0.2,0.4,0.2c0,0,0.1,0,0.1-0.1c0.1-0.1,0.2-0.1,0.5-0.1v0.1c0.1-0.1,0.2-0.2,0.2-0.3
	c0.2,0,0.2-0.1,0.2-0.2l0.3-0.1l0.1,0.1l0.1-0.3l0.6-0.2l0.1-0.3l0.4-0.2V26l0.3-0.3l0.1,0c0.1,0,0.1-0.1,0.1-0.2h0.2v-0.2l0.5-0.2
	l-0.1-0.5l0.3-0.2l-0.2-0.2c0,0,0.1,0,0.2,0c0.1,0,0.2,0,0.4-0.1l0-0.1l0.3,0l0.3-0.9l0.3-0.3l0.1-0.5l0.4-0.1
	c0.3-0.5,0.5-0.8,0.7-0.9v-0.4l0.3-0.1l0.7-1.5L323.3,18.9z M326.1,27c-0.2,0.8-0.5,1.3-0.8,1.5c-0.2-0.1-0.4-0.2-0.5-0.3l-0.5-0.8
	l-0.2-0.5l-0.4-1.4v-1.3l-0.1-1.2l0.1-0.7l-0.1-0.6V21l-0.3-0.4l-0.1,0.2l-0.2,0l-0.5,1.1l-0.5,0.8h-0.2l-0.1,0.3
	c0,0.1-0.1,0.2-0.2,0.4c-0.1,0.1-0.2,0.3-0.3,0.5l-0.8,0.9l-0.6,0.9l-0.7,0.7c-0.2,0.3-0.3,0.5-0.5,0.7l-0.4,0.3
	c-0.1,0.1-0.3,0.3-0.5,0.6l-0.5,0.2c-0.1,0-0.2,0.1-0.3,0.3l-0.4,0.1c-0.1,0-0.3,0.1-0.6,0.3l-0.3-0.1l-0.1,0.2l-0.3,0l-0.9-0.7
	c-0.2-0.2-0.3-0.5-0.3-0.9c-0.1-0.4-0.2-0.6-0.3-0.6l-0.2,0.1l0.3-0.5l-0.1-0.5l0.1-0.4l-0.1-0.6l0.2-0.9v-0.8L314,23v-0.7
	c0.1-0.3,0.2-0.5,0.2-0.7l0.1-0.1V21l0.3-0.5l0-0.4c0.1-0.2,0.2-0.4,0.3-0.6l0.1-0.9c0-0.2,0.1-0.4,0.3-0.5l0-0.3
	c0-0.1,0.1-0.2,0.2-0.4c0.1-0.2,0.2-0.3,0.2-0.4c0.3-0.3,0.5-0.5,0.7-0.6l-0.1-0.1c0.1,0,0.2-0.1,0.2-0.1c0,0,0.1,0,0.2,0
	c0.1,0,0.1,0,0.2,0l-0.1-0.1l1.3-0.4c0.2,0,0.4,0,0.5,0c0.2,0,0.2,0,0.2-0.1v0l0.5,0l0.3,0.1l0.2-0.1c0,0.1,0.1,0.1,0.2,0.1
	c0,0,0.1,0,0.1,0l0.5,0v0.1l0.1-0.1l0.4,0.4l0.5-0.1l0.3,0.5l0.5,0.4c0.1,0,0.1,0.2,0.3,0.4l0.5,0.3c0.2,0.2,0.3,0.2,0.4,0.2
	c0.1,0,0.1,0,0.1-0.1l0.2-1l0.2-0.5l-0.1-0.8l0.1-1.4l-0.1-0.4c0.1-0.2,0.2-0.4,0.2-0.6l-0.1-0.3l0.1-0.8l-0.1-0.8l0.1-0.2l-0.1-0.1
	c0.1-0.1,0.2-0.2,0.2-0.2c0,0,0-0.1-0.1-0.2c0.1-0.1,0.1-0.3,0.1-0.4c0-0.1,0-0.3-0.1-0.4h0.1c0-0.1-0.1-0.2-0.1-0.3
	c0-0.1,0.1-0.2,0.3-0.4l-0.1-0.1l0.1,0c0.1,0,0.2,0.1,0.2,0.2c0.1,0,0.2,0.2,0.3,0.4h-0.1l0,0.5l0,0.3h-0.2l0.3,0.4l-0.1,0.4
	l0.2,0.5l-0.1,0.2c0.1,0.2,0.1,0.4,0.1,0.5c0,0.1,0,0.2-0.1,0.3l0.2,0.2c-0.1,0.1-0.1,0.1-0.1,0.2c0,0.1,0.1,0.2,0.2,0.2v0.1
	c0,0.1-0.1,0.2-0.2,0.3v0.3c0,0.5-0.1,1.3-0.2,2.5c0,0,0,0.1,0,0.2c0,0.1,0,0.3-0.1,0.6l0.1,0.3l-0.2,0.7l-0.1,0.7
	c0,0.1-0.1,0.3-0.2,0.5l0.1,0.3l-0.2,0.5l0.2,0.4l-0.2,0.9l0.1,0.7l-0.1,0.4l0.1,0.4l-0.2,0.1c0.2,0.3,0.3,0.5,0.3,0.5
	c0,0.1-0.1,0.1-0.2,0.2l0.1,0.2l-0.1,0.1l0.2,0.2l-0.1,0.5l0.2,0.7l-0.1,0.2l0.1,0.2l-0.2,0.5l0.1,0.1h0.2l0.2,0.3l0.4-0.1l0.1,0.2
	L326.1,27z"/>
</svg>
