<?xml version="1.0" encoding="utf-8"?>
<!-- Generator: Adobe Illustrator 27.5.0, SVG Export Plug-In . SVG Version: 6.00 Build 0)  -->
<svg version="1.1" id="Ebene_1" xmlns="http://www.w3.org/2000/svg" xmlns:xlink="http://www.w3.org/1999/xlink" x="0px" y="0px"
	 viewBox="0 0 419.5 42.5" style="enable-background:new 0 0 419.5 42.5;" xml:space="preserve">
<style type="text/css">
	.st0{fill:#FFFFFF;}
</style>
<path class="st0" d="M353,10.1l-1.2,2.5c-0.7,0-1.5-0.1-2.2-0.1c-0.8,0-1.6,0-2.5,0c-0.7,0-1.2,0-1.5,0c-0.3,0-0.6,0-0.9,0l-0.2,7.8
	c0.7-0.5,1.5-1.1,2.3-1.6c0.8-0.6,1.6-1.2,2.4-1.9c0.6,0.8,1.2,1.5,1.8,2.3c0.6,0.7,1.2,1.4,1.9,2.1c-0.9,0.6-1.7,1.2-2.4,1.8
	c-0.7,0.6-1.4,1.2-2.1,1.8c-0.6-0.7-1.2-1.4-1.9-2.1c-0.7-0.7-1.3-1.4-2-2.1l0.2,9.4c0.2,0,0.6,0,1,0c0.4,0,0.8,0,1,0
	c0.9,0,1.8,0,2.7-0.1c1,0,2-0.1,3.1-0.2l1.4,2.7c-1.1-0.1-2.3-0.1-3.6-0.1c-1.3,0-2.7,0-4.2,0c-1.3,0-2.5,0-3.7,0
	c-1.1,0-2.2,0.1-3.2,0.1l-1-0.9c0.1-1.9,0.1-3.7,0.2-5.4c0-1.7,0.1-3.3,0.1-4.9c0-1.6,0-3.2-0.1-4.9c0-1.7-0.1-3.4-0.2-5.2l1.1-1.1
	c1.3,0.1,2.5,0.1,3.6,0.1c1.1,0,2.2,0,3.2,0c1,0,2.1,0,3.3,0C350.6,10.1,351.8,10.1,353,10.1 M335.8,27.9l-3.6,4.5
	c-0.3,0.1-0.7,0.1-1.1,0.1c-0.4,0-0.8,0-1.3,0c-3.5,0-6.3-1-8.3-3c-2.1-2-3.1-4.7-3.1-8.1c0-3.4,1.1-6.2,3.3-8.4
	c2.2-2.1,5.1-3.2,8.6-3.2c0.6,0,1.2,0,1.7,0.1c0.5,0,1,0.1,1.5,0.2l1.6,2.7c-0.7-0.1-1.3-0.2-1.8-0.2c-0.5-0.1-1-0.1-1.4-0.1
	c-2.3,0-4.1,0.6-5.3,1.9c-1.2,1.2-1.9,3-1.9,5.3c0,2.6,0.8,4.6,2.4,6.1c1.6,1.5,3.7,2.2,6.5,2.2c0.3,0,0.6,0,1,0
	C334.9,28,335.3,28,335.8,27.9z M299.2,18.1v13.3L296,33V14.5l-1.3-1.4c0.9-0.6,1.7-1.2,2.6-1.8c0.8-0.6,1.7-1.3,2.5-1.9
	c2.1,2.8,4.2,5.4,6.2,7.8c2,2.4,3.9,4.6,5.7,6.5V11l3.1-1.6v18l1.4,1.6c-0.8,0.7-1.6,1.4-2.4,2.1c-0.7,0.7-1.5,1.4-2.1,2.2
	c-2.2-2.7-4.3-5.3-6.4-7.8C303.3,23,301.2,20.5,299.2,18.1z M279.7,18.9c-1.6,2.2-3.1,4.5-4.6,6.9c-1.5,2.4-3,4.9-4.5,7.4l-1.9-2.8
	c1.9-2.9,3.6-5.5,5.1-7.9c1.5-2.4,2.9-4.6,4.2-6.7l-2.1-3c0.9-0.6,1.8-1.2,2.7-1.8c0.9-0.6,1.7-1.3,2.6-1.9c2,3.4,4,6.8,6,10.2
	c2.1,3.3,4.2,6.7,6.3,9.9c-0.8,0.5-1.7,1.1-2.6,1.8c-0.9,0.7-1.8,1.4-2.8,2.2c-1.4-2.5-2.7-4.9-4.1-7.3
	C282.5,23.6,281.1,21.3,279.7,18.9z M279.3,23.9c0.6,0.8,1.3,1.6,2,2.4c0.7,0.8,1.4,1.5,2.2,2.3c-0.6,0.5-1.3,1.1-2,1.7
	c-0.7,0.6-1.4,1.3-2.2,2c-0.8-0.8-1.6-1.5-2.3-2.1c-0.7-0.6-1.4-1.2-2-1.7c0.8-0.8,1.5-1.5,2.2-2.3C278,25.4,278.7,24.6,279.3,23.9z
	 M259.7,10.1c-0.1,1.6-0.1,3.2-0.2,4.9c0,1.7-0.1,3.4-0.1,5.2c0,1.8,0,3.5,0.1,5.1c0,1.6,0.1,3.2,0.2,4.7h1.1c1.2,0,2.4,0,3.6-0.1
	c1.2,0,2.4-0.1,3.7-0.2l-1.3,2.8c-1,0-2.1-0.1-3.3-0.1c-1.1,0-2.3,0-3.6,0c-0.9,0-1.9,0-2.8,0c-0.9,0-1.8,0-2.7,0.1l-1-0.9
	c0.1-1.9,0.1-3.7,0.2-5.4c0-1.7,0.1-3.3,0.1-4.9c0-1.6,0-3.2-0.1-4.9c0-1.7-0.1-3.4-0.2-5.2l1.1-1.1l0.1,0c1.1,0.1,2,0.1,2.6,0.1
	c0.3,0,0.7,0,1.1,0C258.4,10.2,259,10.1,259.7,10.1z M238,18.9c-1.6,2.2-3.1,4.5-4.6,6.9c-1.5,2.4-3,4.9-4.5,7.4l-1.9-2.8
	c1.9-2.9,3.6-5.5,5.1-7.9c1.5-2.4,2.9-4.6,4.2-6.7l-2.1-3c0.9-0.6,1.8-1.2,2.7-1.8c0.9-0.6,1.7-1.3,2.6-1.9c2,3.4,4,6.8,6,10.2
	c2.1,3.3,4.2,6.7,6.3,9.9c-0.8,0.5-1.7,1.1-2.6,1.8c-0.9,0.7-1.8,1.4-2.8,2.2c-1.4-2.5-2.7-4.9-4.1-7.3
	C240.8,23.6,239.4,21.3,238,18.9z M237.6,23.9c0.6,0.8,1.3,1.6,2,2.4c0.7,0.8,1.4,1.5,2.2,2.3c-0.6,0.5-1.3,1.1-2,1.7
	c-0.7,0.6-1.4,1.3-2.2,2c-0.8-0.8-1.6-1.5-2.3-2.1c-0.7-0.6-1.4-1.2-2-1.7c0.8-0.8,1.5-1.5,2.2-2.3
	C236.3,25.4,236.9,24.6,237.6,23.9z M212.5,10.1c2,0,3.7,0,5,0.1c1.3,0.1,2.3,0.2,2.9,0.4c1.5,0.4,2.7,1.1,3.5,1.9
	c0.8,0.8,1.2,1.8,1.2,3c0,1.2-0.4,2.2-1.3,3.1c-0.9,0.8-2.2,1.5-3.9,1.9c2.1,0.4,3.8,1.1,4.9,2.1c1.1,1,1.7,2.2,1.7,3.6
	c0,1.3-0.3,2.3-1,3.2c-0.7,0.9-1.6,1.6-3,2.1c-0.8,0.3-1.8,0.5-3.2,0.7c-1.4,0.1-3.1,0.2-5.3,0.2h-5.7l-1-0.9
	c0.1-1.9,0.1-3.7,0.2-5.4c0-1.7,0.1-3.3,0.1-4.9c0-1.6,0-3.2-0.1-4.9c0-1.7-0.1-3.4-0.2-5.2l1.1-1H212.5z M213.2,20.5
	c1.9-0.1,3.4-0.5,4.4-1.3c1-0.8,1.5-1.8,1.5-3c0-1.3-0.5-2.3-1.6-3.1c-1-0.8-2.5-1.2-4.3-1.3L213.2,20.5z M213.3,30.7
	c2.3-0.1,4-0.6,5.2-1.4c1.2-0.8,1.8-1.8,1.8-3.1c0-1.3-0.6-2.3-1.8-3.1c-1.2-0.7-3-1.2-5.3-1.3L213.3,30.7z M174.7,18.1v13.3
	l-3.1,1.6V14.5l-1.3-1.4c0.9-0.6,1.7-1.2,2.6-1.8c0.8-0.6,1.7-1.3,2.5-1.9c2.1,2.8,4.2,5.4,6.2,7.8c2,2.4,3.9,4.6,5.7,6.5V11
	l3.1-1.6v18l1.4,1.6c-0.8,0.7-1.6,1.4-2.4,2.1c-0.7,0.7-1.5,1.4-2.1,2.2c-2.2-2.7-4.3-5.3-6.4-7.8C178.8,23,176.7,20.5,174.7,18.1z
	 M155.2,18.9c-1.6,2.2-3.1,4.5-4.6,6.9c-1.5,2.4-3,4.9-4.5,7.4l-1.9-2.8c1.9-2.9,3.6-5.5,5.1-7.9c1.5-2.4,2.9-4.6,4.2-6.7l-2.1-3
	c0.9-0.6,1.8-1.2,2.7-1.8c0.9-0.6,1.7-1.3,2.6-1.9c2,3.4,4,6.8,6,10.2c2.1,3.3,4.2,6.7,6.3,9.9c-0.8,0.5-1.7,1.1-2.6,1.8
	c-0.9,0.7-1.8,1.4-2.8,2.2c-1.4-2.5-2.7-4.9-4.1-7.3C158,23.6,156.6,21.3,155.2,18.9z M154.8,23.9c0.6,0.8,1.3,1.6,2,2.4
	c0.7,0.8,1.4,1.5,2.2,2.3c-0.6,0.5-1.3,1.1-2,1.7c-0.7,0.6-1.4,1.3-2.2,2c-0.8-0.8-1.6-1.5-2.3-2.1c-0.7-0.6-1.4-1.2-2-1.7
	c0.8-0.8,1.5-1.5,2.2-2.3C153.5,25.4,154.2,24.6,154.8,23.9z M142.2,10.1c-0.1,1.7-0.1,3.4-0.2,5.2c0,1.8-0.1,3.6-0.1,5.5
	c0,1.9,0,3.7,0.1,5.5c0,1.8,0.1,3.5,0.2,5.2l-1,1c-0.5,0-1-0.1-1.4-0.1c-0.5,0-1,0-1.5,0c-0.5,0-1,0-1.4,0c-0.5,0-0.9,0-1.4,0.1
	c0.1-2,0.1-3.9,0.2-5.7c0-1.8,0.1-3.5,0.1-5.2c0-1.7,0-3.4-0.1-5.1c0-1.7-0.1-3.5-0.2-5.3l1.1-1c0.7,0,1.3,0.1,1.6,0.1
	c0.4,0,0.8,0,1.1,0c0.3,0,0.7,0,1.1,0C140.8,10.2,141.4,10.2,142.2,10.1z M117.3,10.1c2.2,0,4.1,0.1,5.6,0.3c1.5,0.2,2.7,0.6,3.6,1
	c1.9,1,3.2,2.2,4.1,3.8c0.9,1.5,1.3,3.5,1.3,5.8c0,3.9-1.2,6.8-3.7,8.7c-2.5,1.9-6.2,2.8-11.3,2.8h-5.2l-1-0.9
	c0.1-1.9,0.1-3.7,0.2-5.4c0-1.7,0.1-3.3,0.1-4.9c0-1.6,0-3.2-0.1-4.9c0-1.7-0.1-3.4-0.2-5.2l1.1-1.1H117.3z M117.1,30.5
	c2.7-0.1,4.7-1,6.1-2.7c1.4-1.6,2.1-4,2.1-7c0-2.9-0.7-5.1-2.1-6.6c-1.4-1.5-3.4-2.3-6.1-2.4c-0.1,1.5-0.1,3.1-0.1,4.6
	c0,1.6,0,3.1,0,4.7c0,1.5,0,3.1,0,4.6C116.9,27.4,117,28.9,117.1,30.5z M90.2,18.1v13.3L87,33V14.5l-1.3-1.4
	c0.9-0.6,1.7-1.2,2.6-1.8c0.8-0.6,1.7-1.3,2.5-1.9c2.1,2.8,4.2,5.4,6.2,7.8c2,2.4,3.9,4.6,5.7,6.5V11l3.1-1.6v18l1.4,1.6
	c-0.8,0.7-1.6,1.4-2.4,2.1c-0.7,0.7-1.5,1.4-2.1,2.2c-2.2-2.7-4.3-5.3-6.4-7.8C94.3,23,92.2,20.5,90.2,18.1z M81,10.1
	c-0.1,1.7-0.1,3.4-0.2,5.2c0,1.8-0.1,3.6-0.1,5.5c0,1.9,0,3.7,0.1,5.5c0,1.8,0.1,3.5,0.2,5.2l-1,1c-0.5,0-1-0.1-1.4-0.1
	c-0.5,0-1,0-1.5,0c-0.5,0-1,0-1.4,0c-0.5,0-0.9,0-1.4,0.1c0.1-2,0.1-3.9,0.2-5.7c0-1.8,0.1-3.5,0.1-5.2c0-1.7,0-3.4-0.1-5.1
	c0-1.7-0.1-3.5-0.2-5.3l1.1-1c0.7,0,1.3,0.1,1.6,0.1c0.4,0,0.8,0,1.1,0c0.3,0,0.7,0,1.1,0C79.6,10.2,80.2,10.2,81,10.1z"/>
</svg>
